<?xml version="1.0" encoding="UTF-8"?>
<svg version="1.1" xmlns="http://www.w3.org/2000/svg" width="640" height="640">
<path d="M0 0 C0.74121094 -0.03738281 1.48242188 -0.07476562 2.24609375 -0.11328125 C6.19911253 -0.17715408 7.85518974 -0.00141847 10.765625 2.7734375 C12.25 5.375 12.25 5.375 12.25 7.375 C7.3 9.025 2.35 10.675 -2.75 12.375 C-0.378125 12.25125 1.99375 12.1275 4.4375 12 C11.34515881 11.83209529 11.34515881 11.83209529 14.359375 13.640625 C16.1219125 15.77640573 17.25 17.55696761 17.25 20.375 C16.0125 20.70371094 14.775 21.03242187 13.5 21.37109375 C-0.58866736 25.20783186 -14.15555076 30.0607578 -27.75 35.375 C-26.95456787 35.1891333 -26.15913574 35.0032666 -25.33959961 34.81176758 C40.31477191 19.6794119 109.94036016 15.27137464 176.11474609 30.02539062 C178.52233648 30.41959019 180.81456681 30.43264339 183.25 30.375 C175.43695644 26.99054795 167.46145881 24.59942976 159.25 22.375 C161.10841157 18.42694593 163.31232521 15.59927721 166.25 12.375 C167.735 11.88 167.735 11.88 169.25 11.375 C167.6 10.715 165.95 10.055 164.25 9.375 C165.800507 5.88635926 167.55097693 3.0917798 170.25 0.375 C214.80653079 -8.20586299 272.40784541 23.32005877 307.80078125 47.2734375 C309.28402466 48.30704705 310.76712273 49.34086523 312.25 50.375 C313.17167969 50.97828125 314.09335937 51.5815625 315.04296875 52.203125 C318.43262806 55.53878974 320.20593996 59.49331726 322.25 63.75 C322.72147461 64.71768311 323.19294922 65.68536621 323.67871094 66.68237305 C359.62525218 141.37900363 382.18910171 222.98554189 390.04736328 314.02685547 C390.20004536 316.5496049 390.37404828 319.06663106 390.56591797 321.58642578 C390.85905837 325.4834333 391.09572854 329.38109302 391.30236816 333.28359985 C391.39100753 334.81943506 391.4953807 336.35446015 391.61706543 337.88803101 C392.24987894 346.06684072 392.2074446 352.10398425 387.09375 359.015625 C385.51453848 360.83342688 383.90313594 362.62415612 382.25 364.375 C381.24357138 365.57079828 380.2391771 366.76831692 379.23828125 367.96875 C344.82342979 405.34780035 295.26386012 427.36732276 244.61328125 430.203125 C242.21706651 430.31963055 242.21706651 430.31963055 239.79296875 430.921875 C236.79555764 431.39390825 235.13305246 431.38667353 232.25 430.375 C227.62176111 426.18843444 223.99065692 421.34823403 220.25 416.375 C218.8573717 414.59108222 217.45406563 412.81597511 216.05004883 411.04101562 C215.14378573 409.89133945 214.24254036 408.73768959 213.34643555 407.58007812 C209.62984181 402.78412447 205.72258093 398.1691315 201.68920898 393.63647461 C199.31647487 390.90969263 197.93804933 388.91353941 197.25 385.375 C196.08744715 383.71741503 196.08744715 383.71741503 194.6875 382.25 C192.25 379.375 192.25 379.375 192.25 377.375 C193.42691406 376.99730469 194.60382813 376.61960937 195.81640625 376.23046875 C205.80826902 372.92821244 215.38390378 369.11945597 224.875 364.5625 C225.8760376 364.08256592 226.8770752 363.60263184 227.90844727 363.1081543 C232.94123017 360.76575154 232.94123017 360.76575154 237.25 357.375 C236.58282959 357.64127197 235.91565918 357.90754395 235.22827148 358.18188477 C194.69804785 374.27553163 151.68026797 386.38404036 107.75 386.578125 C106.68410645 386.58513931 105.61821289 386.59215363 104.52001953 386.59938049 C101.09663626 386.61679813 97.67342596 386.62323343 94.25 386.625 C93.08049805 386.62567474 91.91099609 386.62634949 90.70605469 386.62704468 C73.67502934 386.61141265 57.08345607 386.16515079 40.25 383.375 C39.14011719 383.20339355 38.03023437 383.03178711 36.88671875 382.85498047 C5.75437762 378.01111371 -25.47695767 369.9158948 -54.42407227 357.29736328 C-56.64283575 356.25212331 -56.64283575 356.25212331 -58.75 356.375 C-44.66915145 364.79538259 -29.07102728 373.4535924 -12.75 376.375 C-14.13495285 380.41444581 -16.07884422 383.07533698 -18.75 386.375 C-19.34683594 387.45523437 -19.94367188 388.53546875 -20.55859375 389.6484375 C-22.64294025 393.3506155 -25.13926989 396.44339656 -27.9375 399.625 C-28.92135029 400.76495454 -29.90441222 401.90558992 -30.88671875 403.046875 C-31.6144751 403.88895508 -31.6144751 403.88895508 -32.35693359 404.74804688 C-34.36258306 407.09043174 -36.30707707 409.48047877 -38.25 411.875 C-39.34828125 413.18404297 -39.34828125 413.18404297 -40.46875 414.51953125 C-42.15899042 416.63522602 -43.66079287 418.70543583 -45.15625 420.94921875 C-48.57013125 425.85441672 -51.37802997 429.73589307 -57.31640625 431.3359375 C-61.92145296 431.45297681 -66.19993636 431.02488883 -70.75 430.375 C-72.2362085 430.19227539 -72.2362085 430.19227539 -73.75244141 430.00585938 C-88.03465438 428.23880819 -101.99627736 425.62423645 -115.75 421.375 C-116.54003418 421.13442871 -117.33006836 420.89385742 -118.14404297 420.64599609 C-155.26238068 409.12293458 -189.17724532 386.25660437 -211.75 354.375 C-213.21194573 351.45110854 -212.80780892 348.94654997 -212.734375 345.68359375 C-212.71914795 344.99979141 -212.7039209 344.31598907 -212.68823242 343.61146545 C-212.63360321 341.34484553 -212.56835572 339.07874609 -212.5 336.8125 C-212.47699829 336.03036133 -212.45399658 335.24822266 -212.43029785 334.44238281 C-209.96710093 254.28466222 -190.80636713 175.37281582 -151.75 81.375 C-150.99638184 79.72419434 -150.99638184 79.72419434 -150.22753906 78.04003906 C-148.64739578 74.60204208 -147.04687018 71.17440275 -145.4375 67.75 C-144.94580322 66.68813477 -144.45410645 65.62626953 -143.94750977 64.53222656 C-131.45153819 38.34614364 -89.53828278 22.88388294 -63.88183594 13.47705078 C-43.48207221 6.29864936 -21.74546667 0.42486702 0 0 Z M185.25 30.375 C184.59 31.035 183.93 31.695 183.25 32.375 C184.4875 32.725625 185.725 33.07625 187 33.4375 C187.69609375 33.63472656 188.3921875 33.83195312 189.109375 34.03515625 C191.57823129 34.57036068 191.57823129 34.57036068 195.25 33.375 C191.95 32.385 188.65 31.395 185.25 30.375 Z M-49.375 181.5625 C-61.46745783 194.22376682 -66.45693159 209.08396374 -66.75 226.375 C-66.18023437 225.64925781 -65.61046875 224.92351562 -65.0234375 224.17578125 C-53.86608155 210.43037881 -40.5353567 202.22714277 -23.125 198.625 C-3.76767648 197.19112418 14.90012945 201.48690705 29.93359375 214.1796875 C36.74966848 220.63944129 41.4634206 227.81878694 45.25 236.375 C45.58 236.375 45.91 236.375 46.25 236.375 C48.5921571 217.32123545 44.3619705 200.13849304 33.25 184.375 C22.76730527 172.11093231 11.36079092 166.03690941 -4.8125 164.5 C-21.90457813 163.74287583 -37.00447 169.85951968 -49.375 181.5625 Z M153.25 181.375 C140.46574213 195.37439526 136.32552865 211.90824405 136.25 230.375 C136.66167634 233.22985942 136.66167634 233.22985942 137.25 235.375 C139.54050015 232.43301028 141.46403303 229.38629254 143.375 226.1875 C152.84482406 211.38228651 165.79271237 203.83915251 182.55859375 200.06640625 C200.81049253 196.64779664 217.54485013 199.0990905 233.25 209.375 C237.59202166 212.68833979 241.4395889 216.46750836 245.25 220.375 C246.01828125 221.14328125 246.7865625 221.9115625 247.578125 222.703125 C248.12984375 223.25484375 248.6815625 223.8065625 249.25 224.375 C250.45221969 209.88157369 244.87711101 196.96068099 236.1484375 185.65234375 C225.04280082 172.64344425 211.23470494 165.90248353 194.25 164.375 C178.001714 163.5811098 164.4042624 169.91977942 153.25 181.375 Z " fill="#EDEDED" transform="translate(230.75,104.625)"/>
<path d="M0 0 C3.02365335 -0.22489984 5.41731197 -0.30849043 7.890625 1.59765625 C11.23828125 5.39970351 11.23828125 5.39970351 11.23828125 8.32421875 C9.43423828 8.79988281 9.43423828 8.79988281 7.59375 9.28515625 C-7.54677132 13.3881968 -22.11763813 18.72743116 -36.76171875 24.32421875 C-43.98328127 27.07679845 -51.19393966 29.81298483 -58.5234375 32.265625 C-79.20000236 39.20432499 -99.31932182 47.42055639 -118.87915039 57.09008789 C-121.7222402 58.4785214 -123.5490982 59.32421875 -126.76171875 59.32421875 C-110.26857456 45.81081852 -92.60924051 35.24301267 -73.76171875 25.32421875 C-73.05192871 24.94668457 -72.34213867 24.56915039 -71.61083984 24.18017578 C-48.81167728 12.10268957 -25.64504905 3.01066347 0 0 Z " fill="#040404" transform="translate(236.76171875,116.67578125)"/>
<path d="M0 0 C3.99168342 0.99947998 7.78435199 2.34230626 11.625 3.8125 C12.6876709 4.20848389 13.7503418 4.60446777 14.84521484 5.01245117 C49.02424884 17.98750155 81.11971031 34.53312637 110 57 C109.01 57.495 109.01 57.495 108 58 C105.64355469 57.06298828 105.64355469 57.06298828 102.671875 55.5703125 C101.57431885 55.02689209 100.4767627 54.48347168 99.34594727 53.92358398 C98.76080353 53.63039276 98.17565979 53.33720154 97.57278442 53.03512573 C77.58871543 43.05697627 57.23719432 35.19690604 36.00024414 28.33569336 C27.54174453 25.5920664 19.26916027 22.61555631 11.05444336 19.20581055 C8.67646773 18.26705093 6.48123888 17.5546839 4 17 C2.53380533 16.41516954 1.07602503 15.80901414 -0.375 15.1875 C-6.75945265 12.57828507 -13.3528916 10.80065761 -20 9 C-14.78808842 -1.53862297 -11.51034092 -1.80779352 0 0 Z " fill="#050505" transform="translate(410,118)"/>
<path d="M0 0 C0 3.50238837 -0.40985248 3.81348582 -2.7109375 6.2578125 C-3.29085449 6.87881836 -3.87077148 7.49982422 -4.46826172 8.13964844 C-5.09748535 8.79481445 -5.72670898 9.44998047 -6.375 10.125 C-7.34010498 11.13868652 -7.34010498 11.13868652 -8.32470703 12.17285156 C-27.29526458 31.93404628 -60.92129273 57.78703687 -89.6875 59.125 C-93.33987647 57.3481682 -95.75217697 54.34469887 -98 51 C-98 50.34 -98 49.68 -98 49 C-96.82308594 48.62230469 -95.64617187 48.24460937 -94.43359375 47.85546875 C-77.19451154 42.16283439 -60.70251209 34.82068189 -45.28125 25.20141602 C-41.02906923 22.55974871 -36.68570986 20.25689623 -32.1875 18.0625 C-26.15649685 15.1181662 -20.24282914 12.00817197 -14.375 8.75 C-13.62887451 8.33758057 -12.88274902 7.92516113 -12.11401367 7.50024414 C-7.94301785 5.16904577 -3.93732275 2.70768568 0 0 Z " fill="#050505" transform="translate(521,433)"/>
<path d="M0 0 C0.83950195 0.48976318 1.67900391 0.97952637 2.54394531 1.48413086 C8.7428187 5.07680532 14.97239795 8.56803466 21.359375 11.81640625 C21.96736938 12.1259726 22.57536377 12.43553894 23.20178223 12.75448608 C25.67325581 14.00943566 28.14685486 15.25998477 30.62451172 16.50268555 C37.70972901 20.06377897 44.43825112 23.78730714 50.86279297 28.46166992 C63.44779089 37.52016569 80.77200888 45.29661528 96 48 C94.49421785 52.65423573 92.55318127 55.68369748 89 59 C83.1671453 58.77198172 78.11225203 56.74727707 72.75 54.5625 C71.88173584 54.21050537 71.01347168 53.85851074 70.11889648 53.49584961 C51.67735331 45.8428509 35.27440838 35.86135038 20 23 C19.16726562 22.30261719 18.33453125 21.60523438 17.4765625 20.88671875 C2.69434932 8.08304795 2.69434932 8.08304795 0 0 Z " fill="#050505" transform="translate(122,433)"/>
<path d="M0 0 C10.96314395 8.25619483 18.00857186 18.72662557 23.34375 31.21875 C23.88708984 32.4871875 23.88708984 32.4871875 24.44140625 33.78125 C28.24222758 44.81247098 28.16366247 60.20035705 24.34375 71.21875 C17.95143503 64.82643503 14.99525441 53.81913785 14.21875 45.03125 C12.97280595 31.0437008 6.71053361 17.50722598 -3.65234375 7.83984375 C-17.21856719 -3.13478145 -32.07356239 -7.96759357 -49.48828125 -6.20703125 C-54.24611047 -5.56756962 -58.95515561 -4.75161618 -63.65625 -3.78125 C-46.34540198 -18.06372272 -16.75259841 -11.2340954 0 0 Z " fill="#060606" transform="translate(464.65625,276.78125)"/>
<path d="M0 0 C1.42481689 0.00422974 1.42481689 0.00422974 2.87841797 0.00854492 C12.72028585 0.23120787 23.63496713 1.93444973 31.375 8.5 C30.1375 8.21125 28.9 7.9225 27.625 7.625 C25.87592368 7.24571512 24.1258339 6.87108713 22.375 6.5 C21.45847656 6.29761719 20.54195313 6.09523438 19.59765625 5.88671875 C4.85758926 2.978276 -9.43481975 5.28868192 -22.40234375 12.9609375 C-35.79611833 22.23536138 -45.28555044 35.45329434 -48.625 51.5 C-48.83739386 53.43158192 -49.04852018 55.36340923 -49.2355957 57.29760742 C-50.18000169 67.01459715 -53.16842099 74.31513148 -58.625 82.5 C-63.59332869 63.38032411 -60.55017152 45.43234261 -50.625 28.5 C-38.95205733 11.38746604 -20.99302727 -0.14060342 0 0 Z " fill="#060606" transform="translate(214.625,265.5)"/>
<path d="M0 0 C3.05256014 2.60804836 5.80669162 5.3988718 8.53125 8.34765625 C9.23765625 9.11207031 9.9440625 9.87648438 10.671875 10.6640625 C13.26262505 13.92584015 14.54159942 16.05225344 14.5078125 20.28125 C13.35949575 27.5194105 13.35949575 27.5194105 10.53125 30.34765625 C10.04205078 29.24357422 10.04205078 29.24357422 9.54296875 28.1171875 C9.10597656 27.14136719 8.66898437 26.16554688 8.21875 25.16015625 C7.78949219 24.19722656 7.36023438 23.23429687 6.91796875 22.2421875 C5.57864439 19.32257228 5.57864439 19.32257228 3.86328125 16.609375 C2.53125 14.34765625 2.53125 14.34765625 2.53125 12.34765625 C1.87125 12.34765625 1.21125 12.34765625 0.53125 12.34765625 C-0.066875 11.39890625 -0.665 10.45015625 -1.28125 9.47265625 C-8.57603294 -1.05236782 -20.71374996 -7.25749922 -32.85546875 -10.23828125 C-36.31810962 -10.78692091 -39.78521142 -11.01076877 -43.28125 -11.21484375 C-44.32055664 -11.27961914 -44.32055664 -11.27961914 -45.38085938 -11.34570312 C-47.07663686 -11.45095828 -48.77267052 -11.55207238 -50.46875 -11.65234375 C-50.46875 -11.98234375 -50.46875 -12.31234375 -50.46875 -12.65234375 C-32.50239028 -15.77692805 -14.3263635 -11.45199207 0 0 Z " fill="#FCFCFC" transform="translate(467.46875,315.65234375)"/>
<path d="M0 0 C0 0.33 0 0.66 0 1 C-1.43279297 1.05607422 -1.43279297 1.05607422 -2.89453125 1.11328125 C-15.09195189 1.73348908 -24.66944804 3.96897678 -35.56640625 9.79296875 C-38 11 -38 11 -40 11 C-40.2475 11.61875 -40.495 12.2375 -40.75 12.875 C-42.20628639 15.35068687 -43.37812506 15.95125002 -46 17 C-46 17.66 -46 18.32 -46 19 C-46.66 19 -47.32 19 -48 19 C-48 19.66 -48 20.32 -48 21 C-48.66 21 -49.32 21 -50 21 C-50.309375 21.61875 -50.61875 22.2375 -50.9375 22.875 C-51.625 24.25 -52.3125 25.625 -53 27 C-53.66 27 -54.32 27 -55 27 C-55.2475 27.78375 -55.495 28.5675 -55.75 29.375 C-57.33931493 33.98401329 -59.16207173 38.48547716 -61 43 C-61.66 43 -62.32 43 -63 43 C-65.48147398 30.90281433 -65.48147398 30.90281433 -62.94140625 25.92578125 C-61.41071739 23.81434323 -59.76801519 21.91661991 -58 20 C-57.443125 19.34128906 -56.88625 18.68257813 -56.3125 18.00390625 C-42.32364978 2.53778521 -20.14366747 -3.50324652 0 0 Z " fill="#FDFDFD" transform="translate(228,303)"/>
<path d="M0 0 C0.66 0.33 1.32 0.66 2 1 C1.5153125 1.42667969 1.030625 1.85335938 0.53125 2.29296875 C-12.98937163 14.90354854 -19.12983898 30.9127792 -19.90014648 49.06542969 C-19.97750498 51.78127739 -20.01407882 54.49090989 -19.93896484 57.20703125 C-19.89244066 59.13756749 -19.93968267 61.06984547 -20 63 C-20.99 63.99 -20.99 63.99 -22 65 C-26.43365903 51.37979946 -24.67202333 36.29968779 -18.796875 23.34765625 C-17.61686311 21.16314057 -16.34236488 19.08766563 -15 17 C-14.62101562 16.31550781 -14.24203125 15.63101562 -13.8515625 14.92578125 C-10.76788135 9.49312151 -6.80305502 5.92302507 -2 2 C-1.34 1.34 -0.68 0.68 0 0 Z " fill="#FCFCFC" transform="translate(388,280)"/>
<path d="M0 0 C-1.03898437 0.47308594 -2.07796875 0.94617188 -3.1484375 1.43359375 C-11.97269925 5.57029749 -19.20443159 9.85293667 -26 17 C-26.56976563 17.57363281 -27.13953125 18.14726562 -27.7265625 18.73828125 C-33.84188194 25.30832957 -37.69472797 33.73681992 -41 42 C-43.10680512 38.83979233 -43.32986882 37.72179046 -42.65625 34.078125 C-38.92122627 22.25054987 -28.24670212 11.53726288 -18 5 C-5.21191423 -1.61749062 -5.21191423 -1.61749062 0 0 Z " fill="#090909" transform="translate(411,306)"/>
<path d="M0 0 C16.32331371 2.0945845 29.07209858 11.44858823 39.01171875 24.1953125 C46.6420912 34.95878483 46.6420912 34.95878483 45.8125 41.125 C45.544375 42.07375 45.27625 43.0225 45 44 C42.77041764 41.77041764 41.7513113 39.47632708 40.43725586 36.64208984 C36.67384447 28.57855588 32.50208589 22.19359276 26 16 C25.43796875 15.43023437 24.8759375 14.86046875 24.296875 14.2734375 C17.5770619 7.91244937 8.4630774 4.46216803 0 1 C0 0.67 0 0.34 0 0 Z " fill="#0C0C0C" transform="translate(231,304)"/>
<path d="M0 0 C9.48226989 3.86314699 16.55673702 15.4179521 20.89453125 24.1875 C24.23423483 32.68427236 25.45562941 40.04439353 25.3125 49.1875 C25.31733398 50.74887695 25.31733398 50.74887695 25.32226562 52.34179688 C25.28315706 57.94143264 24.87662853 62.71403836 23 68 C22.67 68 22.34 68 22 68 C22.02320313 66.71867187 22.04640625 65.43734375 22.0703125 64.1171875 C22.33772669 43.38555018 20.27237876 22.73645202 5.7734375 6.5078125 C4.3762313 5.12048054 2.95546101 3.75614358 1.50390625 2.42578125 C1.00761719 1.95527344 0.51132813 1.48476563 0 1 C0 0.67 0 0.34 0 0 Z " fill="#FCFCFC" transform="translate(255,280)"/>
<path d="M0 0 C-1.03898437 0.47308594 -2.07796875 0.94617188 -3.1484375 1.43359375 C-11.23193137 5.22846091 -17.77727798 8.88837963 -24.08203125 15.3125 C-26 17 -26 17 -29 17 C-24.57666529 7.87687216 -16.05084163 3.53845505 -7 0 C-3.86650268 -1.04449911 -3.01031744 -0.93423645 0 0 Z " fill="#131313" transform="translate(411,306)"/>
<path d="M0 0 C0 3.47695003 -0.4767907 3.94171058 -2.6328125 6.51171875 C-3.19226563 7.18783203 -3.75171875 7.86394531 -4.328125 8.56054688 C-4.92109375 9.26244141 -5.5140625 9.96433594 -6.125 10.6875 C-7.27497296 12.06512598 -8.42341474 13.44403156 -9.5703125 14.82421875 C-10.1365332 15.50532715 -10.70275391 16.18643555 -11.28613281 16.88818359 C-13.95973355 20.18257766 -16.4886291 23.58107714 -19 27 C-19.66 26.34 -20.32 25.68 -21 25 C-19.625 22.5 -19.625 22.5 -18 20 C-17.34 20 -16.68 20 -16 20 C-16 19.34 -16 18.68 -16 18 C-15.34 18 -14.68 18 -14 18 C-13.814375 17.34 -13.62875 16.68 -13.4375 16 C-11.67801112 12.32802321 -9.30016355 9.75048968 -6.55859375 6.76953125 C-4.92943284 5.07185494 -4.92943284 5.07185494 -4 3 C-3.34 3 -2.68 3 -2 3 C-2 2.34 -2 1.68 -2 1 C-1.34 0.67 -0.68 0.34 0 0 Z " fill="#FBFBFB" transform="translate(210,492)"/>
<path d="M0 0 C9.72496049 1.24789316 19.26398125 4.62549606 26 12 C21.45323743 12 20.14816665 11.11942919 16.375 8.75 C11.08099822 5.54368197 5.82272584 3.07402403 0 1 C0 0.67 0 0.34 0 0 Z " fill="#1A1A1A" transform="translate(231,304)"/>
<path d="M0 0 C3.70503641 0.60334309 5.85968148 2.22474237 8.75 4.5625 C9.94882812 5.52349609 9.94882812 5.52349609 11.171875 6.50390625 C12.07679688 7.24447266 12.07679688 7.24447266 13 8 C12.01 8.495 12.01 8.495 11 9 C8.1796875 7.78515625 8.1796875 7.78515625 4.875 6.0625 C3.77929688 5.49660156 2.68359375 4.93070313 1.5546875 4.34765625 C0.71164062 3.90292969 -0.13140625 3.45820313 -1 3 C-0.67 2.01 -0.34 1.02 0 0 Z " fill="#1C1C1C" transform="translate(507,167)"/>
<path d="M0 0 C0.33 0.66 0.66 1.32 1 2 C-1.75 3.625 -1.75 3.625 -5 5 C-7.375 4.1875 -7.375 4.1875 -9 3 C-6.38997624 -0.48003168 -4.1689578 -0.27793052 0 0 Z " fill="#E6E6E6" transform="translate(189,128)"/>
<path d="M0 0 C-0.99 1.485 -0.99 1.485 -2 3 C-4.35171131 2.40138258 -6.6859378 1.73075648 -9 1 C-9.33 0.34 -9.66 -0.32 -10 -1 C-6.06329512 -2.31223496 -3.87511856 -1.24296256 0 0 Z " fill="#E0E0E0" transform="translate(474,155)"/>
<path d="M0 0 C2.64 0 5.28 0 8 0 C8.66 1.65 9.32 3.3 10 5 C6.7 4.01 3.4 3.02 0 2 C0 1.34 0 0.68 0 0 Z " fill="#DBDBDB" transform="translate(419,120)"/>
<path d="M0 0 C1.65 0 3.3 0 5 0 C3.56642904 2.86714191 1.85670843 3.60338699 -1 5 C-4.3125 5.1875 -4.3125 5.1875 -7 5 C-3.375 2 -3.375 2 0 2 C0 1.34 0 0.68 0 0 Z " fill="#B0B0B0" transform="translate(411,304)"/>
<path d="M0 0 C7.92 0 15.84 0 24 0 C24 0.33 24 0.66 24 1 C16.08 1 8.16 1 0 1 C0 0.67 0 0.34 0 0 Z " fill="#FEFEFE" transform="translate(308,124)"/>
<path d="M0 0 C0.99 0.495 0.99 0.495 2 1 C1.01 1.495 1.01 1.495 0 2 C0 1.34 0 0.68 0 0 Z M-5 4 C-3.68 4.33 -2.36 4.66 -1 5 C-3.62198774 7.15377564 -5.64404172 8.40072174 -9 9 C-7.68 7.35 -6.36 5.7 -5 4 Z " fill="#F9F9F9" transform="translate(132,176)"/>
<path d="M0 0 C3.465 1.98 3.465 1.98 7 4 C6.34 5.32 5.68 6.64 5 8 C0 2.25 0 2.25 0 0 Z " fill="#1A1A1A" transform="translate(122,433)"/>
<path d="M0 0 C0.66 0.33 1.32 0.66 2 1 C2 1.66 2 2.32 2 3 C-3.2734375 6.22265625 -3.2734375 6.22265625 -5 7 C-5.66 6.67 -6.32 6.34 -7 6 C-4.69 4.02 -2.38 2.04 0 0 Z " fill="#222222" transform="translate(117,170)"/>
<path d="M0 0 C5.61 0 11.22 0 17 0 C17 0.33 17 0.66 17 1 C11.39 1 5.78 1 0 1 C0 0.67 0 0.34 0 0 Z " fill="#FEFEFE" transform="translate(330,492)"/>
<path d="M0 0 C5.61 0 11.22 0 17 0 C17 0.33 17 0.66 17 1 C11.39 1 5.78 1 0 1 C0 0.67 0 0.34 0 0 Z " fill="#FEFEFE" transform="translate(301,492)"/>
<path d="M0 0 C0.33 0 0.66 0 1 0 C1 5.28 1 10.56 1 16 C0.67 16 0.34 16 0 16 C0 10.72 0 5.44 0 0 Z " fill="#FFFFFF" transform="translate(622,425)"/>
<path d="M0 0 C0.33 0 0.66 0 1 0 C1 5.28 1 10.56 1 16 C0.67 16 0.34 16 0 16 C0 10.72 0 5.44 0 0 Z " fill="#FEFEFE" transform="translate(17,425)"/>
<path d="M0 0 C1.9453125 0.2421875 1.9453125 0.2421875 4.125 0.875 C4.84945313 1.07867187 5.57390625 1.28234375 6.3203125 1.4921875 C6.87460937 1.65976563 7.42890625 1.82734375 8 2 C8 2.33 8 2.66 8 3 C4.7 2.67 1.4 2.34 -2 2 C-1.34 1.34 -0.68 0.68 0 0 Z " fill="#868686" transform="translate(402,131)"/>
<path d="M0 0 C-5.75 3 -5.75 3 -8 3 C-8 2.34 -8 1.68 -8 1 C-3.375 -1.125 -3.375 -1.125 0 0 Z " fill="#7D7D7D" transform="translate(456,469)"/>
<path d="M0 0 C0 0.33 0 0.66 0 1 C-4.455 1.495 -4.455 1.495 -9 2 C-4 -1.33333333 -4 -1.33333333 0 0 Z " fill="#8C8B8C" transform="translate(225,134)"/>
<path d="M0 0 C3.63 0 7.26 0 11 0 C11 0.33 11 0.66 11 1 C7.37 1 3.74 1 0 1 C0 0.67 0 0.34 0 0 Z " fill="#FEFEFE" transform="translate(163,536)"/>
<path d="M0 0 C3.63 0 7.26 0 11 0 C11 0.33 11 0.66 11 1 C7.37 1 3.74 1 0 1 C0 0.67 0 0.34 0 0 Z " fill="#FFFFFF" transform="translate(341,125)"/>
<path d="M0 0 C3.63 0 7.26 0 11 0 C11 0.33 11 0.66 11 1 C7.37 1 3.74 1 0 1 C0 0.67 0 0.34 0 0 Z " fill="#FEFEFE" transform="translate(289,125)"/>
<path d="M0 0 C0.763125 0.20625 1.52625 0.4125 2.3125 0.625 C2.3125 0.955 2.3125 1.285 2.3125 1.625 C-0.3275 1.625 -2.9675 1.625 -5.6875 1.625 C-2.6875 -0.375 -2.6875 -0.375 0 0 Z " fill="#7B7B7B" transform="translate(240.6875,114.375)"/>
<path d="M0 0 C0.33 0 0.66 0 1 0 C1 2.97 1 5.94 1 9 C0.67 9 0.34 9 0 9 C0 6.03 0 3.06 0 0 Z " fill="#FEFEFE" transform="translate(621,411)"/>
<path d="M0 0 C0.33 0 0.66 0 1 0 C1 2.97 1 5.94 1 9 C0.67 9 0.34 9 0 9 C0 6.03 0 3.06 0 0 Z " fill="#FEFEFE" transform="translate(18,411)"/>
<path d="M0 0 C2.97 0 5.94 0 9 0 C9 0.33 9 0.66 9 1 C6.03 1 3.06 1 0 1 C0 0.67 0 0.34 0 0 Z " fill="#FFFFFF" transform="translate(407,103)"/>
<path d="M0 0 C2.97 0 5.94 0 9 0 C9 0.33 9 0.66 9 1 C6.03 1 3.06 1 0 1 C0 0.67 0 0.34 0 0 Z " fill="#FFFFFF" transform="translate(224,103)"/>
<path d="M0 0 C2.64 0 5.28 0 8 0 C8 0.33 8 0.66 8 1 C5.36 1 2.72 1 0 1 C0 0.67 0 0.34 0 0 Z " fill="#FFFFFF" transform="translate(351,491)"/>
<path d="M0 0 C2.64 0 5.28 0 8 0 C8 0.33 8 0.66 8 1 C5.36 1 2.72 1 0 1 C0 0.67 0 0.34 0 0 Z " fill="#FEFEFE" transform="translate(289,491)"/>
<path d="M0 0 C0.33 0 0.66 0 1 0 C1 2.31 1 4.62 1 7 C-1 4 -1 4 -0.625 1.8125 C-0.41875 1.214375 -0.2125 0.61625 0 0 Z " fill="#3C3C3C" transform="translate(478,320)"/>
<path d="M0 0 C2.64 0 5.28 0 8 0 C8 0.33 8 0.66 8 1 C5.36 1 2.72 1 0 1 C0 0.67 0 0.34 0 0 Z " fill="#FFFFFF" transform="translate(356,126)"/>
<path d="M0 0 C2.64 0 5.28 0 8 0 C8 0.33 8 0.66 8 1 C5.36 1 2.72 1 0 1 C0 0.67 0 0.34 0 0 Z " fill="#FFFFFF" transform="translate(277,126)"/>
<path d="M0 0 C2.31 0 4.62 0 7 0 C7 0.33 7 0.66 7 1 C4.69 1 2.38 1 0 1 C0 0.67 0 0.34 0 0 Z " fill="#FFFFFF" transform="translate(463,536)"/>
<path d="M0 0 C2.31 0 4.62 0 7 0 C7 0.33 7 0.66 7 1 C4.69 1 2.38 1 0 1 C0 0.67 0 0.34 0 0 Z " fill="#FFFFFF" transform="translate(475,535)"/>
<path d="M0 0 C2.475 0.495 2.475 0.495 5 1 C4.67 1.66 4.34 2.32 4 3 C2.68 2.01 1.36 1.02 0 0 Z " fill="#929292" transform="translate(181,465)"/>
<path d="M0 0 C0.33 0 0.66 0 1 0 C1 2.31 1 4.62 1 7 C0.67 7 0.34 7 0 7 C0 4.69 0 2.38 0 0 Z " fill="#FEFEFE" transform="translate(620,400)"/>
<path d="M0 0 C0.33 0 0.66 0 1 0 C1 2.31 1 4.62 1 7 C0.67 7 0.34 7 0 7 C0 4.69 0 2.38 0 0 Z " fill="#FEFEFE" transform="translate(19,400)"/>
<path d="M0 0 C0.33 0 0.66 0 1 0 C1 2.31 1 4.62 1 7 C0.67 7 0.34 7 0 7 C0 4.69 0 2.38 0 0 Z " fill="#FEFEFE" transform="translate(619,390)"/>
<path d="M0 0 C0.33 0 0.66 0 1 0 C1 2.31 1 4.62 1 7 C0.67 7 0.34 7 0 7 C0 4.69 0 2.38 0 0 Z " fill="#FEFEFE" transform="translate(20,390)"/>
<path d="M0 0 C2.31 0 4.62 0 7 0 C7 0.33 7 0.66 7 1 C4.69 1 2.38 1 0 1 C0 0.67 0 0.34 0 0 Z " fill="#FFFFFF" transform="translate(258,128)"/>
<path d="M0 0 C1.98 0 3.96 0 6 0 C6 0.33 6 0.66 6 1 C4.02 1 2.04 1 0 1 C0 0.67 0 0.34 0 0 Z " fill="#FFFFFF" transform="translate(153,535)"/>
<path d="M0 0 C1.98 0 3.96 0 6 0 C6 0.33 6 0.66 6 1 C4.02 1 2.04 1 0 1 C0 0.67 0 0.34 0 0 Z " fill="#FFFFFF" transform="translate(485,534)"/>
<path d="M0 0 C1.98 0 3.96 0 6 0 C6 0.33 6 0.66 6 1 C4.02 1 2.04 1 0 1 C0 0.67 0 0.34 0 0 Z " fill="#FFFFFF" transform="translate(362,490)"/>
<path d="M0 0 C1.98 0 3.96 0 6 0 C6 0.33 6 0.66 6 1 C4.02 1 2.04 1 0 1 C0 0.67 0 0.34 0 0 Z " fill="#FEFEFE" transform="translate(280,490)"/>
<path d="M0 0 C0.33 0 0.66 0 1 0 C1 1.98 1 3.96 1 6 C0.67 6 0.34 6 0 6 C0 4.02 0 2.04 0 0 Z " fill="#FEFEFE" transform="translate(618,382)"/>
<path d="M0 0 C0.33 0 0.66 0 1 0 C1 1.98 1 3.96 1 6 C0.67 6 0.34 6 0 6 C0 4.02 0 2.04 0 0 Z " fill="#FEFEFE" transform="translate(21,382)"/>
<path d="M0 0 C0.33 0 0.66 0 1 0 C1 1.98 1 3.96 1 6 C0.67 6 0.34 6 0 6 C0 4.02 0 2.04 0 0 Z " fill="#FDFDFD" transform="translate(275,319)"/>
<path d="M0 0 C2.475 0.495 2.475 0.495 5 1 C3.68 1.33 2.36 1.66 1 2 C0.67 1.34 0.34 0.68 0 0 Z " fill="#A9A9A9" transform="translate(225,132)"/>
<path d="M0 0 C1.98 0 3.96 0 6 0 C6 0.33 6 0.66 6 1 C4.02 1 2.04 1 0 1 C0 0.67 0 0.34 0 0 Z " fill="#FFFFFF" transform="translate(251,129)"/>
<path d="M0 0 C1.98 0 3.96 0 6 0 C6 0.33 6 0.66 6 1 C4.02 1 2.04 1 0 1 C0 0.67 0 0.34 0 0 Z " fill="#FFFFFF" transform="translate(367,127)"/>
<path d="M0 0 C1.98 0 3.96 0 6 0 C6 0.33 6 0.66 6 1 C4.02 1 2.04 1 0 1 C0 0.67 0 0.34 0 0 Z " fill="#FEFEFE" transform="translate(268,127)"/>
<path d="M0 0 C1.65 0 3.3 0 5 0 C5 0.33 5 0.66 5 1 C3.35 1 1.7 1 0 1 C0 0.67 0 0.34 0 0 Z " fill="#FFFFFF" transform="translate(146,534)"/>
<path d="M0 0 C1.65 0 3.3 0 5 0 C5 0.33 5 0.66 5 1 C3.35 1 1.7 1 0 1 C0 0.67 0 0.34 0 0 Z " fill="#FEFEFE" transform="translate(272,489)"/>
<path d="M0 0 C1.65 0 3.3 0 5 0 C5 0.33 5 0.66 5 1 C3.35 1 1.7 1 0 1 C0 0.67 0 0.34 0 0 Z " fill="#FFFFFF" transform="translate(377,488)"/>
<path d="M0 0 C1.65 0 3.3 0 5 0 C5 0.33 5 0.66 5 1 C3.35 1 1.7 1 0 1 C0 0.67 0 0.34 0 0 Z " fill="#FEFEFE" transform="translate(265,488)"/>
<path d="M0 0 C1.65 0 3.3 0 5 0 C5 0.33 5 0.66 5 1 C3.35 1 1.7 1 0 1 C0 0.67 0 0.34 0 0 Z " fill="#FEFEFE" transform="translate(259,487)"/>
<path d="M0 0 C1.32 0.33 2.64 0.66 4 1 C3.01 1.495 3.01 1.495 2 2 C1.34 1.34 0.68 0.68 0 0 Z " fill="#979797" transform="translate(433,475)"/>
<path d="M0 0 C1.32 0.33 2.64 0.66 4 1 C3.01 1.495 3.01 1.495 2 2 C1.34 1.34 0.68 0.68 0 0 Z " fill="#989898" transform="translate(436,474)"/>
<path d="M0 0 C1.32 0.33 2.64 0.66 4 1 C3.01 1.495 3.01 1.495 2 2 C1.34 1.34 0.68 0.68 0 0 Z " fill="#999999" transform="translate(439,473)"/>
<path d="M0 0 C0.33 0 0.66 0 1 0 C1 1.65 1 3.3 1 5 C0.67 5 0.34 5 0 5 C0 3.35 0 1.7 0 0 Z " fill="#FFFFFF" transform="translate(617,375)"/>
<path d="M0 0 C0.33 0 0.66 0 1 0 C1 1.65 1 3.3 1 5 C0.67 5 0.34 5 0 5 C0 3.35 0 1.7 0 0 Z " fill="#FEFEFE" transform="translate(22,375)"/>
<path d="M0 0 C0.33 0 0.66 0 1 0 C1 1.65 1 3.3 1 5 C0.67 5 0.34 5 0 5 C0 3.35 0 1.7 0 0 Z " fill="#FFFFFF" transform="translate(616,368)"/>
<path d="M0 0 C0.33 0 0.66 0 1 0 C1 1.65 1 3.3 1 5 C0.67 5 0.34 5 0 5 C0 3.35 0 1.7 0 0 Z " fill="#FEFEFE" transform="translate(23,368)"/>
<path d="M0 0 C0.33 0 0.66 0 1 0 C1 1.65 1 3.3 1 5 C0.67 5 0.34 5 0 5 C0 3.35 0 1.7 0 0 Z " fill="#FEFEFE" transform="translate(369,319)"/>
<path d="M0 0 C1.65 0 3.3 0 5 0 C5 0.33 5 0.66 5 1 C3.35 1 1.7 1 0 1 C0 0.67 0 0.34 0 0 Z " fill="#9B9B9B" transform="translate(412,302)"/>
<path d="M0 0 C1.65 0 3.3 0 5 0 C5 0.33 5 0.66 5 1 C3.35 1 1.7 1 0 1 C0 0.67 0 0.34 0 0 Z " fill="#9A9A9A" transform="translate(228,302)"/>
<path d="M0 0 C1.65 0 3.3 0 5 0 C5 0.33 5 0.66 5 1 C3.35 1 1.7 1 0 1 C0 0.67 0 0.34 0 0 Z " fill="#FEFEFE" transform="translate(435,301)"/>
<path d="M0 0 C1.65 0 3.3 0 5 0 C5 0.33 5 0.66 5 1 C3.35 1 1.7 1 0 1 C0 0.67 0 0.34 0 0 Z " fill="#FAFAFA" transform="translate(418,301)"/>
<path d="M0 0 C1.65 0 3.3 0 5 0 C5 0.33 5 0.66 5 1 C3.35 1 1.7 1 0 1 C0 0.67 0 0.34 0 0 Z " fill="#F8F8F8" transform="translate(222,301)"/>
<path d="M0 0 C1.65 0 3.3 0 5 0 C5 0.33 5 0.66 5 1 C3.35 1 1.7 1 0 1 C0 0.67 0 0.34 0 0 Z " fill="#FEFEFE" transform="translate(205,301)"/>
<path d="M0 0 C1.65 0 3.3 0 5 0 C5 0.33 5 0.66 5 1 C3.35 1 1.7 1 0 1 C0 0.67 0 0.34 0 0 Z " fill="#000000" transform="translate(428,271)"/>
<path d="M0 0 C1.65 0 3.3 0 5 0 C5 0.33 5 0.66 5 1 C3.35 1 1.7 1 0 1 C0 0.67 0 0.34 0 0 Z " fill="#020202" transform="translate(412,271)"/>
<path d="M0 0 C1.65 0 3.3 0 5 0 C5 0.33 5 0.66 5 1 C3.35 1 1.7 1 0 1 C0 0.67 0 0.34 0 0 Z " fill="#FEFEFE" transform="translate(237,131)"/>
<path d="M0 0 C1.65 0 3.3 0 5 0 C5 0.33 5 0.66 5 1 C3.35 1 1.7 1 0 1 C0 0.67 0 0.34 0 0 Z " fill="#FEFEFE" transform="translate(244,130)"/>
<path d="M0 0 C1.65 0 3.3 0 5 0 C5 0.33 5 0.66 5 1 C3.35 1 1.7 1 0 1 C0 0.67 0 0.34 0 0 Z " fill="#FFFFFF" transform="translate(382,129)"/>
<path d="M0 0 C1.65 0 3.3 0 5 0 C5 0.33 5 0.66 5 1 C3.35 1 1.7 1 0 1 C0 0.67 0 0.34 0 0 Z " fill="#FFFFFF" transform="translate(375,128)"/>
<path d="M0 0 C1.65 0 3.3 0 5 0 C5 0.33 5 0.66 5 1 C3.35 1 1.7 1 0 1 C0 0.67 0 0.34 0 0 Z " fill="#FFFFFF" transform="translate(426,105)"/>
<path d="M0 0 C1.65 0 3.3 0 5 0 C5 0.33 5 0.66 5 1 C3.35 1 1.7 1 0 1 C0 0.67 0 0.34 0 0 Z " fill="#FFFFFF" transform="translate(209,105)"/>
<path d="M0 0 C1.65 0 3.3 0 5 0 C5 0.33 5 0.66 5 1 C3.35 1 1.7 1 0 1 C0 0.67 0 0.34 0 0 Z " fill="#FFFFFF" transform="translate(419,104)"/>
<path d="M0 0 C1.65 0 3.3 0 5 0 C5 0.33 5 0.66 5 1 C3.35 1 1.7 1 0 1 C0 0.67 0 0.34 0 0 Z " fill="#FFFFFF" transform="translate(216,104)"/>
<path d="M0 0 C4 1 4 1 4 1 Z " fill="#FEFEFE" transform="translate(493,533)"/>
<path d="M0 0 C4 1 4 1 4 1 Z " fill="#FFFFFF" transform="translate(140,533)"/>
<path d="M0 0 C4 1 4 1 4 1 Z " fill="#FEFEFE" transform="translate(499,532)"/>
<path d="M0 0 C4 1 4 1 4 1 Z " fill="#FEFEFE" transform="translate(371,489)"/>
<path d="M0 0 C4 1 4 1 4 1 Z " fill="#FFFFFF" transform="translate(384,487)"/>
<path d="M0 0 C4 1 4 1 4 1 Z " fill="#FFFFFF" transform="translate(389,486)"/>
<path d="M0 0 C4 1 4 1 4 1 Z " fill="#FEFEFE" transform="translate(254,486)"/>
<path d="M0 0 C4 1 4 1 4 1 Z " fill="#FFFFFF" transform="translate(394,485)"/>
<path d="M0 0 C4 1 4 1 4 1 Z " fill="#FEFEFE" transform="translate(249,485)"/>
<path d="M0 0 C4 1 4 1 4 1 Z " fill="#FEFEFE" transform="translate(244,484)"/>
<path d="M0 0 C0.99 0.33 1.98 0.66 3 1 C2.01 1 1.02 1 0 1 C0 0.67 0 0.34 0 0 Z " fill="#808080" transform="translate(442,472)"/>
<path d="M0 0 C0.99 0.33 1.98 0.66 3 1 C2.01 1 1.02 1 0 1 C0 0.67 0 0.34 0 0 Z " fill="#818181" transform="translate(445,471)"/>
<path d="M0 0 C1 4 1 4 1 4 Z " fill="#FFFFFF" transform="translate(615,362)"/>
<path d="M0 0 C1 4 1 4 1 4 Z " fill="#FFFFFF" transform="translate(24,362)"/>
<path d="M0 0 C1 4 1 4 1 4 Z " fill="#FFFFFF" transform="translate(614,356)"/>
<path d="M0 0 C1 4 1 4 1 4 Z " fill="#FFFFFF" transform="translate(25,356)"/>
<path d="M0 0 C1 4 1 4 1 4 Z " fill="#FFFFFF" transform="translate(613,350)"/>
<path d="M0 0 C1 4 1 4 1 4 Z " fill="#FFFFFF" transform="translate(26,350)"/>
<path d="M0 0 C1 4 1 4 1 4 Z " fill="#FFFFFF" transform="translate(611,339)"/>
<path d="M0 0 C1 4 1 4 1 4 Z " fill="#FFFFFF" transform="translate(28,339)"/>
<path d="M0 0 C1 4 1 4 1 4 Z " fill="#FFFFFF" transform="translate(610,334)"/>
<path d="M0 0 C1 4 1 4 1 4 Z " fill="#FFFFFF" transform="translate(29,334)"/>
<path d="M0 0 C1 4 1 4 1 4 Z " fill="#020202" transform="translate(166,318)"/>
<path d="M0 0 C4 1 4 1 4 1 Z " fill="#010101" transform="translate(228,271)"/>
<path d="M0 0 C4 1 4 1 4 1 Z " fill="#000000" transform="translate(212,271)"/>
<path d="M0 0 C4 1 4 1 4 1 Z " fill="#F9F9F9" transform="translate(232,132)"/>
<path d="M0 0 C4 1 4 1 4 1 Z " fill="#FEFEFE" transform="translate(394,131)"/>
<path d="M0 0 C4 1 4 1 4 1 Z " fill="#FEFEFE" transform="translate(389,130)"/>
<path d="M0 0 C4 1 4 1 4 1 Z " fill="#FFFFFF" transform="translate(199,107)"/>
<path d="M0 0 C4 1 4 1 4 1 Z " fill="#FFFFFF" transform="translate(432,106)"/>
<path d="M0 0 C4 1 4 1 4 1 Z " fill="#FFFFFF" transform="translate(204,106)"/>
<path d="M0 0 C3 1 3 1 3 1 Z " fill="#FFFFFF" transform="translate(135,532)"/>
<path d="M0 0 C3 1 3 1 3 1 Z " fill="#FEFEFE" transform="translate(504,531)"/>
<path d="M0 0 C3 1 3 1 3 1 Z " fill="#FFFFFF" transform="translate(130,531)"/>
<path d="M0 0 C3 1 3 1 3 1 Z " fill="#FEFEFE" transform="translate(509,530)"/>
<path d="M0 0 C3 1 3 1 3 1 Z " fill="#FFFFFF" transform="translate(126,530)"/>
<path d="M0 0 C3 1 3 1 3 1 Z " fill="#FFFFFF" transform="translate(513,529)"/>
<path d="M0 0 C3 1 3 1 3 1 Z " fill="#FFFFFF" transform="translate(122,529)"/>
<path d="M0 0 C3 1 3 1 3 1 Z " fill="#FFFFFF" transform="translate(517,528)"/>
<path d="M0 0 C3 1 3 1 3 1 Z " fill="#FFFFFF" transform="translate(115,527)"/>
<path d="M0 0 C3 1 3 1 3 1 Z " fill="#FEFEFE" transform="translate(399,484)"/>
<path d="M0 0 C3 1 3 1 3 1 Z " fill="#FEFEFE" transform="translate(404,483)"/>
<path d="M0 0 C3 1 3 1 3 1 Z " fill="#FEFEFE" transform="translate(240,483)"/>
<path d="M0 0 C3 1 3 1 3 1 Z " fill="#FEFEFE" transform="translate(408,482)"/>
<path d="M0 0 C3 1 3 1 3 1 Z " fill="#FEFEFE" transform="translate(236,482)"/>
<path d="M0 0 C3 1 3 1 3 1 Z " fill="#FEFEFE" transform="translate(412,481)"/>
<path d="M0 0 C3 1 3 1 3 1 Z " fill="#FEFEFE" transform="translate(231,481)"/>
<path d="M0 0 C3 1 3 1 3 1 Z " fill="#000000" transform="translate(429,478)"/>
<path d="M0 0 C3 1 3 1 3 1 Z " fill="#FFFFFF" transform="translate(423,478)"/>
<path d="M0 0 C3 1 3 1 3 1 Z " fill="#FFFFFF" transform="translate(220,478)"/>
<path d="M0 0 C3 1 3 1 3 1 Z " fill="#FFFFFF" transform="translate(213,476)"/>
<path d="M0 0 C0.99 0.495 0.99 0.495 2 1 C1.01 1.495 1.01 1.495 0 2 C0 1.34 0 0.68 0 0 Z " fill="#A8A8A8" transform="translate(189,468)"/>
<path d="M0 0 C0.99 0.495 0.99 0.495 2 1 C1.01 1.495 1.01 1.495 0 2 C0 1.34 0 0.68 0 0 Z " fill="#A7A7A7" transform="translate(187,467)"/>
<path d="" fill="#FFFFFF" transform="translate(0,0)"/>
<path d="" fill="#FFFFFF" transform="translate(0,0)"/>
<path d="" fill="#FFFFFF" transform="translate(0,0)"/>
<path d="" fill="#FFFFFF" transform="translate(0,0)"/>
<path d="" fill="#FEFDFE" transform="translate(0,0)"/>
<path d="" fill="#FFFFFF" transform="translate(0,0)"/>
<path d="" fill="#FFFFFF" transform="translate(0,0)"/>
<path d="" fill="#FFFFFF" transform="translate(0,0)"/>
<path d="" fill="#FFFFFF" transform="translate(0,0)"/>
<path d="" fill="#FFFFFF" transform="translate(0,0)"/>
<path d="" fill="#FFFFFF" transform="translate(0,0)"/>
<path d="" fill="#050505" transform="translate(0,0)"/>
<path d="" fill="#FAFAFA" transform="translate(0,0)"/>
<path d="" fill="#FEFEFE" transform="translate(0,0)"/>
<path d="" fill="#FFFFFF" transform="translate(0,0)"/>
<path d="" fill="#FFFFFF" transform="translate(0,0)"/>
<path d="" fill="#020202" transform="translate(0,0)"/>
<path d="" fill="#FFFFFF" transform="translate(0,0)"/>
<path d="" fill="#FFFFFF" transform="translate(0,0)"/>
<path d="" fill="#FFFFFF" transform="translate(0,0)"/>
<path d="" fill="#FFFFFF" transform="translate(0,0)"/>
<path d="M0 0 C3 1 3 1 3 1 Z " fill="#070707" transform="translate(404,304)"/>
<path d="M0 0 C3 1 3 1 3 1 Z " fill="#FEFEFE" transform="translate(445,303)"/>
<path d="M0 0 C3 1 3 1 3 1 Z " fill="#5B5B5B" transform="translate(408,303)"/>
<path d="M0 0 C3 1 3 1 3 1 Z " fill="#2D2D2D" transform="translate(234,303)"/>
<path d="M0 0 C3 1 3 1 3 1 Z " fill="#FFFFFF" transform="translate(197,303)"/>
<path d="M0 0 C3 1 3 1 3 1 Z " fill="#FEFEFE" transform="translate(441,302)"/>
<path d="M0 0 C3 1 3 1 3 1 Z " fill="#FFFFFF" transform="translate(201,302)"/>
<path d="" fill="#FFFFFF" transform="translate(0,0)"/>
<path d="" fill="#FFFFFF" transform="translate(0,0)"/>
<path d="" fill="#FFFFFF" transform="translate(0,0)"/>
<path d="" fill="#FFFFFF" transform="translate(0,0)"/>
<path d="" fill="#FFFFFF" transform="translate(0,0)"/>
<path d="" fill="#FFFFFF" transform="translate(0,0)"/>
<path d="" fill="#FEFEFE" transform="translate(0,0)"/>
<path d="" fill="#FFFFFF" transform="translate(0,0)"/>
<path d="" fill="#FEFEFE" transform="translate(0,0)"/>
<path d="" fill="#FFFFFF" transform="translate(0,0)"/>
<path d="M0 0 C3 1 3 1 3 1 Z " fill="#000000" transform="translate(438,273)"/>
<path d="M0 0 C3 1 3 1 3 1 Z " fill="#141414" transform="translate(404,273)"/>
<path d="M0 0 C3 1 3 1 3 1 Z " fill="#000000" transform="translate(434,272)"/>
<path d="M0 0 C3 1 3 1 3 1 Z " fill="#000000" transform="translate(408,272)"/>
<path d="M0 0 C3 1 3 1 3 1 Z " fill="#000000" transform="translate(234,272)"/>
<path d="M0 0 C3 1 3 1 3 1 Z " fill="#000000" transform="translate(207,272)"/>
<path d="" fill="#FFFFFF" transform="translate(0,0)"/>
<path d="" fill="#FFFFFF" transform="translate(0,0)"/>
<path d="" fill="#FFFFFF" transform="translate(0,0)"/>
<path d="" fill="#FFFFFF" transform="translate(0,0)"/>
<path d="M0 0 C3 1 3 1 3 1 Z " fill="#A5A5A5" transform="translate(213,136)"/>
<path d="M0 0 C3 1 3 1 3 1 Z " fill="#AEAEAE" transform="translate(410,134)"/>
<path d="M0 0 C3 1 3 1 3 1 Z " fill="#010101" transform="translate(240,127)"/>
<path d="M0 0 C3 1 3 1 3 1 Z " fill="#FEFEFE" transform="translate(470,116)"/>
<path d="M0 0 C3 1 3 1 3 1 Z " fill="#ABABAB" transform="translate(231,116)"/>
<path d="M0 0 C3 1 3 1 3 1 Z " fill="#FEFEFE" transform="translate(464,114)"/>
<path d="M0 0 C3 1 3 1 3 1 Z " fill="#FFFFFF" transform="translate(461,113)"/>
<path d="M0 0 C3 1 3 1 3 1 Z " fill="#FFFFFF" transform="translate(454,111)"/>
<path d="M0 0 C3 1 3 1 3 1 Z " fill="#FFFFFF" transform="translate(183,111)"/>
<path d="M0 0 C3 1 3 1 3 1 Z " fill="#FFFFFF" transform="translate(187,110)"/>
<path d="M0 0 C3 1 3 1 3 1 Z " fill="#FFFFFF" transform="translate(191,109)"/>
<path d="M0 0 C3 1 3 1 3 1 Z " fill="#FFFFFF" transform="translate(442,108)"/>
<path d="M0 0 C3 1 3 1 3 1 Z " fill="#FFFFFF" transform="translate(195,108)"/>
<path d="M0 0 C3 1 3 1 3 1 Z " fill="#FFFFFF" transform="translate(438,107)"/>
<path d="" fill="#FFFFFF" transform="translate(0,0)"/>
<path d="M0 0 C2 1 2 1 2 1 Z " fill="#FFFFFF" transform="translate(119,528)"/>
<path d="M0 0 C2 1 2 1 2 1 Z " fill="#FFFFFF" transform="translate(521,527)"/>
<path d="M0 0 C2 1 2 1 2 1 Z " fill="#FFFFFF" transform="translate(524,526)"/>
<path d="M0 0 C2 1 2 1 2 1 Z " fill="#FFFFFF" transform="translate(112,526)"/>
<path d="M0 0 C2 1 2 1 2 1 Z " fill="#FEFEFE" transform="translate(527,525)"/>
<path d="M0 0 C2 1 2 1 2 1 Z " fill="#FEFEFE" transform="translate(109,525)"/>
<path d="M0 0 C2 1 2 1 2 1 Z " fill="#FEFEFE" transform="translate(530,524)"/>
<path d="M0 0 C2 1 2 1 2 1 Z " fill="#FEFEFE" transform="translate(106,524)"/>
<path d="M0 0 C2 1 2 1 2 1 Z " fill="#FEFEFE" transform="translate(533,523)"/>
<path d="" fill="#FCFBFC" transform="translate(0,0)"/>
<path d="M0 0 C2 1 2 1 2 1 Z " fill="#FEFEFE" transform="translate(103,523)"/>
<path d="M0 0 C2 1 2 1 2 1 Z " fill="#FEFEFE" transform="translate(536,522)"/>
<path d="M0 0 C2 1 2 1 2 1 Z " fill="#FEFEFE" transform="translate(101,522)"/>
<path d="M0 0 C2 1 2 1 2 1 Z " fill="#FEFEFE" transform="translate(539,521)"/>
<path d="M0 0 C2 1 2 1 2 1 Z " fill="#FEFEFE" transform="translate(98,521)"/>
<path d="M0 0 C2 1 2 1 2 1 Z " fill="#FEFEFE" transform="translate(541,520)"/>
<path d="M0 0 C2 1 2 1 2 1 Z " fill="#FEFEFE" transform="translate(96,520)"/>
<path d="M0 0 C2 1 2 1 2 1 Z " fill="#FFFFFF" transform="translate(93,519)"/>
<path d="M0 0 C2 1 2 1 2 1 Z " fill="#FEFEFE" transform="translate(546,518)"/>
<path d="M0 0 C2 1 2 1 2 1 Z " fill="#FFFFFF" transform="translate(91,518)"/>
<path d="M0 0 C2 1 2 1 2 1 Z " fill="#FEFEFE" transform="translate(548,517)"/>
<path d="" fill="#FBFAFB" transform="translate(0,0)"/>
<path d="M0 0 C2 1 2 1 2 1 Z " fill="#FFFFFF" transform="translate(89,517)"/>
<path d="M0 0 C2 1 2 1 2 1 Z " fill="#FEFEFE" transform="translate(550,516)"/>
<path d="M0 0 C2 1 2 1 2 1 Z " fill="#FFFFFF" transform="translate(87,516)"/>
<path d="M0 0 C2 1 2 1 2 1 Z " fill="#FEFEFE" transform="translate(552,515)"/>
<path d="" fill="#FCFBFC" transform="translate(0,0)"/>
<path d="" fill="#FBFAFB" transform="translate(0,0)"/>
<path d="M0 0 C2 1 2 1 2 1 Z " fill="#FFFFFF" transform="translate(79,512)"/>
<path d="M0 0 C2 1 2 1 2 1 Z " fill="#FEFEFE" transform="translate(560,511)"/>
<path d="M0 0 C2 1 2 1 2 1 Z " fill="#FFFFFF" transform="translate(77,511)"/>
<path d="M0 0 C2 1 2 1 2 1 Z " fill="#FEFEFE" transform="translate(562,510)"/>
<path d="M0 0 C2 1 2 1 2 1 Z " fill="#FFFFFF" transform="translate(75,510)"/>
<path d="M0 0 C2 1 2 1 2 1 Z " fill="#FEFEFE" transform="translate(564,509)"/>
<path d="" fill="#FEFEFE" transform="translate(0,0)"/>
<path d="M0 0 C2 1 2 1 2 1 Z " fill="#FFFFFF" transform="translate(70,507)"/>
<path d="M0 0 C2 1 2 1 2 1 Z " fill="#FEFEFE" transform="translate(569,506)"/>
<path d="M0 0 C2 1 2 1 2 1 Z " fill="#FEFEFE" transform="translate(572,504)"/>
<path d="M0 0 C2 1 2 1 2 1 Z " fill="#FEFEFE" transform="translate(65,504)"/>
<path d="M0 0 C2 1 2 1 2 1 Z " fill="#FFFFFF" transform="translate(62,502)"/>
<path d="" fill="#F9F9F9" transform="translate(0,0)"/>
<path d="M0 0 C2 1 2 1 2 1 Z " fill="#FFFFFF" transform="translate(581,498)"/>
<path d="" fill="#FEFEFE" transform="translate(0,0)"/>
<path d="M0 0 C2 1 2 1 2 1 Z " fill="#FFFFFF" transform="translate(55,497)"/>
<path d="" fill="#FEFEFE" transform="translate(0,0)"/>
<path d="M0 0 C2 1 2 1 2 1 Z " fill="#FFFFFF" transform="translate(585,495)"/>
<path d="M0 0 C2 1 2 1 2 1 Z " fill="#FFFFFF" transform="translate(51,494)"/>
<path d="M0 0 C2 1 2 1 2 1 Z " fill="#FFFFFF" transform="translate(589,492)"/>
<path d="" fill="#000000" transform="translate(0,0)"/>
<path d="" fill="#030303" transform="translate(0,0)"/>
<path d="M0 0 C2 1 2 1 2 1 Z " fill="#FFFFFF" transform="translate(596,486)"/>
<path d="M0 0 C2 1 2 1 2 1 Z " fill="#010101" transform="translate(423,480)"/>
<path d="M0 0 C2 1 2 1 2 1 Z " fill="#FFFFFF" transform="translate(416,480)"/>
<path d="M0 0 C2 1 2 1 2 1 Z " fill="#FEFEFE" transform="translate(228,480)"/>
<path d="M0 0 C2 1 2 1 2 1 Z " fill="#010101" transform="translate(426,479)"/>
<path d="M0 0 C2 1 2 1 2 1 Z " fill="#FFFFFF" transform="translate(420,479)"/>
<path d="M0 0 C2 1 2 1 2 1 Z " fill="#FFFFFF" transform="translate(224,479)"/>
<path d="M0 0 C2 1 2 1 2 1 Z " fill="#000000" transform="translate(214,479)"/>
<path d="M0 0 C2 1 2 1 2 1 Z " fill="#000000" transform="translate(211,478)"/>
<path d="M0 0 C2 1 2 1 2 1 Z " fill="#000000" transform="translate(433,477)"/>
<path d="M0 0 C2 1 2 1 2 1 Z " fill="#FDFDFD" transform="translate(427,477)"/>
<path d="M0 0 C2 1 2 1 2 1 Z " fill="#FFFFFF" transform="translate(217,477)"/>
<path d="M0 0 C2 1 2 1 2 1 Z " fill="#020202" transform="translate(208,477)"/>
<path d="M0 0 C2 1 2 1 2 1 Z " fill="#FDFDFD" transform="translate(430,476)"/>
<path d="M0 0 C2 1 2 1 2 1 Z " fill="#000000" transform="translate(205,476)"/>
<path d="M0 0 C2 1 2 1 2 1 Z " fill="#FCFCFC" transform="translate(210,475)"/>
<path d="M0 0 C2 1 2 1 2 1 Z " fill="#010101" transform="translate(202,475)"/>
<path d="M0 0 C2 1 2 1 2 1 Z " fill="#FEFEFE" transform="translate(207,474)"/>
<path d="M0 0 C2 1 2 1 2 1 Z " fill="#000000" transform="translate(200,474)"/>
<path d="M0 0 C2 1 2 1 2 1 Z " fill="#FFFFFF" transform="translate(204,473)"/>
<path d="M0 0 C2 1 2 1 2 1 Z " fill="#010101" transform="translate(197,473)"/>
<path d="" fill="#FFFFFF" transform="translate(0,0)"/>
<path d="M0 0 C2 1 2 1 2 1 Z " fill="#FCFCFC" transform="translate(201,472)"/>
<path d="M0 0 C2 1 2 1 2 1 Z " fill="#010101" transform="translate(195,472)"/>
<path d="M0 0 C2 1 2 1 2 1 Z " fill="#F8F8F8" transform="translate(198,471)"/>
<path d="M0 0 C2 1 2 1 2 1 Z " fill="#000000" transform="translate(193,471)"/>
<path d="M0 0 C2 1 2 1 2 1 Z " fill="#F8F8F8" transform="translate(195,470)"/>
<path d="" fill="#FFFFFF" transform="translate(0,0)"/>
<path d="M0 0 C2 1 2 1 2 1 Z " fill="#FDFDFD" transform="translate(192,469)"/>
<path d="M0 0 C2 1 2 1 2 1 Z " fill="#9E9E9E" transform="translate(456,467)"/>
<path d="" fill="#FFFFFF" transform="translate(0,0)"/>
<path d="M0 0 C2 1 2 1 2 1 Z " fill="#9F9F9F" transform="translate(458,466)"/>
<path d="" fill="#FEFEFE" transform="translate(0,0)"/>
<path d="M0 0 C2 1 2 1 2 1 Z " fill="#949494" transform="translate(179,464)"/>
<path d="M0 0 C2 1 2 1 2 1 Z " fill="#8F8F8F" transform="translate(177,463)"/>
<path d="" fill="#FEFEFE" transform="translate(0,0)"/>
<path d="" fill="#FFFFFF" transform="translate(0,0)"/>
<path d="" fill="#FEFEFE" transform="translate(0,0)"/>
<path d="" fill="#565656" transform="translate(0,0)"/>
<path d="" fill="#333333" transform="translate(0,0)"/>
<path d="" fill="#000000" transform="translate(0,0)"/>
<path d="" fill="#000000" transform="translate(0,0)"/>
<path d="" fill="#010101" transform="translate(0,0)"/>
<path d="" fill="#020202" transform="translate(0,0)"/>
<path d="" fill="#030303" transform="translate(0,0)"/>
<path d="" fill="#030303" transform="translate(0,0)"/>
<path d="" fill="#6F6F6F" transform="translate(0,0)"/>
<path d="" fill="#020202" transform="translate(0,0)"/>
<path d="" fill="#000000" transform="translate(0,0)"/>
<path d="M0 0 C2 1 2 1 2 1 Z " fill="#020202" transform="translate(387,313)"/>
<path d="M0 0 C2 1 2 1 2 1 Z " fill="#FFFFFF" transform="translate(178,313)"/>
<path d="" fill="#FDFDFD" transform="translate(0,0)"/>
<path d="" fill="#F8F8F8" transform="translate(0,0)"/>
<path d="M0 0 C2 1 2 1 2 1 Z " fill="#FDFDFD" transform="translate(462,311)"/>
<path d="M0 0 C2 1 2 1 2 1 Z " fill="#000000" transform="translate(390,311)"/>
<path d="" fill="#000000" transform="translate(0,0)"/>
<path d="M0 0 C2 1 2 1 2 1 Z " fill="#020202" transform="translate(251,310)"/>
<path d="" fill="#000000" transform="translate(0,0)"/>
<path d="M0 0 C2 1 2 1 2 1 Z " fill="#FDFDFD" transform="translate(459,309)"/>
<path d="M0 0 C2 1 2 1 2 1 Z " fill="#040404" transform="translate(393,309)"/>
<path d="" fill="#FCFBFC" transform="translate(0,0)"/>
<path d="" fill="#FCFCFC" transform="translate(0,0)"/>
<path d="M0 0 C2 1 2 1 2 1 Z " fill="#FEFEFE" transform="translate(184,309)"/>
<path d="M0 0 C2 1 2 1 2 1 Z " fill="#FDFDFD" transform="translate(457,308)"/>
<path d="M0 0 C2 1 2 1 2 1 Z " fill="#020202" transform="translate(395,308)"/>
<path d="M0 0 C2 1 2 1 2 1 Z " fill="#FEFEFE" transform="translate(186,308)"/>
<path d="" fill="#000000" transform="translate(0,0)"/>
<path d="" fill="#000000" transform="translate(0,0)"/>
<path d="M0 0 C2 1 2 1 2 1 Z " fill="#FDFDFD" transform="translate(455,307)"/>
<path d="M0 0 C2 1 2 1 2 1 Z " fill="#030303" transform="translate(397,307)"/>
<path d="M0 0 C2 1 2 1 2 1 Z " fill="#FDFDFD" transform="translate(453,306)"/>
<path d="M0 0 C2 1 2 1 2 1 Z " fill="#000000" transform="translate(399,306)"/>
<path d="" fill="#FCFBFC" transform="translate(0,0)"/>
<path d="" fill="#FEFEFE" transform="translate(0,0)"/>
<path d="M0 0 C2 1 2 1 2 1 Z " fill="#020202" transform="translate(243,306)"/>
<path d="M0 0 C2 1 2 1 2 1 Z " fill="#FEFEFE" transform="translate(190,306)"/>
<path d="" fill="#000000" transform="translate(0,0)"/>
<path d="M0 0 C2 1 2 1 2 1 Z " fill="#FEFEFE" transform="translate(451,305)"/>
<path d="M0 0 C2 1 2 1 2 1 Z " fill="#030303" transform="translate(402,305)"/>
<path d="M0 0 C2 1 2 1 2 1 Z " fill="#030303" transform="translate(241,305)"/>
<path d="M0 0 C2 1 2 1 2 1 Z " fill="#FEFEFE" transform="translate(192,305)"/>
<path d="" fill="#000000" transform="translate(0,0)"/>
<path d="M0 0 C2 1 2 1 2 1 Z " fill="#FAF9FA" transform="translate(448,304)"/>
<path d="" fill="#FDFDFD" transform="translate(0,0)"/>
<path d="M0 0 C2 1 2 1 2 1 Z " fill="#050505" transform="translate(238,304)"/>
<path d="M0 0 C2 1 2 1 2 1 Z " fill="#FEFEFE" transform="translate(195,304)"/>
<path d="" fill="#000000" transform="translate(0,0)"/>
<path d="" fill="#000000" transform="translate(0,0)"/>
<path d="" fill="#FCFCFC" transform="translate(0,0)"/>
<path d="" fill="#FDFCFD" transform="translate(0,0)"/>
<path d="" fill="#010101" transform="translate(0,0)"/>
<path d="" fill="#F9F9F9" transform="translate(0,0)"/>
<path d="" fill="#000000" transform="translate(0,0)"/>
<path d="" fill="#FFFFFF" transform="translate(0,0)"/>
<path d="" fill="#000000" transform="translate(0,0)"/>
<path d="" fill="#FFFFFF" transform="translate(0,0)"/>
<path d="" fill="#FEFEFE" transform="translate(0,0)"/>
<path d="" fill="#FEFEFE" transform="translate(0,0)"/>
<path d="" fill="#FFFFFF" transform="translate(0,0)"/>
<path d="M0 0 C2 1 2 1 2 1 Z " fill="#000000" transform="translate(187,282)"/>
<path d="M0 0 C2 1 2 1 2 1 Z " fill="#000000" transform="translate(453,280)"/>
<path d="M0 0 C2 1 2 1 2 1 Z " fill="#F0F0F0" transform="translate(391,280)"/>
<path d="M0 0 C2 1 2 1 2 1 Z " fill="#000000" transform="translate(193,278)"/>
<path d="M0 0 C2 1 2 1 2 1 Z " fill="#000000" transform="translate(448,277)"/>
<path d="M0 0 C2 1 2 1 2 1 Z " fill="#D7D7D7" transform="translate(395,277)"/>
<path d="" fill="#FFFFFF" transform="translate(0,0)"/>
<path d="M0 0 C2 1 2 1 2 1 Z " fill="#000000" transform="translate(446,276)"/>
<path d="M0 0 C2 1 2 1 2 1 Z " fill="#ACABAC" transform="translate(397,276)"/>
<path d="" fill="#FFFFFF" transform="translate(0,0)"/>
<path d="M0 0 C2 1 2 1 2 1 Z " fill="#000000" transform="translate(444,275)"/>
<path d="M0 0 C2 1 2 1 2 1 Z " fill="#8B8B8B" transform="translate(399,275)"/>
<path d="M0 0 C2 1 2 1 2 1 Z " fill="#000000" transform="translate(199,275)"/>
<path d="M0 0 C2 1 2 1 2 1 Z " fill="#000000" transform="translate(441,274)"/>
<path d="M0 0 C2 1 2 1 2 1 Z " fill="#060606" transform="translate(402,274)"/>
<path d="M0 0 C2 1 2 1 2 1 Z " fill="#0B0B0B" transform="translate(241,274)"/>
<path d="M0 0 C2 1 2 1 2 1 Z " fill="#000000" transform="translate(201,274)"/>
<path d="" fill="#FFFFFF" transform="translate(0,0)"/>
<path d="M0 0 C2 1 2 1 2 1 Z " fill="#000000" transform="translate(238,273)"/>
<path d="M0 0 C2 1 2 1 2 1 Z " fill="#000000" transform="translate(204,273)"/>
<path d="" fill="#FFFFFF" transform="translate(0,0)"/>
<path d="" fill="#FFFFFF" transform="translate(0,0)"/>
<path d="" fill="#FFFFFF" transform="translate(0,0)"/>
<path d="" fill="#FFFFFF" transform="translate(0,0)"/>
<path d="" fill="#FFFFFF" transform="translate(0,0)"/>
<path d="" fill="#FFFFFF" transform="translate(0,0)"/>
<path d="" fill="#FFFFFF" transform="translate(0,0)"/>
<path d="" fill="#FFFFFF" transform="translate(0,0)"/>
<path d="" fill="#FFFFFF" transform="translate(0,0)"/>
<path d="" fill="#FEFEFE" transform="translate(0,0)"/>
<path d="" fill="#FFFFFF" transform="translate(0,0)"/>
<path d="" fill="#FEFEFE" transform="translate(0,0)"/>
<path d="" fill="#FFFFFF" transform="translate(0,0)"/>
<path d="" fill="#FEFEFE" transform="translate(0,0)"/>
<path d="" fill="#FFFFFF" transform="translate(0,0)"/>
<path d="" fill="#FEFEFE" transform="translate(0,0)"/>
<path d="" fill="#FFFFFF" transform="translate(0,0)"/>
<path d="" fill="#FEFEFE" transform="translate(0,0)"/>
<path d="" fill="#FFFFFF" transform="translate(0,0)"/>
<path d="" fill="#FFFFFF" transform="translate(0,0)"/>
<path d="" fill="#FFFFFF" transform="translate(0,0)"/>
<path d="" fill="#FFFFFF" transform="translate(0,0)"/>
<path d="" fill="#FFFFFF" transform="translate(0,0)"/>
<path d="" fill="#FFFFFF" transform="translate(0,0)"/>
<path d="" fill="#FFFFFF" transform="translate(0,0)"/>
<path d="" fill="#FFFFFF" transform="translate(0,0)"/>
<path d="" fill="#FFFFFF" transform="translate(0,0)"/>
<path d="" fill="#FFFFFF" transform="translate(0,0)"/>
<path d="" fill="#FFFFFF" transform="translate(0,0)"/>
<path d="" fill="#FFFFFF" transform="translate(0,0)"/>
<path d="" fill="#FFFFFF" transform="translate(0,0)"/>
<path d="" fill="#FFFFFF" transform="translate(0,0)"/>
<path d="" fill="#FFFFFF" transform="translate(0,0)"/>
<path d="" fill="#FFFFFF" transform="translate(0,0)"/>
<path d="" fill="#FFFFFF" transform="translate(0,0)"/>
<path d="" fill="#FFFFFF" transform="translate(0,0)"/>
<path d="" fill="#FFFFFF" transform="translate(0,0)"/>
<path d="" fill="#FFFFFF" transform="translate(0,0)"/>
<path d="" fill="#FFFFFF" transform="translate(0,0)"/>
<path d="" fill="#FFFFFF" transform="translate(0,0)"/>
<path d="" fill="#FFFFFF" transform="translate(0,0)"/>
<path d="" fill="#FFFFFF" transform="translate(0,0)"/>
<path d="" fill="#FFFFFF" transform="translate(0,0)"/>
<path d="" fill="#FFFFFF" transform="translate(0,0)"/>
<path d="" fill="#FFFFFF" transform="translate(0,0)"/>
<path d="" fill="#FFFFFF" transform="translate(0,0)"/>
<path d="" fill="#FFFFFF" transform="translate(0,0)"/>
<path d="" fill="#FFFFFF" transform="translate(0,0)"/>
<path d="" fill="#FFFFFF" transform="translate(0,0)"/>
<path d="" fill="#FFFFFF" transform="translate(0,0)"/>
<path d="" fill="#FFFFFF" transform="translate(0,0)"/>
<path d="" fill="#FFFFFF" transform="translate(0,0)"/>
<path d="" fill="#FFFFFF" transform="translate(0,0)"/>
<path d="" fill="#FFFFFF" transform="translate(0,0)"/>
<path d="" fill="#FFFFFF" transform="translate(0,0)"/>
<path d="" fill="#FFFFFF" transform="translate(0,0)"/>
<path d="" fill="#FFFFFF" transform="translate(0,0)"/>
<path d="" fill="#FFFFFF" transform="translate(0,0)"/>
<path d="" fill="#FFFFFF" transform="translate(0,0)"/>
<path d="" fill="#FFFFFF" transform="translate(0,0)"/>
<path d="" fill="#FFFFFF" transform="translate(0,0)"/>
<path d="" fill="#FFFFFF" transform="translate(0,0)"/>
<path d="" fill="#FFFFFF" transform="translate(0,0)"/>
<path d="" fill="#FFFFFF" transform="translate(0,0)"/>
<path d="" fill="#FFFFFF" transform="translate(0,0)"/>
<path d="" fill="#FFFFFF" transform="translate(0,0)"/>
<path d="" fill="#FFFFFF" transform="translate(0,0)"/>
<path d="" fill="#FFFFFF" transform="translate(0,0)"/>
<path d="" fill="#FFFFFF" transform="translate(0,0)"/>
<path d="" fill="#FFFFFF" transform="translate(0,0)"/>
<path d="" fill="#FFFFFF" transform="translate(0,0)"/>
<path d="" fill="#FFFFFF" transform="translate(0,0)"/>
<path d="" fill="#FFFFFF" transform="translate(0,0)"/>
<path d="" fill="#FFFFFF" transform="translate(0,0)"/>
<path d="" fill="#FFFFFF" transform="translate(0,0)"/>
<path d="" fill="#FFFFFF" transform="translate(0,0)"/>
<path d="" fill="#FFFFFF" transform="translate(0,0)"/>
<path d="" fill="#FFFFFF" transform="translate(0,0)"/>
<path d="" fill="#FFFFFF" transform="translate(0,0)"/>
<path d="" fill="#FFFFFF" transform="translate(0,0)"/>
<path d="" fill="#FFFFFF" transform="translate(0,0)"/>
<path d="" fill="#FFFFFF" transform="translate(0,0)"/>
<path d="" fill="#FFFFFF" transform="translate(0,0)"/>
<path d="" fill="#FFFFFF" transform="translate(0,0)"/>
<path d="" fill="#FFFFFF" transform="translate(0,0)"/>
<path d="M0 0 C2 1 2 1 2 1 Z " fill="#FFFFFF" transform="translate(540,152)"/>
<path d="M0 0 C2 1 2 1 2 1 Z " fill="#FEFEFE" transform="translate(98,152)"/>
<path d="M0 0 C2 1 2 1 2 1 Z " fill="#FEFEFE" transform="translate(101,150)"/>
<path d="M0 0 C2 1 2 1 2 1 Z " fill="#FEFEFE" transform="translate(104,148)"/>
<path d="M0 0 C2 1 2 1 2 1 Z " fill="#FEFEFE" transform="translate(107,146)"/>
<path d="M0 0 C2 1 2 1 2 1 Z " fill="#FEFEFE" transform="translate(528,144)"/>
<path d="M0 0 C2 1 2 1 2 1 Z " fill="#FEFEFE" transform="translate(110,144)"/>
<path d="M0 0 C2 1 2 1 2 1 Z " fill="#FFFFFF" transform="translate(525,142)"/>
<path d="M0 0 C2 1 2 1 2 1 Z " fill="#FEFEFE" transform="translate(115,141)"/>
<path d="M0 0 C2 1 2 1 2 1 Z " fill="#FFFFFF" transform="translate(520,139)"/>
<path d="M0 0 C2 1 2 1 2 1 Z " fill="#FEFEFE" transform="translate(118,139)"/>
<path d="M0 0 C2 1 2 1 2 1 Z " fill="#FEFEFE" transform="translate(120,138)"/>
<path d="M0 0 C2 1 2 1 2 1 Z " fill="#868686" transform="translate(210,137)"/>
<path d="M0 0 C2 1 2 1 2 1 Z " fill="#FFFFFF" transform="translate(513,135)"/>
<path d="M0 0 C2 1 2 1 2 1 Z " fill="#FEFEFE" transform="translate(125,135)"/>
<path d="M0 0 C2 1 2 1 2 1 Z " fill="#FFFFFF" transform="translate(511,134)"/>
<path d="M0 0 C2 1 2 1 2 1 Z " fill="#FEFEFE" transform="translate(127,134)"/>
<path d="M0 0 C2 1 2 1 2 1 Z " fill="#FFFFFF" transform="translate(509,133)"/>
<path d="M0 0 C2 1 2 1 2 1 Z " fill="#FFFFFF" transform="translate(129,133)"/>
<path d="M0 0 C2 1 2 1 2 1 Z " fill="#FFFFFF" transform="translate(131,132)"/>
<path d="M0 0 C2 1 2 1 2 1 Z " fill="#020202" transform="translate(228,131)"/>
<path d="M0 0 C2 1 2 1 2 1 Z " fill="#FFFFFF" transform="translate(133,131)"/>
<path d="M0 0 C2 1 2 1 2 1 Z " fill="#000000" transform="translate(399,130)"/>
<path d="M0 0 C2 1 2 1 2 1 Z " fill="#000000" transform="translate(231,130)"/>
<path d="M0 0 C2 1 2 1 2 1 Z " fill="#FFFFFF" transform="translate(135,130)"/>
<path d="M0 0 C2 1 2 1 2 1 Z " fill="#020202" transform="translate(395,129)"/>
<path d="M0 0 C2 1 2 1 2 1 Z " fill="#000000" transform="translate(234,129)"/>
<path d="M0 0 C2 1 2 1 2 1 Z " fill="#FFFFFF" transform="translate(137,129)"/>
<path d="M0 0 C2 1 2 1 2 1 Z " fill="#010101" transform="translate(392,128)"/>
<path d="M0 0 C2 1 2 1 2 1 Z " fill="#000000" transform="translate(237,128)"/>
<path d="M0 0 C2 1 2 1 2 1 Z " fill="#FFFFFF" transform="translate(139,128)"/>
<path d="M0 0 C2 1 2 1 2 1 Z " fill="#FFFFFF" transform="translate(497,127)"/>
<path d="M0 0 C2 1 2 1 2 1 Z " fill="#FFFFFF" transform="translate(141,127)"/>
<path d="M0 0 C2 1 2 1 2 1 Z " fill="#FFFFFF" transform="translate(495,126)"/>
<path d="M0 0 C2 1 2 1 2 1 Z " fill="#010101" transform="translate(244,126)"/>
<path d="M0 0 C2 1 2 1 2 1 Z " fill="#FFFFFF" transform="translate(143,126)"/>
<path d="M0 0 C2 1 2 1 2 1 Z " fill="#FFFFFF" transform="translate(493,125)"/>
<path d="M0 0 C2 1 2 1 2 1 Z " fill="#FFFFFF" transform="translate(145,125)"/>
<path d="M0 0 C2 1 2 1 2 1 Z " fill="#FFFFFF" transform="translate(491,124)"/>
<path d="M0 0 C2 1 2 1 2 1 Z " fill="#FFFFFF" transform="translate(150,123)"/>
<path d="M0 0 C2 1 2 1 2 1 Z " fill="#FFFFFF" transform="translate(486,122)"/>
<path d="M0 0 C2 1 2 1 2 1 Z " fill="#FFFFFF" transform="translate(152,122)"/>
<path d="M0 0 C2 1 2 1 2 1 Z " fill="#FFFFFF" transform="translate(484,121)"/>
<path d="M0 0 C2 1 2 1 2 1 Z " fill="#FFFFFF" transform="translate(481,120)"/>
<path d="M0 0 C2 1 2 1 2 1 Z " fill="#FFFFFF" transform="translate(157,120)"/>
<path d="M0 0 C2 1 2 1 2 1 Z " fill="#FEFEFE" transform="translate(479,119)"/>
<path d="M0 0 C2 1 2 1 2 1 Z " fill="#FEFEFE" transform="translate(160,119)"/>
<path d="M0 0 C2 1 2 1 2 1 Z " fill="#FEFEFE" transform="translate(476,118)"/>
<path d="M0 0 C2 1 2 1 2 1 Z " fill="#FEFEFE" transform="translate(162,118)"/>
<path d="M0 0 C2 1 2 1 2 1 Z " fill="#FEFEFE" transform="translate(473,117)"/>
<path d="M0 0 C2 1 2 1 2 1 Z " fill="#FEFEFE" transform="translate(165,117)"/>
<path d="M0 0 C2 1 2 1 2 1 Z " fill="#FEFEFE" transform="translate(168,116)"/>
<path d="M0 0 C2 1 2 1 2 1 Z " fill="#FEFEFE" transform="translate(468,115)"/>
<path d="M0 0 C2 1 2 1 2 1 Z " fill="#FEFEFE" transform="translate(171,115)"/>
<path d="M0 0 C2 1 2 1 2 1 Z " fill="#FEFEFE" transform="translate(174,114)"/>
<path d="M0 0 C2 1 2 1 2 1 Z " fill="#FFFFFF" transform="translate(177,113)"/>
<path d="M0 0 C2 1 2 1 2 1 Z " fill="#FFFFFF" transform="translate(458,112)"/>
<path d="M0 0 C2 1 2 1 2 1 Z " fill="#FFFFFF" transform="translate(180,112)"/>
<path d="" fill="#FFFFFF" transform="translate(0,0)"/>
<path d="M0 0 C2 1 2 1 2 1 Z " fill="#FFFFFF" transform="translate(451,110)"/>
<path d="M0 0 C2 1 2 1 2 1 Z " fill="#FFFFFF" transform="translate(447,109)"/>
<path d="" fill="#FFFFFF" transform="translate(0,0)"/>
<path d="" fill="#FFFFFF" transform="translate(0,0)"/>
<path d="" fill="#FFFFFF" transform="translate(0,0)"/>
<path d="" fill="#FFFFFF" transform="translate(0,0)"/>
<path d="" fill="#FFFFFF" transform="translate(0,0)"/>
<path d="" fill="#FFFFFF" transform="translate(0,0)"/>
<path d="" fill="#FFFFFF" transform="translate(0,0)"/>
<path d="" fill="#FFFFFF" transform="translate(0,0)"/>
<path d="" fill="#FFFFFF" transform="translate(0,0)"/>
<path d="" fill="#FEFEFE" transform="translate(0,0)"/>
<path d="" fill="#FFFFFF" transform="translate(0,0)"/>
<path d="" fill="#FEFEFE" transform="translate(0,0)"/>
<path d="" fill="#FEFEFE" transform="translate(0,0)"/>
<path d="" fill="#FDFDFD" transform="translate(0,0)"/>
<path d="" fill="#FEFEFE" transform="translate(0,0)"/>
<path d="" fill="#FDFDFD" transform="translate(0,0)"/>
<path d="" fill="#FEFEFE" transform="translate(0,0)"/>
<path d="" fill="#FEFEFE" transform="translate(0,0)"/>
<path d="" fill="#FCFBFC" transform="translate(0,0)"/>
<path d="" fill="#FEFEFE" transform="translate(0,0)"/>
<path d="" fill="#FCFBFC" transform="translate(0,0)"/>
<path d="" fill="#FAFAFA" transform="translate(0,0)"/>
<path d="" fill="#FAFAFA" transform="translate(0,0)"/>
<path d="" fill="#FCFBFC" transform="translate(0,0)"/>
<path d="" fill="#FCFBFC" transform="translate(0,0)"/>
<path d="" fill="#FDFDFD" transform="translate(0,0)"/>
<path d="" fill="#FEFEFE" transform="translate(0,0)"/>
<path d="" fill="#FCFBFC" transform="translate(0,0)"/>
<path d="" fill="#F5F5F5" transform="translate(0,0)"/>
<path d="" fill="#FDFDFD" transform="translate(0,0)"/>
<path d="" fill="#FCFBFC" transform="translate(0,0)"/>
<path d="" fill="#FCFBFC" transform="translate(0,0)"/>
<path d="" fill="#FCFBFC" transform="translate(0,0)"/>
<path d="" fill="#F9F9F9" transform="translate(0,0)"/>
<path d="" fill="#FFFFFF" transform="translate(0,0)"/>
<path d="" fill="#FEFEFE" transform="translate(0,0)"/>
<path d="" fill="#FDFDFD" transform="translate(0,0)"/>
<path d="" fill="#FFFFFF" transform="translate(0,0)"/>
<path d="" fill="#FEFEFE" transform="translate(0,0)"/>
<path d="" fill="#FAFAFA" transform="translate(0,0)"/>
<path d="" fill="#FFFFFF" transform="translate(0,0)"/>
<path d="" fill="#FEFEFE" transform="translate(0,0)"/>
<path d="" fill="#FDFDFD" transform="translate(0,0)"/>
<path d="" fill="#FCFBFC" transform="translate(0,0)"/>
<path d="" fill="#F9F9F9" transform="translate(0,0)"/>
<path d="" fill="#F7F7F7" transform="translate(0,0)"/>
<path d="" fill="#F7F7F7" transform="translate(0,0)"/>
<path d="" fill="#FAFAFA" transform="translate(0,0)"/>
<path d="" fill="#FFFFFF" transform="translate(0,0)"/>
<path d="" fill="#FEFEFE" transform="translate(0,0)"/>
<path d="" fill="#FDFDFD" transform="translate(0,0)"/>
<path d="" fill="#FFFFFF" transform="translate(0,0)"/>
<path d="" fill="#FEFEFE" transform="translate(0,0)"/>
<path d="" fill="#FEFEFE" transform="translate(0,0)"/>
<path d="" fill="#FEFEFE" transform="translate(0,0)"/>
<path d="" fill="#FFFFFF" transform="translate(0,0)"/>
<path d="" fill="#FEFEFE" transform="translate(0,0)"/>
<path d="" fill="#FEFEFE" transform="translate(0,0)"/>
<path d="" fill="#FEFEFE" transform="translate(0,0)"/>
<path d="" fill="#FEFEFE" transform="translate(0,0)"/>
<path d="" fill="#FDFDFD" transform="translate(0,0)"/>
<path d="" fill="#FEFEFE" transform="translate(0,0)"/>
<path d="" fill="#FFFFFF" transform="translate(0,0)"/>
<path d="" fill="#F7F7F7" transform="translate(0,0)"/>
<path d="" fill="#F8F8F8" transform="translate(0,0)"/>
<path d="" fill="#FEFEFE" transform="translate(0,0)"/>
<path d="" fill="#FFFFFF" transform="translate(0,0)"/>
<path d="" fill="#F9F9F9" transform="translate(0,0)"/>
<path d="" fill="#FFFFFF" transform="translate(0,0)"/>
<path d="" fill="#F7F7F7" transform="translate(0,0)"/>
<path d="" fill="#FFFFFF" transform="translate(0,0)"/>
<path d="" fill="#FFFFFF" transform="translate(0,0)"/>
<path d="" fill="#F7F7F7" transform="translate(0,0)"/>
<path d="" fill="#FFFFFF" transform="translate(0,0)"/>
<path d="" fill="#FFFFFF" transform="translate(0,0)"/>
<path d="" fill="#F7F7F7" transform="translate(0,0)"/>
<path d="" fill="#FEFEFE" transform="translate(0,0)"/>
<path d="" fill="#FFFFFF" transform="translate(0,0)"/>
<path d="" fill="#FCFBFC" transform="translate(0,0)"/>
<path d="" fill="#FEFEFE" transform="translate(0,0)"/>
<path d="" fill="#FFFFFF" transform="translate(0,0)"/>
<path d="" fill="#FFFFFF" transform="translate(0,0)"/>
<path d="" fill="#FEFEFE" transform="translate(0,0)"/>
<path d="" fill="#FFFFFF" transform="translate(0,0)"/>
<path d="" fill="#FFFFFF" transform="translate(0,0)"/>
<path d="" fill="#FFFFFF" transform="translate(0,0)"/>
<path d="" fill="#FFFFFF" transform="translate(0,0)"/>
<path d="" fill="#FFFFFF" transform="translate(0,0)"/>
<path d="" fill="#F8F8F8" transform="translate(0,0)"/>
<path d="" fill="#FCFBFC" transform="translate(0,0)"/>
<path d="" fill="#FFFFFF" transform="translate(0,0)"/>
<path d="" fill="#FFFFFF" transform="translate(0,0)"/>
<path d="" fill="#FFFFFF" transform="translate(0,0)"/>
<path d="" fill="#FFFFFF" transform="translate(0,0)"/>
<path d="" fill="#FFFFFF" transform="translate(0,0)"/>
<path d="" fill="#FFFFFF" transform="translate(0,0)"/>
<path d="" fill="#020202" transform="translate(0,0)"/>
<path d="" fill="#FFFFFF" transform="translate(0,0)"/>
<path d="" fill="#FFFFFF" transform="translate(0,0)"/>
<path d="" fill="#FFFFFF" transform="translate(0,0)"/>
<path d="" fill="#FFFFFF" transform="translate(0,0)"/>
<path d="" fill="#000000" transform="translate(0,0)"/>
<path d="" fill="#FFFFFF" transform="translate(0,0)"/>
<path d="" fill="#FFFFFF" transform="translate(0,0)"/>
<path d="" fill="#020202" transform="translate(0,0)"/>
<path d="" fill="#020202" transform="translate(0,0)"/>
<path d="" fill="#FFFFFF" transform="translate(0,0)"/>
<path d="" fill="#FFFFFF" transform="translate(0,0)"/>
<path d="" fill="#010101" transform="translate(0,0)"/>
<path d="" fill="#010101" transform="translate(0,0)"/>
<path d="" fill="#FFFFFF" transform="translate(0,0)"/>
<path d="" fill="#050505" transform="translate(0,0)"/>
<path d="" fill="#010101" transform="translate(0,0)"/>
<path d="" fill="#FFFFFF" transform="translate(0,0)"/>
<path d="" fill="#FFFFFF" transform="translate(0,0)"/>
<path d="" fill="#010101" transform="translate(0,0)"/>
<path d="" fill="#FFFFFF" transform="translate(0,0)"/>
<path d="" fill="#FFFFFF" transform="translate(0,0)"/>
<path d="" fill="#050505" transform="translate(0,0)"/>
<path d="" fill="#FFFFFF" transform="translate(0,0)"/>
<path d="" fill="#FFFFFF" transform="translate(0,0)"/>
<path d="" fill="#010101" transform="translate(0,0)"/>
<path d="" fill="#010101" transform="translate(0,0)"/>
<path d="" fill="#FFFFFF" transform="translate(0,0)"/>
<path d="" fill="#FFFFFF" transform="translate(0,0)"/>
<path d="" fill="#FFFFFF" transform="translate(0,0)"/>
<path d="" fill="#FFFFFF" transform="translate(0,0)"/>
<path d="" fill="#FFFFFF" transform="translate(0,0)"/>
<path d="" fill="#FFFFFF" transform="translate(0,0)"/>
<path d="" fill="#FFFFFF" transform="translate(0,0)"/>
<path d="" fill="#FFFFFF" transform="translate(0,0)"/>
<path d="" fill="#FFFFFF" transform="translate(0,0)"/>
<path d="" fill="#FFFFFF" transform="translate(0,0)"/>
<path d="" fill="#FFFFFF" transform="translate(0,0)"/>
<path d="" fill="#FFFFFF" transform="translate(0,0)"/>
<path d="" fill="#FFFFFF" transform="translate(0,0)"/>
<path d="" fill="#FFFFFF" transform="translate(0,0)"/>
<path d="" fill="#FFFFFF" transform="translate(0,0)"/>
<path d="" fill="#FFFFFF" transform="translate(0,0)"/>
<path d="" fill="#FFFFFF" transform="translate(0,0)"/>
<path d="" fill="#FFFFFF" transform="translate(0,0)"/>
<path d="" fill="#FFFFFF" transform="translate(0,0)"/>
<path d="" fill="#FFFFFF" transform="translate(0,0)"/>
<path d="" fill="#FFFFFF" transform="translate(0,0)"/>
<path d="" fill="#FFFFFF" transform="translate(0,0)"/>
<path d="" fill="#FFFFFF" transform="translate(0,0)"/>
<path d="" fill="#FFFFFF" transform="translate(0,0)"/>
<path d="" fill="#000000" transform="translate(0,0)"/>
<path d="" fill="#FFFFFF" transform="translate(0,0)"/>
<path d="" fill="#FFFFFF" transform="translate(0,0)"/>
<path d="" fill="#FFFFFF" transform="translate(0,0)"/>
<path d="" fill="#FFFFFF" transform="translate(0,0)"/>
<path d="" fill="#FFFFFF" transform="translate(0,0)"/>
<path d="" fill="#FEFEFE" transform="translate(0,0)"/>
<path d="" fill="#858585" transform="translate(0,0)"/>
<path d="" fill="#FFFFFF" transform="translate(0,0)"/>
<path d="" fill="#727272" transform="translate(0,0)"/>
<path d="" fill="#FFFFFF" transform="translate(0,0)"/>
<path d="" fill="#FEFEFE" transform="translate(0,0)"/>
<path d="" fill="#FFFFFF" transform="translate(0,0)"/>
<path d="" fill="#D2D2D2" transform="translate(0,0)"/>
<path d="" fill="#FEFEFE" transform="translate(0,0)"/>
<path d="" fill="#FFFFFF" transform="translate(0,0)"/>
<path d="" fill="#FFFFFF" transform="translate(0,0)"/>
<path d="" fill="#FEFEFE" transform="translate(0,0)"/>
<path d="" fill="#000000" transform="translate(0,0)"/>
<path d="" fill="#020202" transform="translate(0,0)"/>
<path d="" fill="#000000" transform="translate(0,0)"/>
<path d="" fill="#030303" transform="translate(0,0)"/>
<path d="" fill="#030303" transform="translate(0,0)"/>
<path d="" fill="#000000" transform="translate(0,0)"/>
<path d="" fill="#E3E3E3" transform="translate(0,0)"/>
<path d="" fill="#030303" transform="translate(0,0)"/>
<path d="" fill="#FFFFFF" transform="translate(0,0)"/>
<path d="" fill="#FFFFFF" transform="translate(0,0)"/>
<path d="" fill="#030303" transform="translate(0,0)"/>
<path d="" fill="#020202" transform="translate(0,0)"/>
<path d="" fill="#FEFEFE" transform="translate(0,0)"/>
<path d="" fill="#FDFDFD" transform="translate(0,0)"/>
<path d="" fill="#070707" transform="translate(0,0)"/>
<path d="" fill="#020202" transform="translate(0,0)"/>
<path d="" fill="#FEFEFE" transform="translate(0,0)"/>
<path d="" fill="#FFFFFF" transform="translate(0,0)"/>
<path d="" fill="#030303" transform="translate(0,0)"/>
<path d="" fill="#010101" transform="translate(0,0)"/>
<path d="" fill="#FEFEFE" transform="translate(0,0)"/>
<path d="" fill="#FDFDFD" transform="translate(0,0)"/>
<path d="" fill="#000000" transform="translate(0,0)"/>
<path d="" fill="#010101" transform="translate(0,0)"/>
<path d="" fill="#FEFEFE" transform="translate(0,0)"/>
<path d="" fill="#F9F9F9" transform="translate(0,0)"/>
<path d="" fill="#000000" transform="translate(0,0)"/>
<path d="" fill="#050505" transform="translate(0,0)"/>
<path d="" fill="#FEFEFE" transform="translate(0,0)"/>
<path d="" fill="#FEFEFE" transform="translate(0,0)"/>
<path d="" fill="#000000" transform="translate(0,0)"/>
<path d="" fill="#010101" transform="translate(0,0)"/>
<path d="" fill="#FEFEFE" transform="translate(0,0)"/>
<path d="" fill="#FDFDFD" transform="translate(0,0)"/>
<path d="" fill="#000000" transform="translate(0,0)"/>
<path d="" fill="#000000" transform="translate(0,0)"/>
<path d="" fill="#FEFEFE" transform="translate(0,0)"/>
<path d="" fill="#FDFDFD" transform="translate(0,0)"/>
<path d="" fill="#010101" transform="translate(0,0)"/>
<path d="" fill="#050505" transform="translate(0,0)"/>
<path d="" fill="#FEFEFE" transform="translate(0,0)"/>
<path d="" fill="#FDFDFD" transform="translate(0,0)"/>
<path d="" fill="#030303" transform="translate(0,0)"/>
<path d="" fill="#000000" transform="translate(0,0)"/>
<path d="" fill="#FFFFFF" transform="translate(0,0)"/>
<path d="" fill="#FDFDFD" transform="translate(0,0)"/>
<path d="" fill="#000000" transform="translate(0,0)"/>
<path d="" fill="#000000" transform="translate(0,0)"/>
<path d="" fill="#FFFFFF" transform="translate(0,0)"/>
<path d="" fill="#FDFDFD" transform="translate(0,0)"/>
<path d="" fill="#020202" transform="translate(0,0)"/>
<path d="" fill="#FDFDFD" transform="translate(0,0)"/>
<path d="" fill="#010101" transform="translate(0,0)"/>
<path d="" fill="#000000" transform="translate(0,0)"/>
<path d="" fill="#FFFFFF" transform="translate(0,0)"/>
<path d="" fill="#020202" transform="translate(0,0)"/>
<path d="" fill="#FFFFFF" transform="translate(0,0)"/>
<path d="" fill="#FDFDFD" transform="translate(0,0)"/>
<path d="" fill="#000000" transform="translate(0,0)"/>
<path d="" fill="#FFFFFF" transform="translate(0,0)"/>
<path d="" fill="#030303" transform="translate(0,0)"/>
<path d="" fill="#030303" transform="translate(0,0)"/>
<path d="" fill="#060606" transform="translate(0,0)"/>
<path d="" fill="#FEFEFE" transform="translate(0,0)"/>
<path d="" fill="#F8F8F8" transform="translate(0,0)"/>
<path d="" fill="#010101" transform="translate(0,0)"/>
<path d="" fill="#F8F8F8" transform="translate(0,0)"/>
<path d="" fill="#FDFDFD" transform="translate(0,0)"/>
<path d="" fill="#010101" transform="translate(0,0)"/>
<path d="" fill="#FDFDFD" transform="translate(0,0)"/>
<path d="" fill="#FCFBFC" transform="translate(0,0)"/>
<path d="" fill="#010101" transform="translate(0,0)"/>
<path d="" fill="#000000" transform="translate(0,0)"/>
<path d="" fill="#FDFDFD" transform="translate(0,0)"/>
<path d="" fill="#FAFAFA" transform="translate(0,0)"/>
<path d="" fill="#010101" transform="translate(0,0)"/>
<path d="" fill="#000000" transform="translate(0,0)"/>
<path d="" fill="#000000" transform="translate(0,0)"/>
<path d="" fill="#FCFBFC" transform="translate(0,0)"/>
<path d="" fill="#FEFEFE" transform="translate(0,0)"/>
<path d="" fill="#000000" transform="translate(0,0)"/>
<path d="" fill="#000000" transform="translate(0,0)"/>
<path d="" fill="#000000" transform="translate(0,0)"/>
<path d="" fill="#000000" transform="translate(0,0)"/>
<path d="" fill="#F9F9F9" transform="translate(0,0)"/>
<path d="" fill="#000000" transform="translate(0,0)"/>
<path d="" fill="#F9F9F9" transform="translate(0,0)"/>
<path d="" fill="#FEFEFE" transform="translate(0,0)"/>
<path d="" fill="#FAFAFA" transform="translate(0,0)"/>
<path d="" fill="#FEFEFE" transform="translate(0,0)"/>
<path d="" fill="#000000" transform="translate(0,0)"/>
<path d="" fill="#000000" transform="translate(0,0)"/>
<path d="" fill="#000000" transform="translate(0,0)"/>
<path d="" fill="#FAFAFA" transform="translate(0,0)"/>
<path d="" fill="#000000" transform="translate(0,0)"/>
<path d="" fill="#000000" transform="translate(0,0)"/>
<path d="" fill="#FAFAFA" transform="translate(0,0)"/>
<path d="" fill="#F8F8F8" transform="translate(0,0)"/>
<path d="" fill="#000000" transform="translate(0,0)"/>
<path d="" fill="#000000" transform="translate(0,0)"/>
<path d="" fill="#FAFAFA" transform="translate(0,0)"/>
<path d="" fill="#F7F7F7" transform="translate(0,0)"/>
<path d="" fill="#000000" transform="translate(0,0)"/>
<path d="" fill="#000000" transform="translate(0,0)"/>
<path d="" fill="#FAFAFA" transform="translate(0,0)"/>
<path d="" fill="#F8F8F8" transform="translate(0,0)"/>
<path d="" fill="#000000" transform="translate(0,0)"/>
<path d="" fill="#000000" transform="translate(0,0)"/>
<path d="" fill="#FAFAFA" transform="translate(0,0)"/>
<path d="" fill="#F7F7F7" transform="translate(0,0)"/>
<path d="" fill="#000000" transform="translate(0,0)"/>
<path d="" fill="#000000" transform="translate(0,0)"/>
<path d="" fill="#FFFFFF" transform="translate(0,0)"/>
<path d="" fill="#FFFFFF" transform="translate(0,0)"/>
<path d="" fill="#000000" transform="translate(0,0)"/>
<path d="" fill="#000000" transform="translate(0,0)"/>
<path d="" fill="#F9F9F9" transform="translate(0,0)"/>
<path d="" fill="#F9F9F9" transform="translate(0,0)"/>
<path d="" fill="#000000" transform="translate(0,0)"/>
<path d="" fill="#FAFAFA" transform="translate(0,0)"/>
<path d="" fill="#F9F9F9" transform="translate(0,0)"/>
<path d="" fill="#000000" transform="translate(0,0)"/>
<path d="" fill="#F8F8F8" transform="translate(0,0)"/>
<path d="" fill="#000000" transform="translate(0,0)"/>
<path d="" fill="#000000" transform="translate(0,0)"/>
<path d="" fill="#FCFBFC" transform="translate(0,0)"/>
<path d="" fill="#F6F6F6" transform="translate(0,0)"/>
<path d="" fill="#000000" transform="translate(0,0)"/>
<path d="" fill="#000000" transform="translate(0,0)"/>
<path d="" fill="#ECECEC" transform="translate(0,0)"/>
<path d="" fill="#EAEAEA" transform="translate(0,0)"/>
<path d="" fill="#B9B9B9" transform="translate(0,0)"/>
<path d="" fill="#000000" transform="translate(0,0)"/>
<path d="" fill="#626262" transform="translate(0,0)"/>
<path d="" fill="#000000" transform="translate(0,0)"/>
<path d="" fill="#1A1A1A" transform="translate(0,0)"/>
<path d="" fill="#FFFFFF" transform="translate(0,0)"/>
<path d="" fill="#FFFFFF" transform="translate(0,0)"/>
<path d="" fill="#FFFFFF" transform="translate(0,0)"/>
<path d="" fill="#FFFFFF" transform="translate(0,0)"/>
<path d="" fill="#FFFFFF" transform="translate(0,0)"/>
<path d="" fill="#FFFFFF" transform="translate(0,0)"/>
<path d="" fill="#FFFFFF" transform="translate(0,0)"/>
<path d="" fill="#FFFFFF" transform="translate(0,0)"/>
<path d="" fill="#FFFFFF" transform="translate(0,0)"/>
<path d="" fill="#FFFFFF" transform="translate(0,0)"/>
<path d="" fill="#FFFFFF" transform="translate(0,0)"/>
<path d="" fill="#FEFEFE" transform="translate(0,0)"/>
<path d="" fill="#FFFFFF" transform="translate(0,0)"/>
<path d="" fill="#FEFEFE" transform="translate(0,0)"/>
<path d="" fill="#FEFEFE" transform="translate(0,0)"/>
<path d="" fill="#FEFEFE" transform="translate(0,0)"/>
<path d="" fill="#FEFEFE" transform="translate(0,0)"/>
<path d="" fill="#FEFEFE" transform="translate(0,0)"/>
<path d="" fill="#FEFEFE" transform="translate(0,0)"/>
<path d="" fill="#FEFEFE" transform="translate(0,0)"/>
<path d="" fill="#FEFEFE" transform="translate(0,0)"/>
<path d="" fill="#FEFEFE" transform="translate(0,0)"/>
<path d="" fill="#FEFEFE" transform="translate(0,0)"/>
<path d="" fill="#FEFEFE" transform="translate(0,0)"/>
<path d="" fill="#FEFEFE" transform="translate(0,0)"/>
<path d="" fill="#FFFFFF" transform="translate(0,0)"/>
<path d="" fill="#FEFEFE" transform="translate(0,0)"/>
<path d="" fill="#FEFEFE" transform="translate(0,0)"/>
<path d="" fill="#FFFFFF" transform="translate(0,0)"/>
<path d="" fill="#FFFFFF" transform="translate(0,0)"/>
<path d="" fill="#FEFEFE" transform="translate(0,0)"/>
<path d="" fill="#FFFFFF" transform="translate(0,0)"/>
<path d="" fill="#FFFFFF" transform="translate(0,0)"/>
<path d="" fill="#FEFEFE" transform="translate(0,0)"/>
<path d="" fill="#FFFFFF" transform="translate(0,0)"/>
<path d="" fill="#FEFEFE" transform="translate(0,0)"/>
<path d="" fill="#FFFFFF" transform="translate(0,0)"/>
<path d="" fill="#FFFFFF" transform="translate(0,0)"/>
<path d="" fill="#FFFFFF" transform="translate(0,0)"/>
<path d="" fill="#FFFFFF" transform="translate(0,0)"/>
<path d="" fill="#FFFFFF" transform="translate(0,0)"/>
<path d="" fill="#000000" transform="translate(0,0)"/>
<path d="" fill="#FFFFFF" transform="translate(0,0)"/>
<path d="" fill="#FFFFFF" transform="translate(0,0)"/>
<path d="" fill="#000000" transform="translate(0,0)"/>
<path d="" fill="#000000" transform="translate(0,0)"/>
<path d="" fill="#000000" transform="translate(0,0)"/>
<path d="" fill="#FFFFFF" transform="translate(0,0)"/>
<path d="" fill="#000000" transform="translate(0,0)"/>
<path d="" fill="#000000" transform="translate(0,0)"/>
<path d="" fill="#000000" transform="translate(0,0)"/>
<path d="" fill="#070707" transform="translate(0,0)"/>
<path d="" fill="#010101" transform="translate(0,0)"/>
<path d="" fill="#030303" transform="translate(0,0)"/>
<path d="" fill="#000000" transform="translate(0,0)"/>
<path d="" fill="#070707" transform="translate(0,0)"/>
<path d="" fill="#4D4D4D" transform="translate(0,0)"/>
<path d="" fill="#000000" transform="translate(0,0)"/>
<path d="" fill="#FFFFFF" transform="translate(0,0)"/>
<path d="" fill="#FEFEFE" transform="translate(0,0)"/>
<path d="" fill="#FFFFFF" transform="translate(0,0)"/>
<path d="" fill="#FFFFFF" transform="translate(0,0)"/>
<path d="" fill="#FFFFFF" transform="translate(0,0)"/>
<path d="" fill="#FFFFFF" transform="translate(0,0)"/>
<path d="" fill="#FFFFFF" transform="translate(0,0)"/>
<path d="" fill="#FFFFFF" transform="translate(0,0)"/>
<path d="" fill="#FFFFFF" transform="translate(0,0)"/>
<path d="" fill="#FFFFFF" transform="translate(0,0)"/>
<path d="" fill="#FFFFFF" transform="translate(0,0)"/>
<path d="" fill="#FFFFFF" transform="translate(0,0)"/>
<path d="" fill="#FFFFFF" transform="translate(0,0)"/>
<path d="" fill="#FFFFFF" transform="translate(0,0)"/>
<path d="" fill="#FFFFFF" transform="translate(0,0)"/>
<path d="" fill="#FFFFFF" transform="translate(0,0)"/>
</svg>
