<?xml version="1.0" encoding="UTF-8"?>
<svg version="1.1" xmlns="http://www.w3.org/2000/svg" width="500" height="500">
<path d="M0 0 C8.38038115 6.668389 19.5172478 16.55174341 23 27 C21.8125 28.796875 21.8125 28.796875 20 30.75 C19.35675781 31.44609375 18.71351563 32.1421875 18.05078125 32.859375 C17.37402344 33.56578125 16.69726562 34.2721875 16 35 C15.35417969 35.68578125 14.70835937 36.3715625 14.04296875 37.078125 C10.57513491 40.67007079 10.57513491 40.67007079 9 42 C8.34 42 7.68 42 7 42 C6.67 42.99 6.34 43.98 6 45 C3.4375 46.6875 3.4375 46.6875 1 48 C0.65855957 47.44127197 0.31711914 46.88254395 -0.03466797 46.30688477 C-12.62867247 25.53476852 -12.62867247 25.53476852 -33.46875 14.32421875 C-46.0870142 11.46174215 -57.41436733 12.89602516 -68.64453125 19.421875 C-73.04626606 22.37096433 -75.61235232 25.91195851 -77 31 C-77.65119323 36.22927894 -77.50968665 40.89356669 -74.50415039 45.44876099 C-68.54847818 51.59088025 -59.52614463 53.01421646 -51.4375 54.1328125 C-50.36556396 54.2961911 -49.29362793 54.4595697 -48.18920898 54.62789917 C-44.79497075 55.14293497 -41.39798649 55.63536126 -38 56.125 C-34.60265515 56.62517808 -31.20619764 57.13035055 -27.81079102 57.64352417 C-25.70834901 57.96021388 -23.60471105 58.26910369 -21.49975586 58.56863403 C-7.65008234 60.62605692 4.14268589 64.54941041 13 76 C19.92890852 88.42995086 22.34022139 100.7277658 18.4375 114.6875 C13.42570587 129.07676259 3.47856343 140.2676898 -9.859375 147.53515625 C-15.09161835 149.97556826 -20.40490417 151.61341959 -26 153 C-26.88042969 153.22558594 -27.76085937 153.45117188 -28.66796875 153.68359375 C-46.72332835 157.64430047 -65.69688125 154.59248977 -82 146 C-85.83003846 143.52381219 -89.44402694 140.85342519 -93 138 C-93.99 137.22527344 -94.98 136.45054687 -96 135.65234375 C-99.1995501 132.96775811 -101.64566898 129.90607732 -104.125 126.5625 C-104.54136719 126.01529297 -104.95773438 125.46808594 -105.38671875 124.90429688 C-106.2093367 123.81477937 -107.0224236 122.71799155 -107.82519531 121.61376953 C-108.98156614 120.02532165 -110.17419329 118.46347314 -111.3671875 116.90234375 C-113 114 -113 114 -113.1015625 111.4609375 C-111.57654777 108.0539897 -109.16455102 105.99154877 -106.375 103.625 C-105.28001576 102.66416515 -104.1862616 101.70192666 -103.09375 100.73828125 C-102.56265625 100.27373535 -102.0315625 99.80918945 -101.484375 99.33056641 C-98.9572393 97.06528852 -96.62961778 94.61404675 -94.3046875 92.14453125 C-93 91 -93 91 -91 91 C-90.5153125 91.88300781 -90.030625 92.76601563 -89.53125 93.67578125 C-81.66045556 107.85154643 -74.03444328 120.34078472 -58 126 C-46.91501641 128.82126839 -33.16846414 128.27080939 -23 123 C-17.27250125 119.26672936 -12.97050659 114.63814407 -11 108 C-10.22334302 103.31578759 -10.46798822 99.42722047 -12.6875 95.1875 C-16.20576059 90.33800567 -18.97478606 87.98355594 -24.90234375 86.91015625 C-26.91192624 86.61279076 -28.92389412 86.33127384 -30.9375 86.0625 C-33.17854265 85.73153166 -35.41942107 85.39944986 -37.66015625 85.06640625 C-38.84625488 84.89512207 -40.03235352 84.72383789 -41.25439453 84.54736328 C-47.80440983 83.59017815 -54.3400182 82.55368929 -60.875 81.5 C-62.11499756 81.31058838 -63.35499512 81.12117676 -64.63256836 80.92602539 C-75.93994333 79.10200853 -85.15678754 76.40644339 -94 69 C-94.886875 68.38125 -95.77375 67.7625 -96.6875 67.125 C-104.24088628 60.18405044 -107.15424844 50.03853242 -108.3515625 40.07421875 C-108.71487043 28.66304707 -105.380733 16.47818943 -98.02734375 7.625 C-71.98288262 -19.56780598 -30.03412231 -22.52559173 0 0 Z " fill="#ECEFF2" transform="translate(301,174)"/>
<path d="M0 0 C8.64526829 6.98008469 8.64526829 6.98008469 12.0234375 10.703125 C12.0234375 11.363125 12.0234375 12.023125 12.0234375 12.703125 C12.6834375 12.703125 13.3434375 12.703125 14.0234375 12.703125 C17.28658109 16.145638 20.13140822 19.94747988 23.0234375 23.703125 C24.15072266 25.14945313 24.15072266 25.14945313 25.30078125 26.625 C35.87957514 40.97795059 41.97106243 57.46243998 46.0234375 74.703125 C46.2296875 75.55003906 46.4359375 76.39695312 46.6484375 77.26953125 C47.127714 80.37983603 47.0234375 83.55611026 47.0234375 86.703125 C38.4434375 86.703125 29.8634375 86.703125 21.0234375 86.703125 C20.4665625 84.49625 19.9096875 82.289375 19.3359375 80.015625 C12.09463455 52.43544411 -2.42250718 29.75755756 -26.9765625 14.703125 C-50.31254722 1.49138657 -78.15275545 -2.6470631 -104.1640625 4.50390625 C-109.63543733 6.22492272 -114.82567123 8.17933587 -119.9765625 10.703125 C-120.89695312 11.14398438 -121.81734375 11.58484375 -122.765625 12.0390625 C-139.34024122 20.48978232 -153.17833644 34.43973743 -161.9765625 50.703125 C-162.59273437 51.80398437 -163.20890625 52.90484375 -163.84375 54.0390625 C-169.37160206 64.40675069 -172.67542382 75.19743161 -174.9765625 86.703125 C-183.5565625 86.703125 -192.1365625 86.703125 -200.9765625 86.703125 C-200.9765625 80.4801429 -200.85178521 75.5683561 -199.4140625 69.703125 C-199.23770264 68.97818848 -199.06134277 68.25325195 -198.87963867 67.50634766 C-190.6027908 35.34904258 -168.46616026 7.29892339 -140.09765625 -9.703125 C-95.66271158 -34.88624491 -40.47940046 -31.23607279 0 0 Z " fill="#F7F8F9" transform="translate(332.9765625,143.296875)"/>
<path d="M0 0 C1.5631897 0.07069702 1.5631897 0.07069702 3.15795898 0.14282227 C4.28266602 0.19116211 5.40737305 0.23950195 6.56616211 0.28930664 C8.34216797 0.37341797 8.34216797 0.37341797 10.15405273 0.45922852 C11.34192383 0.51143555 12.52979492 0.56364258 13.75366211 0.61743164 C16.69986339 0.74758511 19.64576549 0.88256492 22.59155273 1.02172852 C22.85967773 2.25665039 23.12780273 3.49157227 23.40405273 4.76391602 C28.98558025 29.34415152 39.96655404 53.49800827 61.59155273 68.02172852 C62.59959961 68.72168945 63.60764648 69.42165039 64.64624023 70.14282227 C78.73783812 79.72992996 92.88260336 84.90813957 109.59155273 88.02172852 C109.78780373 91.97967937 109.97207255 95.93809786 110.15405273 99.89672852 C110.23816406 101.58862305 110.23816406 101.58862305 110.32397461 103.31469727 C110.37231445 104.39106445 110.4206543 105.46743164 110.47045898 106.57641602 C110.54115601 108.06890869 110.54115601 108.06890869 110.61328125 109.59155273 C110.59155273 112.02172852 110.59155273 112.02172852 109.59155273 114.02172852 C104.02020785 114.18339701 99.01998113 113.7331348 93.59155273 112.39672852 C92.86315186 112.21996582 92.13475098 112.04320312 91.38427734 111.86108398 C80.613695 109.13332577 70.19089258 105.50556745 60.81420898 99.44750977 C58.62559033 98.04356283 56.3974001 96.84576915 54.09155273 95.64672852 C48.76316047 92.70209069 44.20804854 88.9678649 39.59155273 85.02172852 C38.66858398 84.23411133 37.74561523 83.44649414 36.79467773 82.63500977 C14.1595509 62.71984983 0.26974593 35.83672986 -3.40844727 6.02172852 C-3.52172852 3.23657227 -3.52172852 3.23657227 -3.40844727 1.02172852 C-2.40844727 0.02172852 -2.40844727 0.02172852 0 0 Z " fill="#DAE1E7" transform="translate(135.408447265625,256.978271484375)"/>
<path d="M0 0 C1.084021 0.00523682 2.16804199 0.01047363 3.28491211 0.01586914 C4.45473633 0.0190918 5.62456055 0.02231445 6.82983398 0.02563477 C8.0615332 0.03401367 9.29323242 0.04239258 10.56225586 0.05102539 C12.41560547 0.05779297 12.41560547 0.05779297 14.30639648 0.06469727 C17.37089703 0.07652931 20.43530307 0.09301366 23.49975586 0.11352539 C21.21785703 28.93258436 9.75682937 53.92696692 -10.17993164 74.67651367 C-11.36206978 75.96313813 -12.4451499 77.33915073 -13.51196289 78.72290039 C-17.37463374 83.3672119 -22.6277876 86.59587909 -27.50024414 90.11352539 C-28.30719727 90.72583008 -29.11415039 91.33813477 -29.94555664 91.96899414 C-46.45822253 104.19956192 -68.89477181 113.11352539 -89.50024414 113.11352539 C-89.50024414 104.53352539 -89.50024414 95.95352539 -89.50024414 87.11352539 C-86.96336914 86.55665039 -84.42649414 85.99977539 -81.81274414 85.42602539 C-55.54410091 79.33871451 -32.64321742 64.54318474 -17.63305664 41.81274414 C-10.69195777 30.21773709 -6.70793394 17.68110947 -4.19165039 4.48071289 C-3.30238645 0.14994724 -3.30238645 0.14994724 0 0 Z " fill="#748399" transform="translate(356.500244140625,257.886474609375)"/>
<path d="M0 0 C1.45582607 0.77555825 2.91425381 1.54624893 4.375 2.3125 C11.98207775 6.54310289 19.01857287 11.66672421 25 18 C26.2065625 18.8971875 26.2065625 18.8971875 27.4375 19.8125 C30.88126474 22.75229916 33.58682706 26.16877699 36 30 C36 30.66 36 31.32 36 32 C36.66 32 37.32 32 38 32 C49.36224714 47.48922426 56.62978034 65.8169247 58 85 C62.29 85 66.58 85 71 85 C71 83.02 71 81.04 71 79 C71.33 79 71.66 79 72 79 C72 81.31 72 83.62 72 86 C63.42 86 54.84 86 46 86 C45.443125 83.793125 44.88625 81.58625 44.3125 79.3125 C37.07119705 51.73231911 22.55405532 29.05443256 -2 14 C-25.33598472 0.78826157 -53.17619295 -3.3501881 -79.1875 3.80078125 C-84.65887483 5.52179772 -89.84910873 7.47621087 -95 10 C-95.92039062 10.44085938 -96.84078125 10.88171875 -97.7890625 11.3359375 C-114.36367872 19.78665732 -128.20177394 33.73661243 -137 50 C-137.61617187 51.10085937 -138.23234375 52.20171875 -138.8671875 53.3359375 C-144.39503956 63.70362569 -147.69886132 74.49430661 -150 86 C-158.58 86 -167.16 86 -176 86 C-176 83.69 -176 81.38 -176 79 C-175.67 79 -175.34 79 -175 79 C-175 80.98 -175 82.96 -175 85 C-168.4 85 -161.8 85 -155 85 C-156.06645115 83.70366379 -156.06645115 83.70366379 -158.5625 83.9375 C-159.366875 83.958125 -160.17125 83.97875 -161 84 C-161.33241046 74.85871241 -159.25878121 67.5053516 -156 59 C-155.46370375 57.57334469 -154.92854439 56.14626148 -154.39453125 54.71875 C-152.9296875 50.8125 -151.46484375 46.90625 -150 43 C-149.34 43 -148.68 43 -148 43 C-147.8865625 42.41476563 -147.773125 41.82953125 -147.65625 41.2265625 C-145.62342259 34.32946951 -138.88939166 28.54304112 -134.1484375 23.39453125 C-131.93344913 20.98753402 -131.93344913 20.98753402 -129.8515625 18.19921875 C-128.93503906 17.11060547 -128.93503906 17.11060547 -128 16 C-127.34 16 -126.68 16 -126 16 C-126 15.34 -126 14.68 -126 14 C-122.52736923 11.07815399 -118.73470223 8.57404289 -115 6 C-114.13632813 5.39414063 -113.27265625 4.78828125 -112.3828125 4.1640625 C-81.18578531 -16.79199528 -32.5229196 -20.5373815 0 0 Z M-155 81 C-154 83 -154 83 -154 83 Z " fill="#D9DEE6" transform="translate(308,144)"/>
<path d="M0 0 C8.58 0 17.16 0 26 0 C26 0.33 26 0.66 26 1 C22.04 1 18.08 1 14 1 C13.9071875 3.475 13.9071875 3.475 13.8125 6 C11.65096049 30.88691438 -3.58293928 55.72789816 -22 72 C-22.50837402 72.45181641 -23.01674805 72.90363281 -23.54052734 73.36914062 C-40.8532574 88.51579341 -62.04069549 97.94428762 -85 100 C-85 95.38 -85 90.76 -85 86 C-83.49373047 85.65388672 -83.49373047 85.65388672 -81.95703125 85.30078125 C-54.1765964 78.75375626 -30.21330629 65.05050414 -14.1328125 40.69921875 C-6.53321033 28.00419129 -2.76730132 14.41302769 0 0 Z " fill="#E3EAEF" transform="translate(353,259)"/>
<path d="M0 0 C2.31 0.66 4.62 1.32 7 2 C7 2.99 7 3.98 7 5 C7.66 5.66 8.32 6.32 9 7 C8.67 7.33 8.34 7.66 8 8 C9.0725 8.495 10.145 8.99 11.25 9.5 C11.85328125 9.7784375 12.4565625 10.056875 13.078125 10.34375 C15.29242836 11.21542924 15.29242836 11.21542924 19 11 C19.66 10.34 20.32 9.68 21 9 C23.48474333 9.22110795 24.66846183 9.66986333 26.44384766 11.43774414 C26.88776855 12.02676514 27.33168945 12.61578613 27.7890625 13.22265625 C30.90449812 17.04720949 34.28979217 19.70913767 38.375 22.4375 C39.0661792 22.90486572 39.7573584 23.37223145 40.46948242 23.85375977 C56.53964764 34.47696565 73.25896874 40.12396713 92 44 C92 39.71 92 35.42 92 31 C90.515 30.505 90.515 30.505 89 30 C90.32 30 91.64 30 93 30 C93.19625099 33.95795086 93.38051982 37.91636935 93.5625 41.875 C93.64661133 43.56689453 93.64661133 43.56689453 93.73242188 45.29296875 C93.78076172 46.36933594 93.82910156 47.44570313 93.87890625 48.5546875 C93.94960327 50.04718018 93.94960327 50.04718018 94.02172852 51.56982422 C94 54 94 54 93 56 C87.42865511 56.16166849 82.4284284 55.71140628 77 54.375 C76.27159912 54.1982373 75.54319824 54.02147461 74.79272461 53.83935547 C64.02214226 51.11159725 53.59933984 47.48383893 44.22265625 41.42578125 C42.0340376 40.02183431 39.80584737 38.82404063 37.5 37.625 C32.17160774 34.68036217 27.61649581 30.94613639 23 27 C22.07703125 26.21238281 21.1540625 25.42476563 20.203125 24.61328125 C12.0039617 17.39937652 5.06986005 9.71723177 0 0 Z " fill="#69778E" transform="translate(152,315)"/>
<path d="M0 0 C8.58 0 17.16 0 26 0 C24.30840037 18.60759595 19.73502892 41.28075978 7 56 C5.66666667 56.66666667 4.33333333 57.33333333 3 58 C3 58.99 3 59.98 3 61 C1.36368108 62.04892238 -0.30485863 63.04906703 -2 64 C-2.33 64.66 -2.66 65.32 -3 66 C-5 65 -7 64 -9 63 C-9.99 64.98 -10.98 66.96 -12 69 C-12.66 68.67 -13.32 68.34 -14 68 C-14 68.99 -14 69.98 -14 71 C-14.95700218 73.63175598 -15.6031314 74.75195713 -18 76.25 C-20 77 -20 77 -22 77 C-24.9574458 78.24021921 -26.79793899 79.70618645 -29 82 C-30.31963709 83.01800576 -31.65009646 84.02248365 -33 85 C-33.99 84.01 -34.98 83.02 -36 82 C-35.39414062 81.52691406 -34.78828125 81.05382812 -34.1640625 80.56640625 C-7.78565988 59.74775926 8.07792288 35.63419369 13 2 C8.71 1.67 4.42 1.34 0 1 C0 0.67 0 0.34 0 0 Z " fill="#B7C0CB" transform="translate(354,258)"/>
<path d="M0 0 C7.92 0 15.84 0 24 0 C24 0.99 24 1.98 24 3 C24.66 3 25.32 3 26 3 C26.268125 4.1859375 26.53625 5.371875 26.8125 6.59375 C30.11567 20.48899856 35.05130814 32.1016476 43 44 C45.87744147 49.47278084 47.68505198 54.97315491 49 61 C45.98968256 61.93423645 45.13349732 62.04449911 42 61 C41.67 61.99 41.34 62.98 41 64 C24.29741263 48.30969066 14.95352527 26.26458969 11 4 C11 3.01 11 2.02 11 1 C7.37 1 3.74 1 0 1 C0 0.67 0 0.34 0 0 Z " fill="#E8EDF1" transform="translate(133,259)"/>
<path d="M0 0 C0.495 1.485 0.495 1.485 1 3 C0.67 3.66 0.34 4.32 0 5 C0.66 5.33 1.32 5.66 2 6 C0.35 6.66 -1.3 7.32 -3 8 C-3 8.99 -3 9.98 -3 11 C-3.66 11 -4.32 11 -5 11 C-5 12.65 -5 14.3 -5 16 C-3.68 16.66 -2.36 17.32 -1 18 C-2.98 18.99 -2.98 18.99 -5 20 C-5 20.99 -5 21.98 -5 23 C-5.66 23 -6.32 23 -7 23 C-7.15432495 23.91362305 -7.15432495 23.91362305 -7.31176758 24.84570312 C-8.82489847 29.58208731 -14.99691133 32.07782275 -19.20703125 34.28125 C-32.69070408 40.90460328 -45.99803488 45.58527637 -61 47 C-61 42.38 -61 37.76 -61 33 C-59.49373047 32.65388672 -59.49373047 32.65388672 -57.95703125 32.30078125 C-34.88325134 26.86297531 -16.461267 17.28892847 0 0 Z " fill="#DAE3EB" transform="translate(329,312)"/>
<path d="M0 0 C1.5631897 0.07069702 1.5631897 0.07069702 3.15795898 0.14282227 C4.28266602 0.19116211 5.40737305 0.23950195 6.56616211 0.28930664 C8.34216797 0.37341797 8.34216797 0.37341797 10.15405273 0.45922852 C11.34192383 0.51143555 12.52979492 0.56364258 13.75366211 0.61743164 C16.69986339 0.74758511 19.64576549 0.88256492 22.59155273 1.02172852 C22.26155273 2.34172852 21.93155273 3.66172852 21.59155273 5.02172852 C21.59155273 4.03172852 21.59155273 3.04172852 21.59155273 2.02172852 C15.15655273 2.51672852 15.15655273 2.51672852 8.59155273 3.02172852 C13.81982288 25.80865813 21.02070496 48.51578061 38.59155273 65.02172852 C38.92155273 65.68172852 39.25155273 66.34172852 39.59155273 67.02172852 C37.61155273 68.67172852 35.63155273 70.32172852 33.59155273 72.02172852 C33.59155273 71.03172852 33.59155273 70.04172852 33.59155273 69.02172852 C32.60155273 69.35172852 31.61155273 69.68172852 30.59155273 70.02172852 C27.38308358 68.77762823 25.18614119 67.84898201 23.15405273 65.02172852 C22.59155273 63.02172852 22.59155273 63.02172852 23.59155273 60.02172852 C22.86967773 59.95985352 22.14780273 59.89797852 21.40405273 59.83422852 C14.79269013 57.92427932 10.79025025 50.76484451 7.59155273 45.02172852 C1.46439743 31.71152463 -4.16809535 15.87415831 -3.40844727 1.02172852 C-2.40844727 0.02172852 -2.40844727 0.02172852 0 0 Z " fill="#A2AEBC" transform="translate(135.408447265625,256.978271484375)"/>
<path d="M0 0 C2.31 0.66 4.62 1.32 7 2 C7 2.99 7 3.98 7 5 C7.66 5.66 8.32 6.32 9 7 C8.67 7.33 8.34 7.66 8 8 C9.0725 8.495 10.145 8.99 11.25 9.5 C11.85328125 9.7784375 12.4565625 10.056875 13.078125 10.34375 C15.29242836 11.21542924 15.29242836 11.21542924 19 11 C19.66 10.34 20.32 9.68 21 9 C23.4733374 9.22130837 24.65893924 9.65670701 26.41748047 11.42675781 C26.85463379 12.01295898 27.29178711 12.59916016 27.7421875 13.203125 C31.03515399 17.25568841 34.77514311 19.91734737 39.125 22.75 C40.52383225 23.68169928 41.92228171 24.61397355 43.3203125 25.546875 C43.96258789 25.97162109 44.60486328 26.39636719 45.26660156 26.83398438 C47.23124659 28.15555404 49.13053227 29.54704581 51 31 C50.42177625 34.90301031 48.89323061 37.33518233 46 40 C38.64728096 40.75027745 33.44991654 35.33047422 28 31 C27.08734375 30.30390625 26.1746875 29.6078125 25.234375 28.890625 C14.91249094 20.81006434 6.12709233 11.68542504 0 0 Z " fill="#79889D" transform="translate(152,315)"/>
<path d="M0 0 C1 5.75 1 5.75 1 8 C2.65 8 4.3 8 6 8 C3.59043227 13.96654868 1.91013367 18.04493317 -4 21 C-4 21.99 -4 22.98 -4 24 C-5.63631892 25.04892238 -7.30485863 26.04906703 -9 27 C-9.33 27.66 -9.66 28.32 -10 29 C-12 28 -14 27 -16 26 C-16.99 27.98 -17.98 29.96 -19 32 C-19.66 31.67 -20.32 31.34 -21 31 C-21 31.99 -21 32.98 -21 34 C-21.95700218 36.63175598 -22.6031314 37.75195713 -25 39.25 C-27 40 -27 40 -29 40 C-31.9574458 41.24021921 -33.79793899 42.70618645 -36 45 C-37.31963709 46.01800576 -38.65009646 47.02248365 -40 48 C-40.99 47.01 -41.98 46.02 -43 45 C-42.39414062 44.52691406 -41.78828125 44.05382812 -41.1640625 43.56640625 C-27.02373565 32.40642521 -13.76365253 20.21795971 -5.890625 3.66796875 C-4.528757 1.11745281 -2.89984078 0 0 0 Z " fill="#9AA8B8" transform="translate(361,295)"/>
<path d="M0 0 C1.5631897 0.07069702 1.5631897 0.07069702 3.15795898 0.14282227 C4.28266602 0.19116211 5.40737305 0.23950195 6.56616211 0.28930664 C8.34216797 0.37341797 8.34216797 0.37341797 10.15405273 0.45922852 C11.34192383 0.51143555 12.52979492 0.56364258 13.75366211 0.61743164 C16.69986339 0.74758511 19.64576549 0.88256492 22.59155273 1.02172852 C22.26155273 2.34172852 21.93155273 3.66172852 21.59155273 5.02172852 C21.59155273 4.03172852 21.59155273 3.04172852 21.59155273 2.02172852 C15.15655273 2.51672852 15.15655273 2.51672852 8.59155273 3.02172852 C9.38173542 6.20960293 10.17365088 9.39703034 10.96655273 12.58422852 C11.18827148 13.47948242 11.40999023 14.37473633 11.63842773 15.29711914 C12.86821748 20.23436329 14.15837443 25.13954634 15.59155273 30.02172852 C14.60155273 30.35172852 13.61155273 30.68172852 12.59155273 31.02172852 C12.26155273 29.70172852 11.93155273 28.38172852 11.59155273 27.02172852 C9.42281022 27.52776844 7.59187647 28.02156665 5.59155273 29.02172852 C3.09155273 28.08422852 3.09155273 28.08422852 0.59155273 26.02172852 C-0.37000391 23.23827506 -0.93700667 20.89614301 -1.40844727 18.02172852 C-1.5927832 17.02657227 -1.77711914 16.03141602 -1.96704102 15.00610352 C-3.65109432 5.57540499 -3.65109432 5.57540499 -3.40844727 1.02172852 C-2.40844727 0.02172852 -2.40844727 0.02172852 0 0 Z " fill="#B7C0CC" transform="translate(135.408447265625,256.978271484375)"/>
<path d="M0 0 C0.495 0.99 0.495 0.99 1 2 C1.66 2.33 2.32 2.66 3 3 C-1.13153818 8.86140986 -5.75404461 14.13558384 -10.6328125 19.38671875 C-13.00267005 21.93366981 -13.00267005 21.93366981 -14.97265625 24.55859375 C-18.68366345 29.02753306 -24.30557082 34.53026158 -30.2734375 35.2890625 C-32.1875 35 -32.1875 35 -35 34 C-35 31.66666667 -35 29.33333333 -35 27 C-34.01 27 -33.02 27 -32 27 C-30.9739266 25.68662604 -29.97272675 24.35335895 -29 23 C-28.34 23 -27.68 23 -27 23 C-26.01 22.34 -25.02 21.68 -24 21 C-23.34 21 -22.68 21 -22 21 C-20.62689293 19.70766393 -19.28965176 18.37562854 -18 17 C-18.66 16.67 -19.32 16.34 -20 16 C-19.34 15.01 -18.68 14.02 -18 13 C-17.34 13 -16.68 13 -16 13 C-15.34 11.35 -14.68 9.7 -14 8 C-12.5459375 8.495 -12.5459375 8.495 -11.0625 9 C-8.37850426 10.05173363 -8.37850426 10.05173363 -7 10 C-6.360625 9.505 -5.72125 9.01 -5.0625 8.5 C-3 7 -3 7 -1 7 C-0.67 4.69 -0.34 2.38 0 0 Z M-10 12 C-9 14 -9 14 -9 14 Z " fill="#8090A3" transform="translate(358,312)"/>
<path d="M0 0 C0.33 0 0.66 0 1 0 C1 4.62 1 9.24 1 14 C2.18078125 13.69964844 3.3615625 13.39929688 4.578125 13.08984375 C6.13529623 12.70524122 7.69259468 12.32115351 9.25 11.9375 C10.02730469 11.73833984 10.80460937 11.53917969 11.60546875 11.33398438 C12.35957031 11.15029297 13.11367188 10.96660156 13.890625 10.77734375 C14.92751465 10.51812134 14.92751465 10.51812134 15.98535156 10.25366211 C18.25070809 9.96843363 19.8368312 10.31923805 22 11 C22 11.66 22 12.32 22 13 C21.34 13 20.68 13 20 13 C20.33 14.98 20.66 16.96 21 19 C22.98 19.33 24.96 19.66 27 20 C23.41319941 22.3912004 19.88427804 23.17093584 15.75 24.125 C15.01136719 24.30675781 14.27273438 24.48851562 13.51171875 24.67578125 C12.78082031 24.84722656 12.04992187 25.01867187 11.296875 25.1953125 C10.64041992 25.35016113 9.98396484 25.50500977 9.30761719 25.66455078 C6.23535457 26.11115349 3.10455336 26 0 26 C0 17.42 0 8.84 0 0 Z " fill="#667288" transform="translate(267,345)"/>
<path d="M0 0 C2.5 2.3125 2.5 2.3125 5 5 C5 8.60800902 4.62364368 11.75271264 3 15 C4.32 15 5.64 15 7 15 C7.33 14.34 7.66 13.68 8 13 C8.66 15.31 9.32 17.62 10 20 C0.96878828 16.74750067 -6.00703479 9.36475557 -13 3 C-12.34 2.67 -11.68 2.34 -11 2 C-10.34 2.33 -9.68 2.66 -9 3 C-9 2.34 -9 1.68 -9 1 C-7.02 1.66 -5.04 2.32 -3 3 C-2.01 2.01 -1.02 1.02 0 0 Z " fill="#728096" transform="translate(179,331)"/>
<path d="M0 0 C2.31 0.66 4.62 1.32 7 2 C7 2.99 7 3.98 7 5 C7.66 5.66 8.32 6.32 9 7 C8.67 7.33 8.34 7.66 8 8 C9.0725 8.495 10.145 8.99 11.25 9.5 C11.85328125 9.7784375 12.4565625 10.056875 13.078125 10.34375 C16.07253148 11.36623026 18.37797731 11.27645453 21.25 10 C21.8275 9.67 22.405 9.34 23 9 C23 9.99 23 10.98 23 12 C24.31337396 13.0260734 25.64664105 14.02727325 27 15 C27 15.66 27 16.32 27 17 C26.34 17 25.68 17 25 17 C24.67 17.99 24.34 18.98 24 20 C22.02 19.01 20.04 18.02 18 17 C18 17.66 18 18.32 18 19 C13.14786703 17.74895147 10.89006249 16.29799758 7.875 12.3125 C7.20210937 11.42433594 6.52921875 10.53617187 5.8359375 9.62109375 C3.65088549 6.50158332 1.76095256 3.37515907 0 0 Z " fill="#7F8EA2" transform="translate(152,315)"/>
<path d="M0 0 C3.26412358 3.17345348 6.18129234 6.42963696 9 10 C9.98230498 11.0173873 10.97469597 12.02596117 12 13 C10.02 14.65 8.04 16.3 6 18 C6 17.01 6 16.02 6 15 C5.01 15.33 4.02 15.66 3 16 C-0.16206572 14.77389289 -2.38584128 13.86540547 -4.375 11.0625 C-5 9 -5 9 -5 5 C-3.35 4.34 -1.7 3.68 0 3 C0 2.01 0 1.02 0 0 Z " fill="#8D9BB0" transform="translate(163,311)"/>
<path d="M0 0 C-0.33 1.65 -0.66 3.3 -1 5 C-1.66 4.67 -2.32 4.34 -3 4 C-3 4.99 -3 5.98 -3 7 C-3.95700218 9.63175598 -4.6031314 10.75195713 -7 12.25 C-9 13 -9 13 -11 13 C-13.9574458 14.24021921 -15.79793899 15.70618645 -18 18 C-19.31963709 19.01800576 -20.65009646 20.02248365 -22 21 C-22.99 20.01 -23.98 19.02 -25 18 C-24.39414062 17.52691406 -23.78828125 17.05382812 -23.1640625 16.56640625 C-17.60540505 12.17934275 -12.29980432 7.62405445 -7.12890625 2.78515625 C-4.77871151 0.8144425 -3.09438066 0 0 0 Z " fill="#8F9EAE" transform="translate(343,322)"/>
<path d="M0 0 C2 3 2 3 1.6875 6.625 C1 10 1 10 0 11 C-3.58545144 11.39838349 -5.3980349 11.40131007 -8.4375 9.375 C-10 7 -10 7 -10 3.875 C-9 1 -9 1 -7.25 -0.4375 C-4.42995959 -1.1425101 -2.74469429 -0.93897436 0 0 Z " fill="#EAECEF" transform="translate(260,204)"/>
<path d="M0 0 C2.27413905 2.11730187 2.91522114 3.50343812 3.4375 6.5625 C3 9 3 9 1.3125 10.875 C-1 12 -1 12 -3.5625 11.875 C-6.24319828 10.91269805 -7.49253317 10.42869656 -9 8 C-8.875 4.9375 -8.875 4.9375 -8 2 C-4.77856724 -0.14762184 -3.7404533 -0.561068 0 0 Z " fill="#E5E7ED" transform="translate(259,274)"/>
<path d="M0 0 C0.33 0.99 0.66 1.98 1 3 C0.67 3.66 0.34 4.32 0 5 C0.66 5.33 1.32 5.66 2 6 C0.35 6.66 -1.3 7.32 -3 8 C-3 8.99 -3 9.98 -3 11 C-3.66 11 -4.32 11 -5 11 C-5 11.99 -5 12.98 -5 14 C-5.7425 13.938125 -6.485 13.87625 -7.25 13.8125 C-10.54173479 14.03693646 -11.54801558 14.86440067 -14 17 C-16.45198442 19.13559933 -17.45826521 19.96306354 -20.75 20.1875 C-21.86375 20.0946875 -21.86375 20.0946875 -23 20 C-20.54716439 18.03076075 -18.0899536 16.06984978 -15.60546875 14.140625 C-10.0088946 9.76462841 -4.89845558 5.14474664 0 0 Z " fill="#CDD2DB" transform="translate(329,312)"/>
<path d="M0 0 C0.61875 0.66 1.2375 1.32 1.875 2 C7.59517314 7.72017314 14.16838318 12.68529464 21 17 C19.02 17.99 19.02 17.99 17 19 C16.34 18.34 15.68 17.68 15 17 C12.39719432 17.32041397 12.39719432 17.32041397 10 18 C9.79375 17.34 9.5875 16.68 9.375 16 C6.92797963 10.66104647 3.22537994 6.06140997 -1 2 C-0.67 1.34 -0.34 0.68 0 0 Z " fill="#8A98A9" transform="translate(175,324)"/>
<path d="M0 0 C0 3 0 3 -1.4609375 4.82421875 C-2.09257812 5.43910156 -2.72421875 6.05398438 -3.375 6.6875 C-4.00148437 7.31011719 -4.62796875 7.93273437 -5.2734375 8.57421875 C-7 10 -7 10 -9 10 C-9.66 11.32 -10.32 12.64 -11 14 C-10.01 14 -9.02 14 -8 14 C-6.3125 15.3125 -6.3125 15.3125 -5 17 C-5 17.99 -5 18.98 -5 20 C-4.34 20.66 -3.68 21.32 -3 22 C-4.32 22.99 -5.64 23.98 -7 25 C-8.03902033 23.61765122 -9.05563446 22.21844209 -10.0625 20.8125 C-10.63097656 20.03519531 -11.19945312 19.25789063 -11.78515625 18.45703125 C-13 16 -13 16 -13.0625 13.5625 C-11.54154439 9.89431294 -8.88806493 7.71318358 -5.9375 5.1875 C-5.36966797 4.68541016 -4.80183594 4.18332031 -4.21679688 3.66601562 C-2.82020396 2.43372776 -1.4112768 1.21544352 0 0 Z " fill="#D4D9E1" transform="translate(201,272)"/>
<path d="M0 0 C3.26412358 3.17345348 6.18129234 6.42963696 9 10 C9.98230498 11.0173873 10.97469597 12.02596117 12 13 C8.16774573 13.08912219 4.73437848 12.87867729 1 12 C0.22596442 7.93631321 -0.0984702 4.13574827 0 0 Z " fill="#94A0B4" transform="translate(163,311)"/>
<path d="M0 0 C0 3 0 3 -1.74414062 5.0847168 C-2.54013672 5.86500244 -3.33613281 6.64528809 -4.15625 7.44921875 C-5.01347656 8.29677734 -5.87070313 9.14433594 -6.75390625 10.01757812 C-7.66011719 10.89865234 -8.56632813 11.77972656 -9.5 12.6875 C-10.40621094 13.58017578 -11.31242188 14.47285156 -12.24609375 15.39257812 C-14.49085168 17.60189251 -16.74229998 19.80392533 -19 22 C-19.33 21.34 -19.66 20.68 -20 20 C-13.80204214 12.74707059 -7.44008593 5.98836185 0 0 Z " fill="#CFD5DC" transform="translate(178,144)"/>
<path d="M0 0 C2.1519437 3.22791555 2.20086443 4.28400809 2 8 C0.5 6.6875 0.5 6.6875 -1 5 C-1 4.01 -1 3.02 -1 2 C-2.65 2.33 -4.3 2.66 -6 3 C-6 3.99 -6 4.98 -6 6 C-6.66 6 -7.32 6 -8 6 C-7.67 7.32 -7.34 8.64 -7 10 C-8.5625 8.875 -8.5625 8.875 -10 7 C-9.9375 3.9375 -9.9375 3.9375 -9 1 C-5.99472217 -1.46862107 -3.58197907 -1.22541389 0 0 Z " fill="#B9BBC3" transform="translate(260,204)"/>
<path d="M0 0 C1.98 0 3.96 0 6 0 C2.38748484 4.56048012 -0.98797445 8.01665146 -6 11 C-6.33 9.35 -6.66 7.7 -7 6 C-5 5 -3 4 -1 3 C-0.67 2.01 -0.34 1.02 0 0 Z " fill="#B3B8C4" transform="translate(302,307)"/>
<path d="M0 0 C1.9375 0.75 1.9375 0.75 4 2 C4.75 4.125 4.75 4.125 5 6 C5.99 5.34 6.98 4.68 8 4 C9.32 4.66 10.64 5.32 12 6 C11.34 6.66 10.68 7.32 10 8 C9.30062468 9.31647119 8.63270867 10.65022151 8 12 C7.67 12.66 7.34 13.32 7 14 C6.0106909 12.61133677 5.03396922 11.21370149 4.0625 9.8125 C3.51722656 9.03519531 2.97195312 8.25789063 2.41015625 7.45703125 C0.9543711 4.92049701 0.40386565 2.8781818 0 0 Z " fill="#818D9E" transform="translate(142,297)"/>
<path d="M0 0 C0.33 0.66 0.66 1.32 1 2 C1.66 2.33 2.32 2.66 3 3 C-0.53613714 7.78775956 -4.14483704 12.46451416 -8 17 C-8.66 16.01 -9.32 15.02 -10 14 C-9.67 13.34 -9.34 12.68 -9 12 C-8.34 12 -7.68 12 -7 12 C-6.62875 11.0409375 -6.62875 11.0409375 -6.25 10.0625 C-5 8 -5 8 -2.875 7.25 C-2.25625 7.1675 -1.6375 7.085 -1 7 C-0.67 4.69 -0.34 2.38 0 0 Z " fill="#6A758A" transform="translate(358,312)"/>
<path d="M0 0 C8.25 0 16.5 0 25 0 C25 0.33 25 0.66 25 1 C21.04 1 17.08 1 13 1 C12.67 3.97 12.34 6.94 12 10 C11.67 10 11.34 10 11 10 C11.33 7.03 11.66 4.06 12 1 C5.61100772 1.35491111 5.61100772 1.35491111 0 4 C0 2.68 0 1.36 0 0 Z " fill="#F6FBFE" transform="translate(354,259)"/>
<path d="M0 0 C0.78375 0.185625 1.5675 0.37125 2.375 0.5625 C4.97089775 1.25962266 4.97089775 1.25962266 7 0 C7.625 2.3125 7.625 2.3125 8 5 C7.01 6.485 7.01 6.485 6 8 C5.67 7.34 5.34 6.68 5 6 C2.6859378 5.26924352 0.35171131 4.59861742 -2 4 C-1.34 2.68 -0.68 1.36 0 0 Z " fill="#E1E5ED" transform="translate(328,170)"/>
<path d="M0 0 C2.31 0.66 4.62 1.32 7 2 C7 2.99 7 3.98 7 5 C7.66 5.66 8.32 6.32 9 7 C8.67 7.33 8.34 7.66 8 8 C8.99 8.99 9.98 9.98 11 11 C10.34 11.66 9.68 12.32 9 13 C7.87064804 11.58680023 6.74669374 10.16928595 5.625 8.75 C4.99851563 7.96109375 4.37203125 7.1721875 3.7265625 6.359375 C2.21089263 4.28818811 1.05780366 2.32930503 0 0 Z " fill="#697388" transform="translate(152,315)"/>
<path d="M0 0 C0.66 0.33 1.32 0.66 2 1 C1.05125 1.7425 0.1025 2.485 -0.875 3.25 C-3.32532401 5.27845219 -4.87325363 6.9577848 -6 10 C-6.66 10 -7.32 10 -8 10 C-8 10.66 -8 11.32 -8 12 C-11.46153846 15 -11.46153846 15 -14 15 C-11.16037299 8.62133045 -5.4725275 4.14585416 0 0 Z " fill="#C2C6CF" transform="translate(215,171)"/>
<path d="M0 0 C0.66 0.33 1.32 0.66 2 1 C0.625 3 0.625 3 -1 5 C-1.66 5 -2.32 5 -3 5 C-3 5.66 -3 6.32 -3 7 C-3.66 7 -4.32 7 -5 7 C-5 7.66 -5 8.32 -5 9 C-6.65 8.67 -8.3 8.34 -10 8 C-8.7820245 4.34607349 -7.85603494 4.04168301 -4.5625 2.25 C-3.75941406 1.80140625 -2.95632813 1.3528125 -2.12890625 0.890625 C-1.07509766 0.44976562 -1.07509766 0.44976562 0 0 Z " fill="#C0C5CD" transform="translate(304,332)"/>
<path d="M0 0 C0 3 0 3 -1.4609375 4.82421875 C-2.09257812 5.43910156 -2.72421875 6.05398438 -3.375 6.6875 C-4.00148437 7.31011719 -4.62796875 7.93273437 -5.2734375 8.57421875 C-7 10 -7 10 -9 10 C-10.61949011 12.57213134 -11.04408751 13.67669159 -10.625 16.75 C-10.315625 17.86375 -10.315625 17.86375 -10 19 C-11.5625 17.8125 -11.5625 17.8125 -13 16 C-12.94653232 12.15032705 -11.95149351 10.94843141 -9.27734375 8.10546875 C-8.17425128 7.12127247 -7.06056467 6.14884336 -5.9375 5.1875 C-5.36966797 4.68541016 -4.80183594 4.18332031 -4.21679688 3.66601562 C-2.82020396 2.43372776 -1.4112768 1.21544352 0 0 Z " fill="#A8AFBA" transform="translate(201,272)"/>
<path d="M0 0 C7.26 0 14.52 0 22 0 C18.5647952 2.29013653 17.014669 2.17842973 13 2 C13 3.65 13 5.3 13 7 C11 4 11 4 11 1 C7.37 1 3.74 1 0 1 C0 0.67 0 0.34 0 0 Z " fill="#F7FBFC" transform="translate(133,259)"/>
<path d="M0 0 C-0.33 0.99 -0.66 1.98 -1 3 C-2.33333333 3.66666667 -3.66666667 4.33333333 -5 5 C-6.73425773 7.03317007 -6.73425773 7.03317007 -8 9 C-8.75 6.75 -8.75 6.75 -9 4 C-6.38963955 0.28525628 -4.46747375 -0.49638597 0 0 Z " fill="#B2B4BE" transform="translate(259,274)"/>
<path d="M0 0 C0.66 0 1.32 0 2 0 C2 0.99 2 1.98 2 3 C4.97 3.495 4.97 3.495 8 4 C5.09907498 5.93395001 4.10325263 6.30131941 0.8125 6.625 C-0.445625 6.74875 -1.70375 6.8725 -3 7 C-2.01 4.69 -1.02 2.38 0 0 Z " fill="#545F75" transform="translate(286,361)"/>
<path d="M0 0 C0.33 0.66 0.66 1.32 1 2 C1.66 2.33 2.32 2.66 3 3 C-1.455 5.97 -1.455 5.97 -6 9 C-6 4 -6 4 -4.6875 2.25 C-3 1 -3 1 0 0 Z " fill="#6A778D" transform="translate(326,345)"/>
<path d="M0 0 C0.99 0 1.98 0 3 0 C2.74225629 1.41910652 2.46816835 2.83524899 2.1875 4.25 C2.03667969 5.03890625 1.88585937 5.8278125 1.73046875 6.640625 C0.91980019 9.25904109 -0.25121897 10.91104512 -2 13 C-2.05391993 11.20866022 -2.09275571 9.41686101 -2.125 7.625 C-2.14820313 6.62726563 -2.17140625 5.62953125 -2.1953125 4.6015625 C-2 2 -2 2 0 0 Z " fill="#8B94A1" transform="translate(371,285)"/>
<path d="M0 0 C1.32 0.66 2.64 1.32 4 2 C3.67 2.99 3.34 3.98 3 5 C3.66 5 4.32 5 5 5 C4.67 6.98 4.34 8.96 4 11 C-0.875 6.25 -0.875 6.25 -2 4 C-1.34 3.34 -0.68 2.68 0 2 C0 1.34 0 0.68 0 0 Z " fill="#C5CBD7" transform="translate(200,297)"/>
<path d="M0 0 C-0.375 1.9375 -0.375 1.9375 -1 4 C-1.99 4.495 -1.99 4.495 -3 5 C-3.99 5.66 -4.98 6.32 -6 7 C-6.99 6.01 -7.98 5.02 -9 4 C-4.5 0 -4.5 0 0 0 Z " fill="#8B9AAA" transform="translate(327,336)"/>
<path d="M0 0 C2.97 0 5.94 0 9 0 C9 0.66 9 1.32 9 2 C9.66 2.66 10.32 3.32 11 4 C10.67 4.66 10.34 5.32 10 6 C6.40992874 4.66654496 3.20429093 3.1056769 0 1 C0 0.67 0 0.34 0 0 Z " fill="#AFB5C3" transform="translate(213,315)"/>
<path d="M0 0 C0.66 0 1.32 0 2 0 C3.00508801 1.78881736 4.00392736 3.58114696 5 5.375 C5.8353125 6.87160156 5.8353125 6.87160156 6.6875 8.3984375 C8 11 8 11 8 13 C5.54896452 12.01958581 4.23241214 11.3486182 2.75 9.125 C2 7 2 7 2 3 C1.34 3 0.68 3 0 3 C0 2.01 0 1.02 0 0 Z " fill="#CBCED5" transform="translate(165,288)"/>
<path d="M0 0 C0.66 0.66 1.32 1.32 2 2 C1 5 1 5 -1 6 C-1.99 7.485 -1.99 7.485 -3 9 C-3.66 8.01 -4.32 7.02 -5 6 C-5.66 7.32 -6.32 8.64 -7 10 C-7.66 9.67 -8.32 9.34 -9 9 C-6 6 -3 3 0 0 Z " fill="#F0F8FC" transform="translate(198,277)"/>
<path d="M0 0 C0.66 0.33 1.32 0.66 2 1 C-0.21928194 3.90802461 -1.92969143 5.95312762 -5 8 C-7.6875 8.125 -7.6875 8.125 -10 8 C-6.66666667 5.33333333 -3.33333333 2.66666667 0 0 Z " fill="#BDC1CE" transform="translate(316,324)"/>
<path d="M0 0 C6 7.4 6 7.4 6 11 C1.93459004 9.64486335 1.02699731 7.69203082 -1 4 C-0.75 1.625 -0.75 1.625 0 0 Z " fill="#C7CAD1" transform="translate(213,272)"/>
<path d="M0 0 C1.10844919 3.32534757 0.84454356 5.62182575 0 9 C-0.66 9 -1.32 9 -2 9 C-2 10.65 -2 12.3 -2 14 C-2.99 14.33 -3.98 14.66 -5 15 C-3.33333333 10 -1.66666667 5 0 0 Z " fill="#9DA5B0" transform="translate(350,274)"/>
<path d="M0 0 C-1.37154504 2.95409701 -2.98863724 5.44008376 -5 8 C-4.979375 7.236875 -4.95875 6.47375 -4.9375 5.6875 C-4.87057159 2.89814214 -4.87057159 2.89814214 -6 0 C-3.50907189 -1.24546405 -2.58919267 -0.7767578 0 0 Z " fill="#BAC1CD" transform="translate(175,186)"/>
<path d="M0 0 C0.33 0.99 0.66 1.98 1 3 C0.2884375 3.61875 0.2884375 3.61875 -0.4375 4.25 C-2.16266518 6.182185 -2.56584875 7.48192275 -3 10 C-4.32 10.33 -5.64 10.66 -7 11 C-5.5140084 6.40693504 -3.14985318 3.56430755 0 0 Z " fill="#CED6DC" transform="translate(157,166)"/>
<path d="M0 0 C3.7910119 1.44950455 7.3874638 3.15172566 11 5 C11 5.33 11 5.66 11 6 C3.25531915 5.25531915 3.25531915 5.25531915 0 2 C0 1.34 0 0.68 0 0 Z " fill="#BDC0C7" transform="translate(204,331)"/>
<path d="M0 0 C-1.32 0.33 -2.64 0.66 -4 1 C-4 1.66 -4 2.32 -4 3 C-6.25 4.1875 -6.25 4.1875 -9 5 C-11.171875 3.55078125 -11.171875 3.55078125 -13 2 C-11.21089097 1.47044766 -9.41860852 0.9516063 -7.625 0.4375 C-6.62726563 0.14746094 -5.62953125 -0.14257812 -4.6015625 -0.44140625 C-2 -1 -2 -1 0 0 Z " fill="#9FA5B2" transform="translate(289,341)"/>
<path d="M0 0 C0.33 0.66 0.66 1.32 1 2 C0.67 2.66 0.34 3.32 0 4 C0.66 4.33 1.32 4.66 2 5 C1.67 5.99 1.34 6.98 1 8 C-0.98 7.34 -2.96 6.68 -5 6 C-3.35 4.02 -1.7 2.04 0 0 Z " fill="#BEC1CA" transform="translate(287,289)"/>
<path d="M0 0 C3.23490776 0.55774272 4.97855006 1.37211508 7 4 C7 4.99 7 5.98 7 7 C5 7 5 7 2.375 4.625 C0 2 0 2 0 0 Z " fill="#E8ECF2" transform="translate(183,316)"/>
<path d="M0 0 C0.99 0.33 1.98 0.66 3 1 C2.01 2.98 1.02 4.96 0 7 C-0.99 5.68 -1.98 4.36 -3 3 C-2.01 2.01 -1.02 1.02 0 0 Z " fill="#7A8595" transform="translate(364,303)"/>
<path d="M0 0 C0.66 0 1.32 0 2 0 C2.1875 2.375 2.1875 2.375 2 5 C1.01 5.66 0.02 6.32 -1 7 C-1.625 4.625 -1.625 4.625 -2 2 C-1.34 1.34 -0.68 0.68 0 0 Z " fill="#C8CED8" transform="translate(297,311)"/>
<path d="M0 0 C0.33 0 0.66 0 1 0 C1.25 2.3125 1.25 2.3125 1 5 C-0.8125 6.875 -0.8125 6.875 -3 8 C-3.99 7.67 -4.98 7.34 -6 7 C-5.34 7 -4.68 7 -4 7 C-4 6.01 -4 5.02 -4 4 C-3.01 3.67 -2.02 3.34 -1 3 C-0.67 2.01 -0.34 1.02 0 0 Z " fill="#A5A8B6" transform="translate(261,278)"/>
<path d="M0 0 C0.66 0 1.32 0 2 0 C1.979375 0.78375 1.95875 1.5675 1.9375 2.375 C1.81315937 4.98114961 1.81315937 4.98114961 3 7 C-0.36720387 5.60667426 -1.9859524 4.0210714 -4 1 C-2.68 1.33 -1.36 1.66 0 2 C0 1.34 0 0.68 0 0 Z " fill="#464F68" transform="translate(170,332)"/>
<path d="M0 0 C1.65 0.33 3.3 0.66 5 1 C2.82575883 3.50037734 1.26954202 4.43628586 -2 5 C-1.34 3.35 -0.68 1.7 0 0 Z " fill="#A6AEB9" transform="translate(290,317)"/>
<path d="M0 0 C0.99 0.99 1.98 1.98 3 3 C1.35 4.65 -0.3 6.3 -2 8 C-1.125 1.125 -1.125 1.125 0 0 Z " fill="#B9BEC9" transform="translate(179,175)"/>
<path d="M0 0 C0.66 0.33 1.32 0.66 2 1 C2 1.66 2 2.32 2 3 C2.66 3.33 3.32 3.66 4 4 C2.35 4.66 0.7 5.32 -1 6 C-1.625 4.125 -1.625 4.125 -2 2 C-1.34 1.34 -0.68 0.68 0 0 Z " fill="#BFC6D7" transform="translate(205,152)"/>
<path d="M0 0 C4.875 1.75 4.875 1.75 6 4 C5.01 4.33 4.02 4.66 3 5 C1.68 3.68 0.36 2.36 -1 1 C-0.67 0.67 -0.34 0.34 0 0 Z " fill="#BFC2CD" transform="translate(198,327)"/>
<path d="M0 0 C1.98 1.65 3.96 3.3 6 5 C4.68 5.33 3.36 5.66 2 6 C2 5.34 2 4.68 2 4 C1.01 4 0.02 4 -1 4 C-0.67 2.68 -0.34 1.36 0 0 Z " fill="#99A4B5" transform="translate(169,318)"/>
<path d="M0 0 C2 3 2 3 2 6 C1.01 6.495 1.01 6.495 0 7 C-0.66 7.99 -1.32 8.98 -2 10 C-1.125 2.25 -1.125 2.25 0 0 Z " fill="#B6C0C6" transform="translate(137,202)"/>
<path d="M0 0 C1.98 0.495 1.98 0.495 4 1 C4 1.99 4 2.98 4 4 C2.35 3.67 0.7 3.34 -1 3 C-0.67 2.01 -0.34 1.02 0 0 Z " fill="#E5EAF2" transform="translate(320,163)"/>
<path d="M0 0 C2 2 2 2 2 6 C-0.475 5.01 -0.475 5.01 -3 4 C-3 3.01 -3 2.02 -3 1 C-2.01 0.67 -1.02 0.34 0 0 Z " fill="#B5BBC8" transform="translate(310,155)"/>
</svg>
