<?xml version="1.0" encoding="UTF-8"?>
<svg version="1.1" xmlns="http://www.w3.org/2000/svg" width="965" height="952">
<path d="M0 0 C5.93069742 0.00874756 11.86139133 0.00570646 17.7920934 0.00419545 C28.03372007 0.00315365 38.27532099 0.00935586 48.51694119 0.02067113 C59.2414491 0.03251211 69.96594595 0.04021467 80.69046032 0.04237676 C81.69603743 0.04258298 81.69603743 0.04258298 82.72192923 0.04279336 C86.1273912 0.04347016 89.53285318 0.04407288 92.93831518 0.04464711 C116.9698326 0.04883202 141.00133666 0.06226194 165.03284657 0.08125234 C188.35836669 0.09966337 211.68388313 0.11380985 235.00940907 0.12226796 C236.09061336 0.12266254 236.09061336 0.12266254 237.19366016 0.12306509 C244.43320012 0.12570245 251.67274011 0.12825403 258.91228013 0.13074281 C273.65601629 0.13581329 288.39975223 0.14145579 303.14348805 0.14744496 C304.16000913 0.14785683 304.16000913 0.14785683 305.19706599 0.14827702 C350.34163302 0.16663401 395.48618746 0.19961265 440.63074696 0.23213124 C440.63074696 62.27213124 440.63074696 124.31213124 440.63074696 188.23213124 C418.80470326 188.25400502 418.80470326 188.25400502 396.53772938 188.2763207 C365.37807762 188.30894635 334.21843687 188.34544465 303.05880177 188.39111257 C302.03880902 188.39260592 302.03880902 188.39260592 300.99821035 188.39412943 C286.21584246 188.41579399 271.43347564 188.43811711 256.65110977 188.46111752 C249.40058863 188.47239487 242.15006727 188.48352686 234.89954579 188.49458241 C234.17807758 188.49568498 233.45660937 188.49678755 232.71327848 188.49792352 C209.37863027 188.53351611 186.04398348 188.55953311 162.70931794 188.58052093 C138.70600592 188.60216119 114.70272577 188.63358861 90.699443 188.67712237 C87.29986412 188.68328354 83.90028504 188.6893342 80.50070584 188.69531751 C79.4971945 188.69708883 79.4971945 188.69708883 78.4734102 188.69889594 C67.09667307 188.71867687 55.71995517 188.72650387 44.34320275 188.73147728 C34.19641936 188.73675908 24.04968986 188.75306899 13.90293541 188.7777969 C8.06072059 188.79171678 2.218602 188.8010187 -3.6236304 188.79713941 C-37.6052247 188.73372141 -37.6052247 188.73372141 -71.36925304 192.23213124 C-72.14483267 192.35394564 -72.9204123 192.47576004 -73.71949434 192.60126579 C-77.81905517 193.26103502 -81.87499153 194.03449713 -85.93175304 194.91963124 C-87.71887706 195.30199941 -87.71887706 195.30199941 -89.5421046 195.69209218 C-142.01814004 207.31486055 -191.41945061 232.23470855 -231.36925304 268.23213124 C-231.93901866 268.74550038 -232.50878429 269.25886952 -233.09581554 269.78779531 C-236.89461417 273.22673017 -240.64448142 276.71317585 -244.36925304 280.23213124 C-245.11948741 280.93982656 -245.86972179 281.64752187 -246.64269054 282.37666249 C-251.14742061 286.74785313 -255.11842626 291.44915534 -259.03722179 296.34931874 C-260.54729887 298.21604719 -262.09007612 300.05697802 -263.67003429 301.86494374 C-307.09566264 351.75821887 -322.99862277 412.78456805 -328.36925304 477.23213124 C-393.04925304 477.23213124 -457.72925304 477.23213124 -524.36925304 477.23213124 C-524.36925304 384.38879602 -496.71527966 293.42773582 -443.36925304 217.23213124 C-442.96545421 216.65253652 -442.56165538 216.07294179 -442.14562023 215.47578359 C-432.86399856 202.18273619 -422.95798104 189.50654547 -412.36925304 177.23213124 C-411.41212413 176.12224843 -411.41212413 176.12224843 -410.43565929 174.98994374 C-408.75803458 173.0604816 -407.06457441 171.14605745 -405.36925304 169.23213124 C-404.45889293 168.1945165 -404.45889293 168.1945165 -403.53014171 167.13593984 C-397.58997873 160.43729305 -391.3612183 154.07012677 -385.02135265 147.75385976 C-383.30216634 146.04005891 -381.58842721 144.32094042 -379.87511241 142.60127187 C-374.20968674 136.93206034 -368.50745167 131.39445528 -362.36925304 126.23213124 C-361.31274305 125.31997324 -360.25673019 124.40723903 -359.20128429 123.49384999 C-296.04933381 69.65538251 -218.24560266 30.0992339 -88.93175304 3.91963124 C-87.7878712 3.77235585 -86.64398937 3.62508046 -85.46544445 3.47334218 C-81.43849881 2.9976178 -77.40648373 2.60742775 -73.36925304 2.23213124 C-72.49758389 2.14955642 -71.62591473 2.0669816 -70.72783136 1.98190451 C-47.16927264 -0.15952189 -23.63534083 -0.04384443 0 0 Z " fill="#FDFDFD" transform="translate(524.36925303936,-0.2321312427520752)"/>
<path d="M0 0 C64.02 0 128.04 0 194 0 C194 33.8847185 194 33.8847185 192.875 44.625 C192.67922363 46.57841309 192.67922363 46.57841309 192.47949219 48.57128906 C187.49049675 96.16715835 174.77577035 142.43965004 155 186 C154.61779297 186.85255371 154.23558594 187.70510742 153.84179688 188.58349609 C129.75651531 242.07448517 94.50712935 289.45049893 53.25 330.875 C52.45779053 331.67188232 51.66558105 332.46876465 50.84936523 333.28979492 C46.06005192 338.06608154 41.13448338 342.59939069 36 347 C34.79680328 348.05703203 33.5949537 349.11559967 32.39453125 350.17578125 C24.49415965 357.1110971 16.45825996 363.75340823 8 370 C6.99694824 370.7420166 6.99694824 370.7420166 5.97363281 371.49902344 C-71.11871213 428.31310985 -160.24530784 464.2343542 -305.49476624 476.12025452 C-307.51409129 476.12069154 -309.53341629 476.12156884 -311.55274099 476.12284368 C-317.05550427 476.12506297 -322.55824781 476.1211028 -328.06100857 476.11606562 C-334.01236728 476.11172417 -339.96372499 476.11321016 -345.91508484 476.1139679 C-356.87988999 476.11452477 -367.84468802 476.11065366 -378.80949138 476.10462701 C-388.93078396 476.0991116 -399.05207442 476.09589415 -409.17336845 476.09487724 C-410.1822624 476.09477413 -410.1822624 476.09477413 -411.21153803 476.09466894 C-414.62774756 476.09433058 -418.04395709 476.0940292 -421.46016663 476.09374207 C-445.61480356 476.09164541 -469.76943719 476.08491859 -493.92407227 476.07543945 C-517.38012677 476.06624514 -540.83618038 476.05916637 -564.29223633 476.05493164 C-565.01611156 476.05480011 -565.73998678 476.05466859 -566.48579763 476.05453308 C-573.75569645 476.05321448 -581.02559527 476.05193868 -588.29549411 476.05069422 C-603.10320034 476.04815846 -617.91090652 476.04533721 -632.71861267 476.04234314 C-633.39934636 476.04220585 -634.08008005 476.04206856 -634.78144203 476.04192711 C-680.1876297 476.03273691 -725.59381419 476.01624944 -771 476 C-771 413.96 -771 351.92 -771 288 C-756.41901123 287.98541748 -741.83802246 287.97083496 -726.81518555 287.95581055 C-695.59079584 287.923185 -664.36641714 287.8866868 -633.14204407 287.84101868 C-632.46063916 287.84002311 -631.77923426 287.83902754 -631.07718072 287.83800181 C-616.26417963 287.81633727 -601.45117961 287.79401415 -586.63818054 287.77101372 C-579.37263812 287.75973637 -572.10709549 287.74860438 -564.84155273 287.73754883 C-564.11858968 287.73644626 -563.39562663 287.7353437 -562.6507556 287.73420772 C-539.26760557 287.6986149 -515.88445695 287.67259802 -492.50128963 287.65161031 C-468.44815941 287.62997023 -444.39506097 287.59854302 -420.34195994 287.55500887 C-416.93535376 287.5488477 -413.52874739 287.54279704 -410.12214088 287.53681374 C-409.11655482 287.53504241 -409.11655482 287.53504241 -408.09065388 287.53323531 C-396.69022139 287.51345408 -385.28980809 287.50562733 -373.88936035 287.50065396 C-363.72155224 287.49537226 -353.55379789 287.47906268 -343.38601866 287.45433434 C-337.53165229 287.44041412 -331.67738196 287.43111268 -325.82299805 287.43499184 C-297.91607565 287.44972417 -270.51651679 287.25421524 -243.125 281.1875 C-241.3152771 280.79630981 -241.3152771 280.79630981 -239.46899414 280.3972168 C-186.25350522 268.65284078 -135.52722658 243.46496983 -95.4609375 206.27734375 C-93.26040554 204.24097846 -91.02271297 202.26738147 -88.75 200.3125 C-82.29516612 194.68588309 -76.50779024 188.54871207 -71 182 C-70.54351074 181.45730469 -70.08702148 180.91460938 -69.61669922 180.35546875 C-38.24523306 142.87424152 -15.9491452 100.00336301 -6 52 C-5.74911621 50.80914795 -5.74911621 50.80914795 -5.49316406 49.59423828 C-2.81454309 36.52660028 -2.05607816 23.28059441 -1.24951172 9.98754883 C-0.97027236 6.64405366 -0.47448782 3.32141474 0 0 Z " fill="#FDFDFD" transform="translate(771,476)"/>
</svg>
