<?xml version="1.0" encoding="UTF-8"?>
<svg version="1.1" xmlns="http://www.w3.org/2000/svg" width="7509" height="952">
<path d="M0 0 C0.92022949 0.46148437 1.84045898 0.92296875 2.78857422 1.3984375 C20.57207524 10.38378538 37.61046802 20.67778335 54 32 C54.6815918 32.46905762 55.36318359 32.93811523 56.06542969 33.42138672 C73.62497592 45.54202935 90.03532863 58.85494971 106 73 C107.04849121 73.92232422 107.04849121 73.92232422 108.11816406 74.86328125 C114.60336169 80.62428491 120.81005058 86.62382099 126.94116211 92.75585938 C128.55890192 94.3714068 130.18450636 95.97875034 131.81054688 97.5859375 C137.59687048 103.34198319 143.00411624 109.19108971 148.06567383 115.60424805 C149.99027614 117.98795655 152.01800366 120.2146623 154.125 122.4375 C213.37478342 187.67419534 249.29045922 278.51631377 259.25 365.125 C259.33317474 365.84422638 259.41634949 366.56345276 259.50204468 367.30447388 C261.44034238 384.30142271 262.20971945 401.20887336 262.1875 418.3125 C262.18659363 419.61667877 262.18659363 419.61667877 262.18566895 420.94720459 C262.00476787 517.57706083 231.17597997 610.72318109 150 720 C149.36191406 720.73992188 148.72382812 721.47984375 148.06640625 722.2421875 C146.38877938 724.17165212 144.69543977 726.08617382 143 728 C142.38729248 728.69754395 141.77458496 729.39508789 141.14331055 730.11376953 C135.33966258 736.65357344 129.27142255 742.88300982 123.0793457 749.05102539 C121.43258596 750.69239796 119.79127905 752.33908819 118.15039062 753.98632812 C112.60659094 759.53393913 106.99804322 764.94014079 101 770 C99.99016464 770.8767747 98.98100857 771.75433261 97.97265625 772.6328125 C89.24350222 780.10824911 80.21168073 787.13010092 71 794 C70.27119629 794.54446777 69.54239258 795.08893555 68.79150391 795.64990234 C57.54380105 804.01421618 46.00090227 811.75856895 34 819 C33.05721191 819.56944336 32.11442383 820.13888672 31.14306641 820.72558594 C-12.9817437 847.18179027 -60.07478133 867.32312928 -110 880 C-111.08990234 880.27827637 -112.17980469 880.55655273 -113.30273438 880.84326172 C-153.65500668 891.00492056 -195.07609964 895.22554338 -236.625 895.25 C-237.66746887 895.25067474 -238.70993774 895.25134949 -239.78399658 895.25204468 C-338.91149836 895.15122683 -437.79672321 867.79588296 -523 812 C-524.05832031 811.31679688 -525.11664062 810.63359375 -526.20703125 809.9296875 C-540.51072437 800.57652018 -554.12139185 790.34260006 -567.26464844 779.43115234 C-568.80160365 778.16361837 -570.35658166 776.91800793 -571.9140625 775.67578125 C-584.10850804 765.94540509 -595.15438704 754.94406701 -606.21160889 743.96362305 C-607.30388003 742.87940777 -608.39762591 741.79667577 -609.49298096 740.71557617 C-615.7386839 734.54262891 -621.61594637 728.29256205 -627.07299805 721.40063477 C-628.95094921 719.06110686 -630.91189849 716.83703947 -632.9375 714.625 C-637.9661751 709.01228586 -642.49917353 703.03651284 -647 697 C-647.49129395 696.34386719 -647.98258789 695.68773437 -648.48876953 695.01171875 C-705.11095028 619.06254798 -738.9863269 526.09664881 -740.25 420.25 C-740.25067474 419.29557007 -740.25134949 418.34114014 -740.25204468 417.35778809 C-740.1755832 348.49672199 -724.72398625 282.1820961 -695 220 C-694.60377441 219.15840332 -694.20754883 218.31680664 -693.79931641 217.44970703 C-675.90925536 179.55908725 -651.59542018 143.22094173 -623.1953125 112.40625 C-622.00168789 111.09793548 -620.81528657 109.78216157 -619.66992188 108.43139648 C-614.14500942 101.94409658 -608.13506733 95.94897226 -602.11328125 89.92797852 C-600.26271033 88.07522532 -598.42029924 86.21461294 -596.578125 84.35351562 C-590.40484658 78.15167015 -584.1902897 72.25926216 -577.30810547 66.84057617 C-575.0740838 65.0590774 -572.96990702 63.19191729 -570.875 61.25 C-496.97147737 -5.0264687 -394.35076272 -43.67840645 0 0 Z M-288 134 C-289.03527832 134.16628906 -290.07055664 134.33257812 -291.13720703 134.50390625 C-348.57471654 143.84755895 -406.06067812 170.21778768 -448.8984375 210.046875 C-450.78557087 211.80071642 -452.71787122 213.46548298 -454.6875 215.125 C-465.03685876 224.17017127 -474.61503705 234.11526105 -483 245 C-484.00319572 246.26358527 -485.00715842 247.52656184 -486.01171875 248.7890625 C-514.64669212 285.09695497 -534.25505057 328.35499713 -542 374 C-542.14953125 374.85916016 -542.2990625 375.71832031 -542.453125 376.60351562 C-553.44245976 442.68162765 -538.22083397 514.87006553 -500.08984375 570.078125 C-499.05537109 571.52445313 -499.05537109 571.52445313 -498 573 C-497.37375732 573.87881836 -497.37375732 573.87881836 -496.73486328 574.77539062 C-481.05782249 596.70179553 -463.20630565 617.25325569 -442 634 C-440.2913182 635.43708578 -438.5829933 636.874596 -436.875 638.3125 C-385.74397321 679.969461 -317.56535891 706.88307468 -251.33984375 707.203125 C-250.36022675 707.21018463 -249.38060974 707.21724426 -248.37130737 707.22451782 C-218.05995545 707.45962748 -218.05995545 707.45962748 -188 704 C-186.86224121 703.80132324 -185.72448242 703.60264648 -184.55224609 703.39794922 C-159.05713015 698.82506466 -134.65798186 691.54612556 -111 681 C-110.06591309 680.58379395 -109.13182617 680.16758789 -108.16943359 679.73876953 C-77.55234403 665.92963577 -49.88739033 647.71239915 -25.16796875 624.98046875 C-23.08887326 623.08118692 -20.96041788 621.25811611 -18.8125 619.4375 C-15.45082864 616.51460101 -12.57327174 613.34250772 -9.69921875 609.9453125 C-8.12545649 608.14362605 -6.48702345 606.51712668 -4.75 604.875 C0.76085365 599.43795242 5.32079201 593.14685036 10 587 C10.44891602 586.41718262 10.89783203 585.83436523 11.36035156 585.23388672 C22.9139653 570.19390454 33.03093589 554.082088 41.08935547 536.90527344 C41.99388501 535.01279393 42.94488269 533.15118517 43.91015625 531.2890625 C54.34438822 510.7696218 61.15083547 487.63276865 65 465 C65.16081055 464.09765625 65.32162109 463.1953125 65.48730469 462.265625 C70.34802368 433.88303493 70.23303094 402.30975355 65 374 C64.8443457 373.10039551 64.68869141 372.20079102 64.52832031 371.27392578 C60.23932435 346.99101751 51.96223713 323.06079711 41 301 C40.61908203 300.22188965 40.23816406 299.4437793 39.84570312 298.64208984 C30.57350961 279.83928478 19.01703679 262.41297803 6 246 C5.34741211 245.17169678 5.34741211 245.17169678 4.68164062 244.32666016 C-2.15836356 235.74561103 -9.83582672 227.96194059 -17.5625 220.1875 C-18.04546539 219.69917694 -18.52843079 219.21085388 -19.02603149 218.70773315 C-25.66766489 212.01028653 -32.58806214 205.83847044 -40 200 C-40.91084351 199.26970581 -40.91084351 199.26970581 -41.84008789 198.5246582 C-50.21642025 191.82860413 -58.96194004 185.76370803 -68 180 C-68.57911133 179.63052246 -69.15822266 179.26104492 -69.75488281 178.88037109 C-106.01887488 155.97625585 -145.82849577 141.36403692 -188 134 C-189.00240723 133.82065918 -190.00481445 133.64131836 -191.03759766 133.45654297 C-222.14469767 128.16071039 -256.94302343 128.67085151 -288 134 Z " fill="#FDFDFD" transform="translate(1772,57)"/>
<path d="M0 0 C64.35 0 128.7 0 195 0 C195.01981934 14.79416748 195.03963867 29.58833496 195.06005859 44.83081055 C195.10340714 76.49657333 195.14932014 108.16232957 195.20132446 139.82807922 C195.20245809 140.5187709 195.20359171 141.20946257 195.20475969 141.92108429 C195.22941561 156.93449196 195.25450869 171.94789887 195.28005161 186.96130506 C195.29257661 194.3247078 195.30500509 201.68811069 195.31738281 209.05151367 C195.3192328 210.15058867 195.3192328 210.15058867 195.32112016 211.2718672 C195.36099442 234.98796609 195.39450458 258.70406874 195.42468691 282.42018178 C195.4557572 306.80745034 195.49330297 331.19470068 195.53890612 355.5819466 C195.54535578 359.03264113 195.55173202 362.48333579 195.55806351 365.93403053 C195.55931181 366.61312469 195.56056012 367.29221884 195.56184625 367.9918916 C195.58168908 378.88910436 195.59477877 389.78631508 195.60529328 400.68354039 C195.61602988 411.65971339 195.63415707 422.63585817 195.65916704 433.61200836 C195.67248674 439.5506743 195.68268994 445.48930065 195.68421364 451.42798233 C195.68568346 456.87861824 195.69641849 462.329159 195.71413441 467.77976558 C195.71893426 469.7383981 195.72050395 471.69704218 195.71827881 473.65567931 C195.70221689 490.58932325 196.69037376 507.49344128 199.6875 524.1875 C199.85411133 525.12126465 200.02072266 526.0550293 200.19238281 527.01708984 C209.62805028 577.38225316 233.13621627 623.64900285 267.6640625 661.41796875 C268.98000148 662.87254344 270.28762457 664.33509093 271.56518555 665.82348633 C275.6653429 670.59614101 279.95893732 675.0250471 284.5625 679.3125 C285.25504883 679.95912598 285.94759766 680.60575195 286.66113281 681.27197266 C292.64655569 686.79435163 298.88577571 691.88932101 305.39013672 696.78417969 C306.91813374 697.93817198 308.43027596 699.11307 309.94140625 700.2890625 C349.06442777 730.4164505 395.96764454 749.97231993 444.375 758.8125 C445.44226318 759.00755127 446.50952637 759.20260254 447.60913086 759.40356445 C465.74792692 762.51475842 483.74794011 763.37885471 502.125 763.3125 C503.20293823 763.31034485 504.28087646 763.3081897 505.39147949 763.30596924 C521.44839906 763.25451429 537.15824213 762.85351619 553 760 C554.13099121 759.80132324 555.26198242 759.60264648 556.42724609 759.39794922 C583.04163208 754.59981211 608.35127 747.12731047 633 736 C633.92570801 735.58459961 634.85141602 735.16919922 635.80517578 734.74121094 C669.33564388 719.57393642 698.370159 698.21463931 725 673 C725.75152344 672.29101562 726.50304688 671.58203125 727.27734375 670.8515625 C731.78424724 666.47852743 735.75681679 661.77478952 739.67578125 656.87109375 C741.15715831 655.04115739 742.67257393 653.2379066 744.23046875 651.47265625 C757.70309583 636.10438315 768.71292936 618.16677926 778 600 C778.40911621 599.20625977 778.81823242 598.41251953 779.23974609 597.59472656 C800.47202226 555.97783516 808.13573588 511.98441323 808.15821838 465.62548828 C808.16279414 463.60702544 808.16779562 461.58856353 808.17318195 459.57010269 C808.18665711 454.06508947 808.19415029 448.56008236 808.20060861 443.05505705 C808.2086597 437.10299185 808.22234104 431.15093918 808.23532104 425.19888306 C808.25842749 414.23097178 808.27724982 403.26305833 808.29399087 392.29513563 C808.30949062 382.17058864 808.32721051 372.04604819 808.34705925 361.92150879 C808.34903566 360.91251174 808.34903566 360.91251174 808.351052 359.88313091 C808.35775465 356.46661236 808.36449307 353.05009389 808.37124526 349.63357544 C808.41893073 325.47284571 808.46213787 301.31210986 808.50268555 277.15136719 C808.54207238 253.68847204 808.58350377 230.22558194 808.62768555 206.76269531 C808.62904808 206.03868856 808.63041061 205.3146818 808.63181442 204.56873545 C808.64550052 197.29755693 808.65922799 190.02637849 808.67298577 182.75520011 C808.70100771 167.94471068 808.7287536 153.13422073 808.7563324 138.32373047 C808.7582347 137.302424 808.7582347 137.302424 808.76017542 136.26048508 C808.84474395 90.84033134 808.92225656 45.42016605 809 0 C872.69 0 936.38 0 1002 0 C1002.06623841 95.53770195 1002.06623841 95.53770195 1002.08468628 142.80482483 C1002.08496239 143.51047139 1002.08523851 144.21611794 1002.08552299 144.94314773 C1002.0915102 160.28244791 1002.09705037 175.62174821 1002.10213066 190.96104872 C1002.10462511 198.48453055 1002.10721825 206.00801236 1002.10986328 213.53149414 C1002.1101248 214.28013104 1002.11038632 215.02876794 1002.11065576 215.8000908 C1002.1191632 240.02176147 1002.13417436 264.24342274 1002.15259444 288.46508773 C1002.17150472 313.37685245 1002.18378131 338.28861197 1002.18782998 363.20038374 C1002.18840621 366.72709567 1002.18905748 370.25380758 1002.18975449 373.78051949 C1002.18988933 374.4745586 1002.19002418 375.16859772 1002.19016311 375.88366832 C1002.19251733 387.01070079 1002.20176839 398.13771712 1002.21366407 409.26474303 C1002.22550286 420.47845486 1002.22975924 431.69215118 1002.22700275 442.90587055 C1002.22572815 448.97060915 1002.22761227 455.03530076 1002.23841095 461.1000309 C1002.31810282 508.17269936 1002.31810282 508.17269936 1000 528 C999.92033312 528.71587843 999.84066624 529.43175686 999.75858521 530.16932857 C999.32655828 534.04207224 998.82452904 537.89581662 998.25 541.75 C998.08081055 542.89863525 997.91162109 544.04727051 997.73730469 545.23071289 C991.3945791 586.7766921 979.59103593 626.83125794 962 665 C961.53867676 666.00627441 961.07735352 667.01254883 960.60205078 668.04931641 C946.89769173 697.764525 930.54274649 726.46712076 910.34082031 752.27832031 C909.0297057 753.96185641 907.74202842 755.66073045 906.4609375 757.3671875 C897.61468076 769.11156664 887.94454844 780.176631 878 791 C877.47067871 791.57975586 876.94135742 792.15951172 876.39599609 792.75683594 C867.34193784 802.65272309 857.92985668 811.98670042 848 821 C847.08347656 821.84304688 846.16695312 822.68609375 845.22265625 823.5546875 C839.84591661 828.46425387 834.3184837 833.15576395 828.62597656 837.6953125 C827.50802154 838.5923623 826.39567001 839.49642623 825.28808594 840.40625 C802.72400065 858.93026657 777.58006194 874.98867995 752 889 C751.00661621 889.54414551 750.01323242 890.08829102 748.98974609 890.64892578 C657.84542764 940.12561431 552.15497568 960.67525513 449 950 C447.7713623 949.87641113 446.54272461 949.75282227 445.27685547 949.62548828 C349.93290116 939.71260078 255.99209048 903.14217157 181 843 C179.64841797 841.91912109 179.64841797 841.91912109 178.26953125 840.81640625 C175.4922306 838.56811525 172.74106702 836.29232481 170 834 C169.47325684 833.55962402 168.94651367 833.11924805 168.40380859 832.66552734 C155.73642766 822.03852992 143.71699801 810.78830309 132 799.125 C131.30608154 798.43575439 130.61216309 797.74650879 129.8972168 797.03637695 C125.39511289 792.52014113 121.15343702 787.83694558 117 783 C116.0503856 781.91717316 115.09991305 780.83509807 114.1484375 779.75390625 C106.3474403 770.81065496 99.08209714 761.51985165 92 752 C91.45698242 751.27264648 90.91396484 750.54529297 90.35449219 749.79589844 C77.2665186 732.19751209 66.00964646 713.71876226 55.40429688 694.53417969 C54.23505772 692.42418274 53.05142788 690.32369257 51.859375 688.2265625 C14.37108147 620.65312584 -0.24546353 543.39748241 -0.12025452 466.82803345 C-0.12069199 464.79614351 -0.12157011 462.76425364 -0.12284368 460.73236406 C-0.12505412 455.21809437 -0.12111534 449.70384451 -0.11606562 444.18957734 C-0.11171108 438.21717475 -0.11321107 432.24477311 -0.1139679 426.27236938 C-0.11452386 415.2777919 -0.11066154 404.28322153 -0.10462701 393.28864584 C-0.09910552 383.14172412 -0.09589304 372.9948045 -0.09487724 362.84788132 C-0.0948085 362.17285636 -0.09473976 361.4978314 -0.09466894 360.80235115 C-0.09433056 357.37360632 -0.0940292 353.94486149 -0.09374207 350.51611666 C-0.09164712 326.29215548 -0.08492511 302.0681976 -0.07543945 277.84423828 C-0.06624059 254.32535825 -0.05916406 230.80647913 -0.05493164 207.28759766 C-0.05480011 206.56139195 -0.05466859 205.83518624 -0.05453308 205.08697429 C-0.05321445 197.79346677 -0.05193865 190.49995925 -0.05069422 183.20645171 C-0.04815867 168.35153213 -0.04533742 153.49661261 -0.04234314 138.64169312 C-0.04220585 137.9588349 -0.04206856 137.27597668 -0.04192711 136.5724258 C-0.03274167 91.04828219 -0.01625344 45.52414175 0 0 Z " fill="#FDFDFD" transform="translate(5405,0)"/>
<path d="M0 0 C1.11178619 -0.01582626 2.22357239 -0.03165253 3.36904907 -0.04795837 C4.59967575 -0.06007355 5.83030243 -0.07218872 7.09822083 -0.08467102 C8.38595398 -0.10087997 9.67368713 -0.11708893 11.0004425 -0.13378906 C22.88815053 -0.27858152 34.77691548 -0.35355883 46.66532421 -0.41270733 C55.45530536 -0.45728129 64.24372631 -0.53440521 73.03300971 -0.65429181 C79.21053844 -0.73571622 85.38763977 -0.77884776 91.56568223 -0.79400951 C95.25665667 -0.80417655 98.94566787 -0.8314634 102.63605309 -0.90032005 C106.75724673 -0.97636459 110.87477466 -0.97332663 114.99665833 -0.96357727 C116.21716385 -0.99795898 117.43766937 -1.0323407 118.69515991 -1.06776428 C122.04445787 -1.02257151 124.69993618 -0.89729241 127.8709259 0.18754578 C130.70806603 3.20215591 132.27853337 6.39806943 133.8709259 10.18754578 C134.45172913 11.22934998 135.03253235 12.27115417 135.63093567 13.3445282 C136.10329651 14.23502869 136.57565735 15.12552917 137.06233215 16.04301453 C137.60744446 17.06491882 138.15255676 18.08682312 138.71418762 19.13969421 C139.28153625 20.20736023 139.84888489 21.27502625 140.4334259 22.37504578 C144.93258621 30.79206105 149.50991757 39.1515608 154.2459259 47.43754578 C159.65171248 56.90702127 164.79949273 66.49815974 169.90113831 76.13322449 C174.27454585 84.38767091 178.73199028 92.57808475 183.3709259 100.68754578 C188.73973258 110.07291606 193.84416992 119.58186138 198.9026947 129.13633728 C203.25367362 137.34898903 207.6892576 145.49641017 212.3084259 153.56254578 C217.91465868 163.35588974 223.20935187 173.29763096 228.47315979 183.27726746 C233.49192108 192.78605907 238.64443766 202.19609646 243.9881134 211.52738953 C248.79946537 219.96814843 253.35085686 228.5380141 257.8959198 237.12379456 C262.90043065 246.57123966 268.05587796 255.91522819 273.35920715 265.19926453 C277.08059528 271.73257435 280.61603311 278.34269678 284.07917786 285.01567078 C287.22829917 291.04913372 290.55522584 296.96731542 293.9334259 302.87504578 C299.26934953 312.21611112 304.35352998 321.67335066 309.3709259 331.18754578 C314.75468043 341.395093 320.25251979 351.51171726 325.9881134 361.52738953 C330.43786762 369.33378215 334.66700553 377.24723558 338.8709259 385.18754578 C343.58558396 394.0921582 348.36728907 402.94053974 353.3709259 411.68754578 C358.73973258 421.07291606 363.84416992 430.58186138 368.9026947 440.13633728 C373.25367362 448.34898903 377.6892576 456.49641017 382.3084259 464.56254578 C387.91465868 474.35588974 393.20935187 484.29763096 398.47315979 494.27726746 C403.49192108 503.78605907 408.64443766 513.19609646 413.9881134 522.52738953 C418.79946537 530.96814843 423.35085686 539.5380141 427.8959198 548.12379456 C432.90043065 557.57123966 438.05587796 566.91522819 443.35920715 576.19926453 C446.64718814 581.97168002 449.81069161 587.79146544 452.8709259 593.68754578 C456.49573892 600.67008809 460.29030777 607.53854778 464.1834259 614.37504578 C468.93722095 622.72459631 473.6021865 631.11697125 478.1834259 639.56254578 C479.03771179 641.13298645 479.03771179 641.13298645 479.90925598 642.7351532 C480.68885681 644.17725159 480.68885681 644.17725159 481.48420715 645.64848328 C481.94609436 646.50232605 482.40798157 647.35616882 482.88386536 648.23588562 C483.8709259 650.18754578 483.8709259 650.18754578 483.8709259 651.18754578 C289.5009259 651.51754578 95.1309259 651.84754578 -105.1290741 652.18754578 C-110.4090741 662.08754578 -115.6890741 671.98754578 -121.1290741 682.18754578 C-127.5665741 693.56254578 -127.5665741 693.56254578 -130.71891785 699.08598328 C-135.2205587 707.06245768 -139.4598289 715.17868283 -143.73231506 723.27928162 C-148.72621576 732.74154055 -153.85555881 742.10295217 -159.1759491 751.38676453 C-163.83496663 759.56310966 -168.23946419 767.8647677 -172.6290741 776.18754578 C-177.98851711 786.34914459 -183.46303765 796.41802258 -189.1759491 806.38676453 C-193.83496663 814.56310966 -198.23946419 822.8647677 -202.6290741 831.18754578 C-207.98851711 841.34914459 -213.46303765 851.41802258 -219.1759491 861.38676453 C-223.83497091 869.56311717 -228.23932079 877.86483689 -232.6290741 886.18754578 C-238.05332158 896.47046657 -243.58505346 906.66875972 -249.36051941 916.76029968 C-254.30903342 925.43035882 -259.03050935 934.21795583 -263.72550964 943.02690125 C-264.28665466 944.07764832 -264.84779968 945.12839539 -265.4259491 946.21098328 C-265.92449402 947.14861511 -266.42303894 948.08624695 -266.93669128 949.05229187 C-268.1290741 951.18754578 -268.1290741 951.18754578 -269.1290741 952.18754578 C-270.46348953 952.28385737 -271.80296081 952.31126557 -273.14084721 952.31059361 C-274.44488203 952.31358018 -274.44488203 952.31358018 -275.77526098 952.31662709 C-276.74119427 952.31371424 -277.70712755 952.3108014 -278.70233154 952.30780029 C-280.22881999 952.30908193 -280.22881999 952.30908193 -281.78614658 952.31038946 C-285.22412229 952.31204732 -288.66205009 952.3065179 -292.10002136 952.30107117 C-294.55333963 952.30078934 -297.00665798 952.30094695 -299.4599762 952.30151367 C-304.75618681 952.30174199 -310.05238227 952.2988906 -315.34858894 952.29327583 C-323.00609703 952.28516301 -330.66359916 952.28254584 -338.32111108 952.28128784 C-350.74367438 952.27909698 -363.16623114 952.27243597 -375.58879089 952.26298523 C-387.65910306 952.253812 -399.72941345 952.24673073 -411.79972839 952.24247742 C-412.91497716 952.24208333 -412.91497716 952.24208333 -414.0527562 952.24168129 C-417.78251929 952.24037629 -421.5122824 952.23911257 -425.24204552 952.23786938 C-456.20439314 952.2274957 -487.16673263 952.20980234 -518.1290741 952.18754578 C-517.38576786 949.01373665 -516.34679359 946.43317838 -514.82829285 943.53910828 C-514.35214539 942.62798279 -513.87599792 941.7168573 -513.38542175 940.77812195 C-512.86770203 939.79948181 -512.3499823 938.82084167 -511.8165741 937.81254578 C-511.27822937 936.78814392 -510.73988464 935.76374207 -510.18522644 934.70829773 C-505.62525772 926.06028718 -500.95412948 917.47481759 -496.2540741 908.90238953 C-492.89068995 902.76357323 -489.56971227 896.60225166 -486.2540741 890.43754578 C-485.66972595 889.35126892 -485.08537781 888.26499207 -484.48332214 887.14579773 C-483.29393126 884.93422562 -482.10472309 882.72255524 -480.91569519 880.51078796 C-472.97332759 865.73741987 -465.0182485 850.97113792 -457.02336121 836.22612 C-453.04551638 828.88694512 -449.08418742 821.53899261 -445.1290741 814.18754578 C-440.10998715 804.85847025 -435.07308055 795.53926572 -430.02360535 786.22660828 C-426.04571296 778.88725235 -422.0842736 771.5391528 -418.1290741 764.18754578 C-413.10998715 754.85847025 -408.07308055 745.53926572 -403.02360535 736.22660828 C-399.04571296 728.88725235 -395.0842736 721.5391528 -391.1290741 714.18754578 C-386.10998715 704.85847025 -381.07308055 695.53926572 -376.02360535 686.22660828 C-372.04571296 678.88725235 -368.0842736 671.5391528 -364.1290741 664.18754578 C-359.10998715 654.85847025 -354.07308055 645.53926572 -349.02360535 636.22660828 C-345.04571296 628.88725235 -341.0842736 621.5391528 -337.1290741 614.18754578 C-332.10998715 604.85847025 -327.07308055 595.53926572 -322.02360535 586.22660828 C-318.04571296 578.88725235 -314.0842736 571.5391528 -310.1290741 564.18754578 C-305.10998715 554.85847025 -300.07308055 545.53926572 -295.02360535 536.22660828 C-291.04571296 528.88725235 -287.0842736 521.5391528 -283.1290741 514.18754578 C-278.10998715 504.85847025 -273.07308055 495.53926572 -268.02360535 486.22660828 C-264.04571296 478.88725235 -260.0842736 471.5391528 -256.1290741 464.18754578 C-251.10998715 454.85847025 -246.07308055 445.53926572 -241.02360535 436.22660828 C-237.04571296 428.88725235 -233.0842736 421.5391528 -229.1290741 414.18754578 C-224.10998715 404.85847025 -219.07308055 395.53926572 -214.02360535 386.22660828 C-210.04571296 378.88725235 -206.0842736 371.5391528 -202.1290741 364.18754578 C-197.10998715 354.85847025 -192.07308055 345.53926572 -187.02360535 336.22660828 C-183.04571296 328.88725235 -179.0842736 321.5391528 -175.1290741 314.18754578 C-170.10998715 304.85847025 -165.07308055 295.53926572 -160.02360535 286.22660828 C-156.04571296 278.88725235 -152.0842736 271.5391528 -148.1290741 264.18754578 C-143.10998715 254.85847025 -138.07308055 245.53926572 -133.02360535 236.22660828 C-129.04571296 228.88725235 -125.0842736 221.5391528 -121.1290741 214.18754578 C-116.10998715 204.85847025 -111.07308055 195.53926572 -106.02360535 186.22660828 C-102.04571296 178.88725235 -98.0842736 171.5391528 -94.1290741 164.18754578 C-89.10998715 154.85847025 -84.07308055 145.53926572 -79.02360535 136.22660828 C-75.04571296 128.88725235 -71.0842736 121.5391528 -67.1290741 114.18754578 C-62.10998715 104.85847025 -57.07308055 95.53926572 -52.02360535 86.22660828 C-48.04571296 78.88725235 -44.0842736 71.5391528 -40.1290741 64.18754578 C-35.11899022 54.87520445 -30.09294599 45.57171658 -25.04997253 36.27714539 C-22.10069978 30.83835009 -19.16299616 25.39356878 -16.2384491 19.94145203 C-15.58806478 18.7298601 -14.93767422 17.51827152 -14.28727722 16.3066864 C-13.0339966 13.97179434 -11.78310225 11.63567302 -10.53337097 9.2988739 C-9.97198425 8.25279968 -9.41059753 7.20672546 -8.8321991 6.12895203 C-8.08438171 4.73205139 -8.08438171 4.73205139 -7.32145691 3.30693054 C-5.2589929 -0.35896833 -4.15210642 0.05154031 0 0 Z " fill="#FDFDFD" transform="translate(3677.1290740966797,-0.1875457763671875)"/>
<path d="M0 0 C65.67 0 131.34 0 199 0 C199 252.12 199 504.24 199 764 C461.35 764 723.7 764 994 764 C994 825.71 994 887.42 994 951 C934.82883727 951.11611211 934.82883727 951.11611211 916.01081848 951.15246582 C915.3460047 951.15375035 914.68119091 951.15503488 913.99623126 951.15635834 C891.10264784 951.20057798 868.20906242 951.24366678 845.31547546 951.28601074 C844.55343552 951.28742048 843.79139558 951.28883022 843.00626352 951.29028267 C826.35153667 951.32108742 809.69680951 951.35172044 793.04208203 951.38218227 C784.84698367 951.39717229 776.65188537 951.41219934 768.45678711 951.42724609 C767.642287 951.42874094 766.82778688 951.43023578 765.98860495 951.43177592 C744.87847315 951.47053307 723.76834406 951.5104216 702.65821838 951.55238724 C468.43810217 952.01679558 234.22135933 952 0 952 C0 637.84 0 323.68 0 0 Z " fill="#FDFDFD" transform="translate(2099,0)"/>
<path d="M0 0 C33.99 0 67.98 0 103 0 C103 314.16 103 628.32 103 952 C37.66 952 -27.68 952 -95 952 C-95 812.74 -95 673.48 -95 530 C-176.18 530 -257.36 530 -341 530 C-341 414 -341 414 -329 400 C-324.88523596 394.76312296 -324.88523596 394.76312296 -320.7890625 389.51171875 C-317.43662831 385.24552585 -313.89565986 381.14815172 -310.34643555 377.0456543 C-305.79332048 371.78053557 -301.38360782 366.40698685 -297 361 C-289.96990634 352.38547236 -282.90154062 343.80265024 -275.83056641 335.22167969 C-272.88632412 331.6483795 -269.9432036 328.07415572 -267 324.5 C-265.83333904 323.08332863 -264.66667237 321.66666197 -263.5 320.25 C-262.9225 319.54875 -262.345 318.8475 -261.75 318.125 C-232 282 -202.25 245.875 -172.5 209.75 C-171.9222583 209.04842773 -171.3445166 208.34685547 -170.74926758 207.62402344 C-169.58515646 206.21051797 -168.4209316 204.79710616 -167.2565918 203.38378906 C-164.29987496 199.79452429 -161.34528796 196.20354178 -158.39453125 192.609375 C-153.012729 186.0578381 -147.61891182 179.52049232 -142.125 173.0625 C-138.4258395 168.71364726 -134.81754906 164.30499057 -131.26953125 159.83203125 C-126.52718884 153.91430621 -121.67438043 148.08591133 -116.84667969 142.23779297 C-113.8949282 138.66088205 -110.94761867 135.08031669 -108 131.5 C-106.83335617 130.08331453 -105.66668947 128.66664789 -104.5 127.25 C-103.9225 126.54875 -103.345 125.8475 -102.75 125.125 C-27.5 33.75 -27.5 33.75 -25.74731445 31.62182617 C-24.58948533 30.21583303 -23.43176908 28.80974694 -22.27416992 27.40356445 C-19.22324393 23.69779297 -16.16993855 19.9940148 -13.11328125 16.29296875 C-12.47712891 15.52210937 -11.84097656 14.75125 -11.18554688 13.95703125 C-9.96751994 12.48117379 -8.74880698 11.00588215 -7.52929688 9.53125 C-6.97951172 8.86480469 -6.42972656 8.19835937 -5.86328125 7.51171875 C-5.38157471 6.92865967 -4.89986816 6.34560059 -4.40356445 5.74487305 C-2.89126173 3.86481955 -1.44768707 1.93024942 0 0 Z " fill="#FDFDFD" transform="translate(7406,0)"/>
<path d="M0 0 C33.66 0 67.32 0 102 0 C106.61061935 5.18694677 111.0624411 10.20723132 115.25 15.6875 C119.56087444 21.2523501 124.0474279 26.63036377 128.65258789 31.953125 C133.20592081 37.21877322 137.61540504 42.59313153 142 48 C143.499145 49.83403254 144.99915322 51.66735981 146.5 53.5 C148.69225146 56.1789992 150.88419468 58.85824208 153.07421875 61.5390625 C160.02585478 70.04550067 167.01363582 78.52208205 174 87 C180.88291053 95.35237745 187.76458492 103.70546251 194.61328125 112.0859375 C199.4522859 117.99411667 204.31283528 123.88460244 209.16943359 129.77832031 C212.69314746 134.05490022 216.21533967 138.33273337 219.73779297 142.61035156 C222.71659562 146.22764791 225.69581299 149.84460131 228.67578125 153.4609375 C234.3328738 160.32681051 239.98381206 167.19738185 245.61328125 174.0859375 C251.06029028 180.73645916 256.53304319 187.36587529 262 194 C268.88291053 202.35237745 275.76458492 210.70546251 282.61328125 219.0859375 C288.06029028 225.73645916 293.53304319 232.36587529 299 239 C305.88291053 247.35237745 312.76458492 255.70546251 319.61328125 264.0859375 C325.06029028 270.73645916 330.53304319 277.36587529 336 284 C342.88291053 292.35237745 349.76458492 300.70546251 356.61328125 309.0859375 C361.4522859 314.99411667 366.31283528 320.88460244 371.16943359 326.77832031 C374.69314746 331.05490022 378.21533967 335.33273337 381.73779297 339.61035156 C384.71659562 343.22764791 387.69581299 346.84460131 390.67578125 350.4609375 C396.3328738 357.32681051 401.98381206 364.19738185 407.61328125 371.0859375 C412.43909493 376.97801116 417.28647436 382.85236942 422.12988281 388.72998047 C424.03254759 391.03950751 425.93436909 393.34972644 427.8359375 395.66015625 C428.46024658 396.4186084 429.08455566 397.17706055 429.7277832 397.95849609 C430.91654708 399.40272952 432.10519383 400.84705936 433.29370117 402.29150391 C433.83744385 402.9519873 434.38118652 403.6124707 434.94140625 404.29296875 C435.41263916 404.8655542 435.88387207 405.43813965 436.36938477 406.02807617 C438.5719763 408.69169824 440.78730452 411.34476542 443 414 C443 452.28 443 490.56 443 530 C362.15 530 281.3 530 198 530 C198 669.26 198 808.52 198 952 C132.66 952 67.32 952 0 952 C0 637.84 0 323.68 0 0 Z " fill="#FDFDFD" transform="translate(6473,0)"/>
<path d="M0 0 C0.73659745 -0.01088121 1.4731949 -0.02176241 2.23211348 -0.03297335 C4.70759247 -0.06678466 7.18296742 -0.0861615 9.65859985 -0.10536194 C11.43103828 -0.12607525 13.20346875 -0.14747972 14.97589111 -0.16952515 C20.80573235 -0.23750603 26.63564542 -0.28297313 32.46572876 -0.32435608 C33.45844803 -0.33159927 34.45116731 -0.33884245 35.47396898 -0.34630513 C44.84247926 -0.41353046 54.21101072 -0.47166693 63.57968712 -0.50983334 C75.54921138 -0.55925292 87.51665567 -0.65183961 99.48532999 -0.80374521 C107.90758766 -0.9069971 116.32928478 -0.96003351 124.75215399 -0.97650343 C129.77874416 -0.98768872 134.80294111 -1.02060318 139.82883835 -1.10763359 C144.56584091 -1.18861085 149.29913616 -1.20693592 154.03670883 -1.17899895 C155.76651806 -1.17937935 157.49649704 -1.20168036 159.22566986 -1.24860001 C167.82210973 -1.46929355 174.02616141 -1.20904271 180.49658358 4.91311687 C182.62333001 7.14741704 184.62100026 9.45893453 186.56788373 11.8508147 C188.15268893 13.72452792 189.91543781 15.28250467 191.81729126 16.82798767 C196.14147832 20.49255297 200.05811417 24.54319633 204.03994751 28.57017517 C206.88370703 31.43372884 209.7360421 34.21675957 212.81729126 36.82798767 C217.14147832 40.49255297 221.05811417 44.54319633 225.03994751 48.57017517 C227.88370703 51.43372884 230.7360421 54.21675957 233.81729126 56.82798767 C238.14147832 60.49255297 242.05811417 64.54319633 246.03994751 68.57017517 C248.88370703 71.43372884 251.7360421 74.21675957 254.81729126 76.82798767 C259.14147832 80.49255297 263.05811417 84.54319633 267.03994751 88.57017517 C269.88370703 91.43372884 272.7360421 94.21675957 275.81729126 96.82798767 C280.1406902 100.49188508 284.05667107 104.54170413 288.03775024 108.56797791 C291.47765647 112.03185213 295.00282976 115.29923701 298.72744751 118.45689392 C302.0930219 121.47018389 305.22418734 124.71519757 308.39785767 127.92808533 C311.10157875 130.65226977 313.82478857 133.28148962 316.75479126 135.76548767 C320.47686819 138.92808749 323.88595198 142.35769463 327.31729126 145.82798767 C330.7279945 149.2773665 334.1135061 152.68918669 337.81729126 155.82798767 C342.14147832 159.49255297 346.05811417 163.54319633 350.03994751 167.57017517 C352.88370703 170.43372884 355.7360421 173.21675957 358.81729126 175.82798767 C363.14147832 179.49255297 367.05811417 183.54319633 371.03994751 187.57017517 C373.88370703 190.43372884 376.7360421 193.21675957 379.81729126 195.82798767 C384.14147832 199.49255297 388.05811417 203.54319633 392.03994751 207.57017517 C394.88370703 210.43372884 397.7360421 213.21675957 400.81729126 215.82798767 C405.14147832 219.49255297 409.05811417 223.54319633 413.03994751 227.57017517 C415.88370703 230.43372884 418.7360421 233.21675957 421.81729126 235.82798767 C426.1406902 239.49188508 430.05667107 243.54170413 434.03775024 247.56797791 C437.47765647 251.03185213 441.00282976 254.29923701 444.72744751 257.45689392 C448.0930219 260.47018389 451.22418734 263.71519757 454.39785767 266.92808533 C457.10157875 269.65226977 459.82478857 272.28148962 462.75479126 274.76548767 C467.09277181 278.45141269 471.02986464 282.51445632 475.02871704 286.5589447 C477.97863905 289.52950155 480.95019195 292.41242909 484.12979126 295.14048767 C488.20976507 298.66724469 492.00388062 302.51457703 495.81729126 306.32798767 C495.81729126 331.07798767 495.81729126 355.82798767 495.81729126 381.32798767 C223.56729126 381.32798767 -48.68270874 381.32798767 -329.18270874 381.32798767 C-329.18270874 356.57798767 -329.18270874 331.82798767 -329.18270874 306.32798767 C-324.9935133 302.13879223 -320.99716768 298.30073251 -316.54989624 294.47642517 C-313.48696258 291.69653488 -310.59030014 288.7687992 -307.68270874 285.82798767 C-303.6949569 281.79498474 -299.66775951 277.9339629 -295.33895874 274.26548767 C-291.7318552 271.02432217 -288.37091979 267.53536388 -284.96224976 264.08799744 C-281.52234353 260.62412322 -277.99717024 257.35673833 -274.27255249 254.19908142 C-271.4636034 251.68415317 -268.83162257 249.00963445 -266.18270874 246.32798767 C-262.95872493 243.0641647 -259.74753053 239.85968648 -256.24520874 236.89048767 C-252.52313181 233.72788786 -249.11404802 230.29828071 -245.68270874 226.82798767 C-241.69494317 222.79500294 -237.66775966 218.93396302 -233.33895874 215.26548767 C-230.33656191 212.56768182 -227.52010057 209.69754948 -224.68270874 206.82798767 C-220.69494043 202.79500657 -216.66775969 198.93396305 -212.33895874 195.26548767 C-209.33656191 192.56768182 -206.52010057 189.69754948 -203.68270874 186.82798767 C-199.69494043 182.79500657 -195.66775969 178.93396305 -191.33895874 175.26548767 C-188.33656191 172.56768182 -185.52010057 169.69754948 -182.68270874 166.82798767 C-178.69494043 162.79500657 -174.66775969 158.93396305 -170.33895874 155.26548767 C-166.7318552 152.02432217 -163.37091979 148.53536388 -159.96224976 145.08799744 C-156.52234353 141.62412322 -152.99717024 138.35673833 -149.27255249 135.19908142 C-146.4636034 132.68415317 -143.83162257 130.00963445 -141.18270874 127.32798767 C-137.95872493 124.0641647 -134.74753053 120.85968648 -131.24520874 117.89048767 C-127.52313181 114.72788786 -124.11404802 111.29828071 -120.68270874 107.82798767 C-116.69494317 103.79500294 -112.66775966 99.93396302 -108.33895874 96.26548767 C-105.33656191 93.56768182 -102.52010057 90.69754948 -99.68270874 87.82798767 C-95.69494043 83.79500657 -91.66775969 79.93396305 -87.33895874 76.26548767 C-84.33656191 73.56768182 -81.52010057 70.69754948 -78.68270874 67.82798767 C-74.69494043 63.79500657 -70.66775969 59.93396305 -66.33895874 56.26548767 C-63.33656191 53.56768182 -60.52010057 50.69754948 -57.68270874 47.82798767 C-53.69494043 43.79500657 -49.66775969 39.93396305 -45.33895874 36.26548767 C-41.7318552 33.02432217 -38.37091979 29.53536388 -34.96224976 26.08799744 C-31.52884271 22.63066769 -28.01276832 19.36688424 -24.29208374 16.21861267 C-20.81510103 13.10220595 -17.56741915 9.75295022 -14.30551147 6.41368103 C-9.53271631 1.55933983 -6.70485336 0.02953504 0 0 Z " fill="#FDFDFD" transform="translate(4581.182708740234,570.6720123291016)"/>
<path d="M0 0 C272.25 0 544.5 0 825 0 C825 24.75 825 49.5 825 75 C810.16666667 89.83333333 810.16666667 89.83333333 805.12109375 94.09765625 C801.52262539 97.32501185 798.1747647 100.80624973 794.77709961 104.24243164 C791.35944185 107.68388165 787.85721791 110.92608651 784.15625 114.0625 C781.15385317 116.76030585 778.33739183 119.63043819 775.5 122.5 C771.51223169 126.5329811 767.48505095 130.39402462 763.15625 134.0625 C759.54914646 137.3036655 756.18821105 140.79262379 752.77954102 144.23999023 C749.33963479 147.70386446 745.8144615 150.97124934 742.08984375 154.12890625 C739.28089466 156.6438345 736.64891383 159.31835322 734 162 C730.77601619 165.26382297 727.56482179 168.46830119 724.0625 171.4375 C720.34042307 174.60009982 716.93133928 178.02970696 713.5 181.5 C709.51223443 185.53298474 705.48505092 189.39402465 701.15625 193.0625 C698.15385317 195.76030585 695.33739183 198.63043819 692.5 201.5 C688.51223169 205.5329811 684.48505095 209.39402462 680.15625 213.0625 C677.15385317 215.76030585 674.33739183 218.63043819 671.5 221.5 C667.51223169 225.5329811 663.48505095 229.39402462 659.15625 233.0625 C656.15385317 235.76030585 653.33739183 238.63043819 650.5 241.5 C646.51223169 245.5329811 642.48505095 249.39402462 638.15625 253.0625 C635.15385317 255.76030585 632.33739183 258.63043819 629.5 261.5 C625.51223169 265.5329811 621.48505095 269.39402462 617.15625 273.0625 C613.54914646 276.3036655 610.18821105 279.79262379 606.77954102 283.23999023 C603.33963479 286.70386446 599.8144615 289.97124934 596.08984375 293.12890625 C593.28089466 295.6438345 590.64891383 298.31835322 588 301 C584.77601619 304.26382297 581.56482179 307.46830119 578.0625 310.4375 C574.34042307 313.60009982 570.93133928 317.02970696 567.5 320.5 C563.51223443 324.53298474 559.48505092 328.39402465 555.15625 332.0625 C552.15385317 334.76030585 549.33739183 337.63043819 546.5 340.5 C542.51223169 344.5329811 538.48505095 348.39402462 534.15625 352.0625 C530.55298931 355.30021251 527.19544275 358.78518629 523.79052734 362.22900391 C520.27902653 365.7650965 516.72117643 369.1689354 512.85205173 372.31799126 C510.96796637 373.90694413 510.96796637 373.90694413 509.72557735 375.8045826 C507.04971728 379.39687119 504.93506893 380.8262273 500.48369026 381.65346909 C495.8678556 382.00711287 491.25108128 381.94702183 486.62524414 381.90576172 C484.84409332 381.91525347 483.06295625 381.92772074 481.28184509 381.94293213 C476.45508627 381.97479535 471.62937689 381.962492 466.80260015 381.94027853 C461.74544191 381.92252824 456.68837218 381.939 451.63121033 381.94998169 C443.13817248 381.96271009 434.64556098 381.94595302 426.15258789 381.91259766 C416.34281823 381.87451483 406.53406729 381.886834 396.72432238 381.92538249 C388.29346424 381.95718274 379.86291221 381.96161394 371.43201345 381.94331181 C366.40035307 381.93241566 361.36917096 381.93089576 356.33754158 381.95406723 C351.60516805 381.97433886 346.87410313 381.96017331 342.1418705 381.91980743 C340.40852274 381.91057745 338.67506422 381.91316618 336.94176102 381.92864609 C322.22854042 382.04789949 322.22854042 382.04789949 317.14231873 377.67581177 C316.06160166 376.4797899 315.01265192 375.25417454 314 374 C312.75011713 372.74979609 311.49073974 371.50895481 310.21875 370.28125 C308.97726486 369.02270653 307.73770781 367.76225845 306.5 366.5 C302.17908303 362.13252485 297.85299477 357.8936608 293.15234375 353.93359375 C289.31964939 350.49042913 285.7535319 346.77185033 282.13037109 343.11083984 C279.18951128 340.15106268 276.25602356 337.25288637 273.0625 334.5625 C268.97378827 331.10961385 265.26265524 327.29922582 261.5 323.5 C255.91455393 317.82499967 255.91455393 317.82499967 250 312.5 C245.20564421 308.46264775 240.89694244 303.92023917 236.49047852 299.47094727 C232.83153029 295.79007002 229.12259909 292.2783384 225.15234375 288.93359375 C221.31964939 285.49042913 217.7535319 281.77185033 214.13037109 278.11083984 C211.18951128 275.15106268 208.25602356 272.25288637 205.0625 269.5625 C200.25103638 265.49925535 195.91823345 260.94173997 191.49072266 256.47119141 C187.83169113 252.7902331 184.12268808 249.27841337 180.15234375 245.93359375 C176.31964939 242.49042913 172.7535319 238.77185033 169.13037109 235.11083984 C166.18951128 232.15106268 163.25602356 229.25288637 160.0625 226.5625 C155.25103638 222.49925535 150.91823345 217.94173997 146.49072266 213.47119141 C142.83169113 209.7902331 139.12268808 206.27841337 135.15234375 202.93359375 C131.31964939 199.49042913 127.7535319 195.77185033 124.13037109 192.11083984 C121.18951128 189.15106268 118.25602356 186.25288637 115.0625 183.5625 C110.97378827 180.10961385 107.26265524 176.29922582 103.5 172.5 C97.91455393 166.82499967 97.91455393 166.82499967 92 161.5 C87.20564421 157.46264775 82.89694244 152.92023917 78.49047852 148.47094727 C74.83153029 144.79007002 71.12259909 141.2783384 67.15234375 137.93359375 C63.31964939 134.49042913 59.7535319 130.77185033 56.13037109 127.11083984 C53.18951128 124.15106268 50.25602356 121.25288637 47.0625 118.5625 C42.25103638 114.49925535 37.91823345 109.94173997 33.49072266 105.47119141 C29.83431279 101.79287047 26.12907012 98.28227221 22.16015625 94.94140625 C18.31140704 91.4824038 14.71760549 87.75607219 11.09741211 84.06030273 C10.52643799 83.48094971 9.95546387 82.90159668 9.3671875 82.3046875 C8.86300293 81.78890137 8.35881836 81.27311523 7.83935547 80.74169922 C5.33677484 78.37198722 2.64768383 76.20640319 0 74 C0 49.58 0 25.16 0 0 Z " fill="#FDFDFD" transform="translate(4252,0)"/>
<path d="M0 0 C5.93069742 0.00874756 11.86139133 0.00570646 17.7920934 0.00419545 C28.03372007 0.00315365 38.27532099 0.00935586 48.51694119 0.02067113 C59.2414491 0.03251211 69.96594595 0.04021467 80.69046032 0.04237676 C81.69603743 0.04258298 81.69603743 0.04258298 82.72192923 0.04279336 C86.1273912 0.04347016 89.53285318 0.04407288 92.93831518 0.04464711 C116.9698326 0.04883202 141.00133666 0.06226194 165.03284657 0.08125234 C188.35836669 0.09966337 211.68388313 0.11380985 235.00940907 0.12226796 C236.09061336 0.12266254 236.09061336 0.12266254 237.19366016 0.12306509 C244.43320012 0.12570245 251.67274011 0.12825403 258.91228013 0.13074281 C273.65601629 0.13581329 288.39975223 0.14145579 303.14348805 0.14744496 C304.16000913 0.14785683 304.16000913 0.14785683 305.19706599 0.14827702 C350.34163302 0.16663401 395.48618746 0.19961265 440.63074696 0.23213124 C440.63074696 62.27213124 440.63074696 124.31213124 440.63074696 188.23213124 C418.80470326 188.25400502 418.80470326 188.25400502 396.53772938 188.2763207 C365.37807762 188.30894635 334.21843687 188.34544465 303.05880177 188.39111257 C302.03880902 188.39260592 302.03880902 188.39260592 300.99821035 188.39412943 C286.21584246 188.41579399 271.43347564 188.43811711 256.65110977 188.46111752 C249.40058863 188.47239487 242.15006727 188.48352686 234.89954579 188.49458241 C234.17807758 188.49568498 233.45660937 188.49678755 232.71327848 188.49792352 C209.37863027 188.53351611 186.04398348 188.55953311 162.70931794 188.58052093 C138.70600592 188.60216119 114.70272577 188.63358861 90.699443 188.67712237 C87.29986412 188.68328354 83.90028504 188.6893342 80.50070584 188.69531751 C79.4971945 188.69708883 79.4971945 188.69708883 78.4734102 188.69889594 C67.09667307 188.71867687 55.71995517 188.72650387 44.34320275 188.73147728 C34.19641936 188.73675908 24.04968986 188.75306899 13.90293541 188.7777969 C8.06072059 188.79171678 2.218602 188.8010187 -3.6236304 188.79713941 C-97.62941396 188.74777717 -180.10012487 217.19323524 -248.05675304 283.73213124 C-253.21729942 288.9516553 -257.81297615 294.48595063 -262.36925304 300.23213124 C-263.29015764 301.34209351 -264.21345115 302.45007693 -265.13878429 303.55634999 C-306.7956334 353.76989052 -323.78493511 413.05168026 -328.36925304 477.23213124 C-393.04925304 477.23213124 -457.72925304 477.23213124 -524.36925304 477.23213124 C-524.36925304 429.84980264 -518.05922312 383.31961728 -503.36925304 338.23213124 C-502.84742443 336.60936269 -502.84742443 336.60936269 -502.31505382 334.95381093 C-483.75327631 277.67989606 -452.73719408 225.39557512 -414.36925304 179.23213124 C-413.85862316 178.6156371 -413.34799327 177.99914296 -412.82188976 177.36396718 C-405.75340836 168.86179509 -398.28785569 160.94386184 -390.36925304 153.23213124 C-387.453703 150.33106242 -384.55668178 147.412015 -381.66222179 144.48994374 C-380.29378484 143.11228729 -378.92529407 141.7346843 -377.55675304 140.35713124 C-376.88321788 139.67521718 -376.20968273 138.99330312 -375.51573741 138.29072499 C-370.97002755 133.72326532 -366.27977689 129.40397904 -361.36925304 125.23213124 C-360.74236583 124.6986205 -360.11547863 124.16510976 -359.46959484 123.61543202 C-286.4329596 61.94172202 -196.31984093 19.64285718 -89.49425304 4.04463124 C-87.72598155 3.81211659 -87.72598155 3.81211659 -85.92198741 3.57490468 C-57.30725944 0.07991795 -28.77987908 -0.05338774 0 0 Z " fill="#FDFDFD" transform="translate(524.36925303936,-0.2321312427520752)"/>
<path d="M0 0 C64.35 0 128.7 0 195 0 C195 31.52617695 195 31.52617695 193.8125 43.3125 C193.74720093 43.9880191 193.68190186 44.66353821 193.61462402 45.35952759 C186.45971214 118.92694377 160.6411834 189.38138372 120 251 C119.55865723 251.67160156 119.11731445 252.34320312 118.66259766 253.03515625 C105.28846554 273.25969876 90.20986976 292.30349892 73.703125 310.05078125 C71.65022562 312.26505397 69.67050116 314.53317529 67.69921875 316.8203125 C63.83439646 321.25336755 59.73108799 325.41642464 55.5625 329.5625 C54.85029297 330.27857422 54.13808594 330.99464844 53.40429688 331.73242188 C49.32027076 335.80902923 45.13766622 339.70766198 40.76635742 343.47436523 C38.5917144 345.35264364 36.48574652 347.30043776 34.375 349.25 C28.79273278 354.28082745 22.91697545 358.87388348 16.97314453 363.46386719 C14.91507256 365.06611773 12.87642918 366.69085589 10.83984375 368.3203125 C-60.70297328 425.27173738 -151.53795966 462.06201357 -249.5 473.3125 C-250.25651855 473.39390228 -251.01303711 473.47530457 -251.79248047 473.55917358 C-269.37717729 475.41988769 -286.82039009 476.14904312 -304.49476624 476.12025452 C-306.51409129 476.12069154 -308.53341629 476.12156884 -310.55274099 476.12284368 C-316.05550427 476.12506297 -321.55824781 476.1211028 -327.06100857 476.11606562 C-333.01236728 476.11172417 -338.96372499 476.11321016 -344.91508484 476.1139679 C-355.87988999 476.11452477 -366.84468802 476.11065366 -377.80949138 476.10462701 C-387.93078396 476.0991116 -398.05207442 476.09589415 -408.17336845 476.09487724 C-409.1822624 476.09477413 -409.1822624 476.09477413 -410.21153803 476.09466894 C-413.62774756 476.09433058 -417.04395709 476.0940292 -420.46016663 476.09374207 C-444.61480356 476.09164541 -468.76943719 476.08491859 -492.92407227 476.07543945 C-516.38012677 476.06624514 -539.83618038 476.05916637 -563.29223633 476.05493164 C-564.01611156 476.05480011 -564.73998678 476.05466859 -565.48579763 476.05453308 C-572.75569645 476.05321448 -580.02559527 476.05193868 -587.29549411 476.05069422 C-602.10320034 476.04815846 -616.91090652 476.04533721 -631.71861267 476.04234314 C-632.39934636 476.04220585 -633.08008005 476.04206856 -633.78144203 476.04192711 C-679.1876297 476.03273691 -724.59381419 476.01624944 -770 476 C-770 413.96 -770 351.92 -770 288 C-755.41901123 287.98541748 -740.83802246 287.97083496 -725.81518555 287.95581055 C-694.59079584 287.923185 -663.36641714 287.8866868 -632.14204407 287.84101868 C-631.46063916 287.84002311 -630.77923426 287.83902754 -630.07718072 287.83800181 C-615.26417963 287.81633727 -600.45117961 287.79401415 -585.63818054 287.77101372 C-578.37263812 287.75973637 -571.10709549 287.74860438 -563.84155273 287.73754883 C-563.11858968 287.73644626 -562.39562663 287.7353437 -561.6507556 287.73420772 C-538.26760557 287.6986149 -514.88445695 287.67259802 -491.50128963 287.65161031 C-467.44815941 287.62997023 -443.39506097 287.59854302 -419.34195994 287.55500887 C-415.93535376 287.5488477 -412.52874739 287.54279704 -409.12214088 287.53681374 C-408.11655482 287.53504241 -408.11655482 287.53504241 -407.09065388 287.53323531 C-395.69022139 287.51345408 -384.28980809 287.50562733 -372.88936035 287.50065396 C-362.72155224 287.49537226 -352.55379789 287.47906268 -342.38601866 287.45433434 C-336.53165229 287.44041412 -330.67738196 287.43111268 -324.82299805 287.43499184 C-290.80250294 287.50142996 -290.80250294 287.50142996 -257 284 C-256.22455349 283.8781856 -255.44910699 283.7563712 -254.6501621 283.63086545 C-250.55046294 282.97108761 -246.49439694 282.19766366 -242.4375 281.3125 C-241.24608398 281.05758789 -240.05466797 280.80267578 -238.82714844 280.54003906 C-181.20738047 267.77799996 -129.65482278 239.34313865 -86.625 199.3125 C-85.97104248 198.70704346 -85.31708496 198.10158691 -84.64331055 197.4777832 C-80.12092818 193.22613319 -76.03067075 188.71565664 -72 184 C-71.05149152 182.92790375 -70.1010853 181.8574823 -69.1484375 180.7890625 C-55.89046793 165.74854852 -44.89008353 149.41680442 -35 132 C-34.5659082 131.24170898 -34.13181641 130.48341797 -33.68457031 129.70214844 C-10.6985341 89.15414451 -2.00445888 46.10255418 0 0 Z " fill="#FDFDFD" transform="translate(770,476)"/>
<path d="M0 0 C65.34 0 130.68 0 198 0 C198 314.16 198 628.32 198 952 C132.66 952 67.32 952 0 952 C0 637.84 0 323.68 0 0 Z " fill="#FDFDFD" transform="translate(5143,0)"/>
</svg>
