<?xml version="1.0" encoding="UTF-8"?>
<svg version="1.1" xmlns="http://www.w3.org/2000/svg" width="500" height="500">
<path d="M0 0 C0.80574463 0.41523926 1.61148926 0.83047852 2.44165039 1.25830078 C7.14171335 3.75694405 11.10196737 6.43997067 15.0625 10 C13.69879701 12.99220268 12.11341917 15.29026529 9.9375 17.75 C9.39867187 18.36359375 8.85984375 18.9771875 8.3046875 19.609375 C7.89476562 20.06828125 7.48484375 20.5271875 7.0625 21 C6.40765625 20.63648438 5.7528125 20.27296875 5.078125 19.8984375 C2.08216055 18.2481181 -0.92626936 16.62228662 -3.9375 15 C-4.85144531 14.49726563 -5.76539063 13.99453125 -6.70703125 13.4765625 C-12.63874944 10.34063317 -18.65722318 7.89753874 -25 5.75 C-25.71937744 5.50378906 -26.43875488 5.25757813 -27.17993164 5.00390625 C-33.1365582 3.06107592 -38.62915642 2.14697156 -44.9375 1 C-44.9375 10.24 -44.9375 19.48 -44.9375 29 C-40.6475 29 -36.3575 29 -31.9375 29 C-18.11025502 31.41834532 -8.71095786 38.72075426 -0.5859375 49.8515625 C2.0564629 54.01476889 3.29382174 58.10368991 3.0625 63 C1.85648229 67.2565331 0.63891533 69.45103302 -2.5625 72.5 C-7.03651725 74.48845211 -10.31644294 74.6871845 -14.9375 73 C-18.94446274 69.9406298 -21.16349708 65.68892187 -23.5 61.3125 C-26.53762802 55.65059208 -30.15704104 52.86809416 -36.23706055 50.65039062 C-41.7203795 49.329754 -47.36865887 49.44221978 -52.98095703 49.4440918 C-55.17009646 49.43755199 -57.35463345 49.38303413 -59.54296875 49.32617188 C-68.73931916 49.21563772 -76.2261616 50.57038368 -83.9375 56 C-88.66139263 60.81282952 -90.10255231 65.5678747 -90.25 72.1875 C-90.17293212 79.12360956 -89.01325521 83.50989435 -84.4296875 88.7109375 C-77.45008205 95.36591014 -69.14467638 96.43622231 -59.85546875 96.37109375 C-57.93424303 96.38847849 -56.01301911 96.40606285 -54.09179688 96.42382812 C-51.11023562 96.43386705 -48.12879421 96.43750218 -45.1472168 96.43579102 C-28.97976434 96.45583497 -15.83615299 97.19232728 -3.8125 109.10546875 C5.79278969 119.3640594 8.70718799 129.94485474 8.37109375 143.76953125 C7.83270569 153.82465427 3.07919456 161.21126527 -2.9375 169 C-3.700625 170.0725 -4.46375 171.145 -5.25 172.25 C-9.04944176 176.13780087 -13.15359015 178.48341416 -17.9375 181 C-18.74936768 181.44980225 -19.56123535 181.89960449 -20.39770508 182.36303711 C-31.02494527 187.35125642 -42.07430037 186.68613485 -53.58569336 186.54199219 C-57.12735357 186.49997208 -60.66711546 186.50095079 -64.20898438 186.5078125 C-66.48699223 186.49732275 -68.76499041 186.48438581 -71.04296875 186.46875 C-72.08801071 186.46854858 -73.13305267 186.46834717 -74.20976257 186.46813965 C-86.69057207 186.26922122 -98.91626695 182.19782379 -108.40234375 173.82421875 C-114.63556798 167.10347978 -119.30778066 159.4711624 -119.15234375 150.05859375 C-118.69234874 145.65100521 -116.68391609 142.81039461 -113.75 139.625 C-110.033653 137.47777729 -107.04975683 136.91302638 -102.9375 138 C-96.20315426 141.72726453 -93.49258227 147.50740349 -90.359375 154.25390625 C-87.52036943 159.73693074 -83.35739489 162.26460709 -77.56445312 164.36938477 C-72.3603898 165.61865015 -67.01760125 165.4795133 -61.69360352 165.44604492 C-59.63910788 165.43755828 -57.58742377 165.46632241 -55.53320312 165.49804688 C-46.94127792 165.54465264 -37.80939566 165.16551627 -30.97583008 159.32275391 C-26.36410053 154.42045832 -23.82307932 148.867978 -23.5 142.125 C-23.7229745 135.46617055 -26.07480541 130.39489305 -30.125 125.1875 C-36.88898501 119.92662277 -43.40224223 118.41581472 -51.8359375 118.49609375 C-52.75154449 118.48667252 -53.66715149 118.47725128 -54.61050415 118.46754456 C-57.51140134 118.43911165 -60.41147552 118.43580717 -63.3125 118.4375 C-80.89831405 118.41542945 -95.73702057 118.2486411 -109.625 106 C-117.50781525 97.55679504 -121.86314054 85.68766305 -121.9609375 74.26171875 C-121.31170804 62.1826338 -116.26462471 50.24205412 -107.61328125 41.70703125 C-95.61649301 31.66890232 -85.55666165 29 -69.9375 29 C-69.9375 19.76 -69.9375 10.52 -69.9375 1 C-82.03455411 3.29579129 -92.72856295 5.92199166 -103.9375 11 C-104.82566406 11.37769531 -105.71382813 11.75539062 -106.62890625 12.14453125 C-129.7803071 22.6611387 -148.32014171 45.1946882 -157.35717773 68.46679688 C-159.913868 75.44315013 -161.74841314 82.51805034 -163.24609375 89.7890625 C-163.9375 93 -163.9375 93 -164.9375 95 C-169.2275 95 -173.5175 95 -177.9375 95 C-178.10705157 89.21568311 -177.60313429 84.07110322 -176.3125 78.4375 C-176.13356201 77.65592529 -175.95462402 76.87435059 -175.77026367 76.0690918 C-170.71842917 55.07979543 -159.56179675 38.44772662 -145.25 22.625 C-144.79834473 22.12460205 -144.34668945 21.6242041 -143.88134766 21.10864258 C-141.10567976 18.09513305 -138.26699082 15.39360328 -134.9375 13 C-134.2775 13 -133.6175 13 -132.9375 13 C-132.9375 12.34 -132.9375 11.68 -132.9375 11 C-129.46828658 8.38038986 -125.66211839 6.23564433 -121.9375 4 C-120.24173828 2.9790625 -120.24173828 2.9790625 -118.51171875 1.9375 C-81.58036071 -19.95445331 -37.74444775 -19.49560909 0 0 Z " fill="#F0F1F1" transform="translate(309.9375,145)"/>
<path d="M0 0 C27.98623086 -0.71272235 55.2014895 8.14779938 78.6328125 22.92626953 C80.32788648 23.98914306 82.04712104 25.01327212 83.76953125 26.03125 C115.08152532 45.76264833 133.41417366 78.26747845 142.55078125 113.12890625 C143.45356936 117.12696787 144.12521168 121.05470347 144.55078125 125.12890625 C144.6590625 126.01964844 144.76734375 126.91039062 144.87890625 127.828125 C146.01258735 138.28484149 145.72852821 148.55904453 144.67578125 159.00390625 C144.59739014 159.80054688 144.51899902 160.5971875 144.43823242 161.41796875 C143.91650166 166.18807854 143.00255379 170.5539928 141.55078125 175.12890625 C136.93078125 174.79890625 132.31078125 174.46890625 127.55078125 174.12890625 C127.88078125 172.10765625 128.21078125 170.08640625 128.55078125 168.00390625 C133.15516128 134.02714053 127.67105031 99.60594164 107.61328125 71.25390625 C104.21120677 66.80040324 100.53917167 62.62097564 96.7265625 58.515625 C94.55078125 56.12890625 94.55078125 56.12890625 92.27734375 53.234375 C89.17992519 49.4954968 85.47709866 46.66341518 81.61328125 43.75390625 C80.85893799 43.18518799 80.10459473 42.61646973 79.32739258 42.03051758 C51.74991018 21.57055515 17.22481845 11.88953392 -17.00390625 16.8125 C-38.03355887 20.47219532 -58.79094677 28.64699969 -75.44921875 42.12890625 C-75.98224609 42.55123535 -76.51527344 42.97356445 -77.06445312 43.40869141 C-96.30935057 58.74206893 -110.91536689 77.93788674 -119.44921875 101.12890625 C-119.825625 102.13566406 -120.20203125 103.14242187 -120.58984375 104.1796875 C-131.84478329 137.23057338 -126.65143429 172.41925963 -111.8984375 203.39453125 C-108.480894 210.22141943 -104.21632695 216.19284512 -99.44921875 222.12890625 C-98.80364014 222.95745117 -98.80364014 222.95745117 -98.14501953 223.80273438 C-77.75282884 249.90352869 -46.73677899 267.31769311 -13.8515625 271.73046875 C1.0870863 273.28910357 15.95777775 272.66553022 30.55078125 269.12890625 C31.5577002 268.8954248 31.5577002 268.8954248 32.58496094 268.65722656 C50.6234574 264.35580499 67.57706284 256.36080262 81.55078125 244.12890625 C82.45054687 243.35417969 83.3503125 242.57945312 84.27734375 241.78125 C86.74620278 239.60701312 89.15519917 237.38332752 91.55078125 235.12890625 C92.20175781 234.54238281 92.85273438 233.95585937 93.5234375 233.3515625 C104.9913224 222.59011814 112.67441283 209.87568949 118.9855957 195.58374023 C119.62307739 194.15396851 119.62307739 194.15396851 120.2734375 192.6953125 C120.64218994 191.83881104 121.01094238 190.98230957 121.39086914 190.09985352 C122.55078125 188.12890625 122.55078125 188.12890625 125.55078125 187.12890625 C127.6166524 187.21463852 129.6802465 187.3672416 131.73828125 187.56640625 C132.82496094 187.66824219 133.91164063 187.77007812 135.03125 187.875 C135.86269531 187.95878906 136.69414062 188.04257812 137.55078125 188.12890625 C136.40973498 194.20187651 134.78039766 199.61889502 132.11328125 205.19140625 C131.77200195 205.91239502 131.43072266 206.63338379 131.07910156 207.3762207 C127.38461072 214.89855093 122.69309904 221.65400809 117.7746582 228.41674805 C116.59698187 230.06427331 115.47674769 231.75240083 114.359375 233.44140625 C112.34821319 236.42991452 110.15778477 238.63776955 107.55078125 241.12890625 C106.91269531 241.78761719 106.27460938 242.44632813 105.6171875 243.125 C78.66532002 270.84554819 42.31921375 287.28766908 3.53125 288.1640625 C-10.43325154 288.21045619 -24.04087638 285.91921795 -37.44921875 282.12890625 C-38.17995605 281.92281738 -38.91069336 281.71672852 -39.66357422 281.50439453 C-55.91693222 276.7895454 -70.04794788 269.46586214 -83.44921875 259.12890625 C-86.27488034 257.1073558 -89.10709591 255.09533662 -91.94140625 253.0859375 C-101.89227539 245.32053962 -110.68342037 234.75653112 -117.44921875 224.12890625 C-118.51076172 222.48341797 -118.51076172 222.48341797 -119.59375 220.8046875 C-128.43046138 206.79378667 -134.72544914 192.26524121 -138.44921875 176.12890625 C-138.84273831 174.69077113 -139.23810465 173.25313764 -139.63671875 171.81640625 C-143.86706223 152.61715509 -143.13818863 130.18670969 -138.44921875 111.12890625 C-138.2776123 110.42411133 -138.10600586 109.71931641 -137.92919922 108.99316406 C-134.13240272 93.92134096 -128.32398387 79.92763776 -119.44921875 67.12890625 C-118.69319711 66.01226897 -117.93803103 64.89505209 -117.18359375 63.77734375 C-107.60921364 49.70351741 -107.60921364 49.70351741 -101.69921875 44.81640625 C-98.72269722 42.2982359 -96.04834595 39.66349523 -93.38671875 36.81640625 C-87.48025366 30.84904977 -80.56156317 26.51335148 -73.44921875 22.12890625 C-72.84883789 21.75846191 -72.24845703 21.38801758 -71.62988281 21.00634766 C-49.47391649 7.50333335 -25.76912004 1.35626948 0 0 Z " fill="#E9EAEA" transform="translate(250.44921875,107.87109375)"/>
<path d="M0 0 C12.86839731 5.43653639 22.90021519 25.68140622 28 38 C39.41036335 69.70704258 40.65496754 102.99384139 26.95849609 134.38720703 C22.90139196 142.97734827 18.17838895 150.76642553 12 158 C10.70729283 159.66585976 9.41567241 161.33256326 8.125 163 C-6.77544433 181.51789324 -26.40733468 194.28105295 -49 201.1875 C-49.81871582 201.43781982 -50.63743164 201.68813965 -51.48095703 201.94604492 C-62.15066368 205.08163651 -72.3142827 206.38732148 -83.4375 206.375 C-84.65147461 206.37628906 -85.86544922 206.37757813 -87.11621094 206.37890625 C-97.76828108 206.25546904 -107.71017881 204.65543773 -118 202 C-117.46148032 196.72250715 -116.22656164 192.74354436 -114 188 C-111.54093963 188.47565766 -109.08279007 188.95536052 -106.625 189.4375 C-105.57699219 189.63956055 -105.57699219 189.63956055 -104.5078125 189.84570312 C-99.2265625 190.88671875 -99.2265625 190.88671875 -97 192 C-97 185.4 -97 178.8 -97 172 C-89.08 172 -81.16 172 -73 172 C-72.835 174.76375 -72.67 177.5275 -72.5 180.375 C-72.44779297 181.24431152 -72.39558594 182.11362305 -72.34179688 183.00927734 C-72 188.77777778 -72 188.77777778 -72 191 C-57.77539704 188.84361072 -44.41996133 185.33993751 -32.2109375 177.41015625 C-30.08860691 176.0565143 -27.94623711 174.9799057 -25.6875 173.875 C-18.87492933 170.13050194 -13.49391045 164.41290105 -8 159 C-7.278125 158.31421875 -6.55625 157.6284375 -5.8125 156.921875 C13.41882793 137.20976387 22.24288132 108.3247767 22.3190918 81.35473633 C21.92493196 56.17682325 10.52869137 30.75286884 -6 12 C-6.99 11.505 -6.99 11.505 -8 11 C-7.43040847 7.37386801 -6.07625466 5.74482259 -3.4375 3.25 C-2.79683594 2.63640625 -2.15617187 2.0228125 -1.49609375 1.390625 C-1.00238281 0.93171875 -0.50867188 0.4728125 0 0 Z " fill="#E9EAEA" transform="translate(337,167)"/>
<path d="M0 0 C4.62 0 9.24 0 14 0 C14.13535156 1.28390625 14.27070313 2.5678125 14.41015625 3.890625 C17.35054212 28.98558629 26.34926088 54.53670956 45.25 72.1875 C46.1575 73.115625 47.065 74.04375 48 75 C47.78098135 78.5042984 46.08527299 80.37365167 43.6875 82.8125 C43.09324219 83.43769531 42.49898437 84.06289063 41.88671875 84.70703125 C40 86 40 86 38.0234375 85.953125 C22.71618246 78.74275776 11.38811218 52.18731838 5.6875 37.25 C1.47396844 24.81448872 -0.18685762 13.08003336 0 0 Z " fill="#E6E7E7" transform="translate(131,254)"/>
<path d="M0 0 C7.92 0 15.84 0 24 0 C26.09231398 4.18462795 25 9.32144372 25 14 C16.75 14 8.5 14 0 14 C0 9.38 0 4.76 0 0 Z " fill="#DADBDC" transform="translate(240,280)"/>
<path d="M0 0 C0.98162109 -0.00128906 1.96324219 -0.00257813 2.97460938 -0.00390625 C4.51665039 0.00189453 4.51665039 0.00189453 6.08984375 0.0078125 C7.12173828 0.00394531 8.15363281 0.00007812 9.21679688 -0.00390625 C10.19712891 -0.00261719 11.17746094 -0.00132812 12.1875 0 C13.54307007 0.00169189 13.54307007 0.00169189 14.92602539 0.00341797 C17.02734375 0.1328125 17.02734375 0.1328125 18.02734375 1.1328125 C18.12608191 3.13080822 18.15706174 5.13238408 18.15234375 7.1328125 C18.15621094 8.7725 18.15621094 8.7725 18.16015625 10.4453125 C18.02734375 13.1328125 18.02734375 13.1328125 17.02734375 14.1328125 C15.24663129 14.22007473 13.46251235 14.23980291 11.6796875 14.23046875 C10.60009766 14.22724609 9.52050781 14.22402344 8.40820312 14.22070312 C7.27189453 14.21232422 6.13558594 14.20394531 4.96484375 14.1953125 C3.82466797 14.19080078 2.68449219 14.18628906 1.50976562 14.18164062 C-1.31773043 14.1698101 -4.1451997 14.151874 -6.97265625 14.1328125 C-6.97265625 9.8428125 -6.97265625 5.5528125 -6.97265625 1.1328125 C-4.4826996 -0.11216583 -2.78270714 0.00346878 0 0 Z " fill="#DDDEDF" transform="translate(246.97265625,210.8671875)"/>
<path d="M0 0 C5.83596122 1.53577927 11.1612544 4.41878151 16 8 C17 11 17 11 16.00390625 13.48046875 C15.52824219 14.37378906 15.05257812 15.26710938 14.5625 16.1875 C14.08941406 17.08855469 13.61632812 17.98960937 13.12890625 18.91796875 C12.75636719 19.60503906 12.38382813 20.29210937 12 21 C7.1233945 20.44986668 3.72299789 18.28501409 -0.3125 15.6875 C-0.95767578 15.29626953 -1.60285156 14.90503906 -2.26757812 14.50195312 C-4.11328125 13.32421875 -4.11328125 13.32421875 -7 11 C-7 7 -7 7 -5.46875 5.078125 C-4.8190625 4.47484375 -4.169375 3.8715625 -3.5 3.25 C-2.8503125 2.63640625 -2.200625 2.0228125 -1.53125 1.390625 C-1.0259375 0.93171875 -0.520625 0.4728125 0 0 Z " fill="#E0E3E3" transform="translate(191,341)"/>
<path d="M0 0 C4.45850936 0.79616239 5.90783917 1.93313458 8.5 5.625 C9.125 9.125 9.125 9.125 8.5 12.625 C6.07855492 15.97229173 4.62569154 17.38549116 0.5625 18.25 C-3.69081827 17.38197586 -5.61949992 15.84841676 -8.5 12.625 C-9.1875 9.125 -9.1875 9.125 -8.5 5.625 C-5.90783917 1.93313458 -4.45850936 0.79616239 0 0 Z " fill="#E2E4E3" transform="translate(166.5,241.375)"/>
<path d="M0 0 C2.4375 1.5 2.4375 1.5 4 4 C4.59107389 8.65470688 4.59775838 10.8523039 2.4375 15 C0 17 0 17 -3.4375 17.625 C-7.9396067 16.83515672 -9.38431879 15.72536415 -12 12 C-12.625 8.5 -12.625 8.5 -12 5 C-8.59008657 0.14345663 -5.84624621 -0.95665847 0 0 Z " fill="#E6E6E6" transform="translate(342,242)"/>
<path d="M0 0 C7.92 0 15.84 0 24 0 C24.33 4.95 24.66 9.9 25 15 C24.01 15.495 24.01 15.495 23 16 C23 12.7 23 9.4 23 6 C15.74 6 8.48 6 1 6 C1 10.62 1 15.24 1 20 C0.67 20 0.34 20 0 20 C0 13.4 0 6.8 0 0 Z " fill="#A0A3A6" transform="translate(240,339)"/>
<path d="M0 0 C0.66 0 1.32 0 2 0 C0.64362912 4.06911265 -1.74328014 5.13824924 -5.1875 7.5 C-7.28203574 8.96403454 -7.28203574 8.96403454 -8 12 C-9.63260714 13.37482707 -11.30225062 14.70647667 -13 16 C-14.0173873 16.98230498 -15.02596117 17.97469597 -16 19 C-16.66 18.67 -17.32 18.34 -18 18 C-16.27538679 16.07906479 -14.54557391 14.163278 -12.8125 12.25 C-12.32974609 11.71117187 -11.84699219 11.17234375 -11.34960938 10.6171875 C-8.44542957 7.4206406 -5.53768484 4.51731633 -2 2 C-1.34 2 -0.68 2 0 2 C0 1.34 0 0.68 0 0 Z " fill="#A2A2A2" transform="translate(177,156)"/>
<path d="M0 0 C0.99 0 1.98 0 3 0 C3.33 4.62 3.66 9.24 4 14 C3.01 14.495 3.01 14.495 2 15 C2 11.7 2 8.4 2 5 C-2.62 5 -7.24 5 -12 5 C-12 4.67 -12 4.34 -12 4 C-8.04 4 -4.08 4 0 4 C0 2.68 0 1.36 0 0 Z " fill="#B6B8BA" transform="translate(261,340)"/>
<path d="M0 0 C0.99 0.66 1.98 1.32 3 2 C-0.75 5 -0.75 5 -3 5 C-3.33 5.99 -3.66 6.98 -4 8 C-7.0625 9.1875 -7.0625 9.1875 -10 10 C-10.66 9.34 -11.32 8.68 -12 8 C-11.20335937 7.63648438 -11.20335937 7.63648438 -10.390625 7.265625 C-6.26007376 5.30587441 -3.02889453 3.53371028 0 0 Z " fill="#B8B9B9" transform="translate(282,301)"/>
<path d="M0 0 C1.24546405 2.49092811 0.7767578 3.41080733 0 6 C0.66 6 1.32 6 2 6 C2.33 5.34 2.66 4.68 3 4 C3.33 5.65 3.66 7.3 4 9 C-0.67692308 7.52307692 -0.67692308 7.52307692 -2.3125 4.875 C-2.539375 4.25625 -2.76625 3.6375 -3 3 C-2.01 2.01 -1.02 1.02 0 0 Z " fill="#B2B6B6" transform="translate(186,346)"/>
<path d="M0 0 C3.875 1.75 3.875 1.75 5 4 C2.125 4.625 2.125 4.625 -1 5 C-1.66 4.34 -2.32 3.68 -3 3 C-2.01 2.01 -1.02 1.02 0 0 Z " fill="#CCCFCF" transform="translate(337,167)"/>
<path d="M0 0 C0.33 0.99 0.66 1.98 1 3 C-1.64 5.64 -4.28 8.28 -7 11 C-7.66 10.67 -8.32 10.34 -9 10 C-8.06409496 8.8944811 -7.12620142 7.79064547 -6.1875 6.6875 C-5.66542969 6.07261719 -5.14335937 5.45773437 -4.60546875 4.82421875 C-3.12827531 3.14575321 -1.59960869 1.56117966 0 0 Z " fill="#B4B5B5" transform="translate(335,319)"/>
<path d="M0 0 C2.97 0.495 2.97 0.495 6 1 C6 1.66 6 2.32 6 3 C6.66 3.33 7.32 3.66 8 4 C7.67 4.33 7.34 4.66 7 5 C7.66 5.33 8.32 5.66 9 6 C8.67 6.66 8.34 7.32 8 8 C6.66372225 6.85760183 5.33104612 5.71098945 4 4.5625 C3.2575 3.92441406 2.515 3.28632813 1.75 2.62890625 C1.1725 2.09136719 0.595 1.55382812 0 1 C0 0.67 0 0.34 0 0 Z " fill="#AFB2B1" transform="translate(151,353)"/>
<path d="M0 0 C1.32 1.65 2.64 3.3 4 5 C3.34 5.66 2.68 6.32 2 7 C0.35 5.35 -1.3 3.7 -3 2 C-2.01 1.34 -1.02 0.68 0 0 Z " fill="#D7D6D7" transform="translate(159,305)"/>
<path d="M0 0 C0.33 0.66 0.66 1.32 1 2 C-1.35380297 5.92300495 -3.64464931 6.83857315 -8 8 C-5.33333333 5.33333333 -2.66666667 2.66666667 0 0 Z " fill="#AEB0B2" transform="translate(338,347)"/>
<path d="M0 0 C0.33 0.66 0.66 1.32 1 2 C1.99 2 2.98 2 4 2 C3.67 5.3 3.34 8.6 3 12 C2.67 12 2.34 12 2 12 C1.34 8.04 0.68 4.08 0 0 Z " fill="#A3A5A4" transform="translate(112,281)"/>
<path d="M0 0 C1.66611905 -0.042721 3.33382885 -0.04063832 5 0 C6 1 6 1 6.0625 3.5625 C6.041875 4.366875 6.02125 5.17125 6 6 C3.97945196 4.35830472 1.97956942 2.69088222 0 1 C0 0.67 0 0.34 0 0 Z " fill="#D2D2D3" transform="translate(160,330)"/>
<path d="M0 0 C0 0.33 0 0.66 0 1 C-2.01822917 1.45572917 -4.03645833 1.91145833 -6.0546875 2.3671875 C-8.20719964 2.90474428 -8.20719964 2.90474428 -10 5 C-10.66 4.34 -11.32 3.68 -12 3 C-8.2391768 -0.7608232 -5.0273023 -0.25136512 0 0 Z " fill="#9FA1A0" transform="translate(207,283)"/>
<path d="M0 0 C3.3 0.99 6.6 1.98 10 3 C8.02 3.99 8.02 3.99 6 5 C2.75 3.625 2.75 3.625 0 2 C0 1.34 0 0.68 0 0 Z " fill="#B2B3B5" transform="translate(198,369)"/>
<path d="M0 0 C2.64 1.98 5.28 3.96 8 6 C7.34 6.66 6.68 7.32 6 8 C5.34 6.68 4.68 5.36 4 4 C3.01 4 2.02 4 1 4 C0.67 2.68 0.34 1.36 0 0 Z " fill="#A4A6A8" transform="translate(172,352)"/>
<path d="M0 0 C0.99 0 1.98 0 3 0 C1.70700306 2.88437779 0.34058637 4.87219421 -2 7 C-2 5.35 -2 3.7 -2 2 C-1.34 2 -0.68 2 0 2 C0 1.34 0 0.68 0 0 Z " fill="#CACACC" transform="translate(370,328)"/>
<path d="M0 0 C1.32 1.65 2.64 3.3 4 5 C2.02 5.99 2.02 5.99 0 7 C-1.125 2.25 -1.125 2.25 0 0 Z " fill="#B8BABB" transform="translate(217,297)"/>
<path d="M0 0 C0.66 0.33 1.32 0.66 2 1 C0.02 3.31 -1.96 5.62 -4 8 C-4.66 7.67 -5.32 7.34 -6 7 C-4.02 4.69 -2.04 2.38 0 0 Z " fill="#C1C1C1" transform="translate(143,159)"/>
</svg>
