<?xml version="1.0" encoding="UTF-8"?>
<svg version="1.1" xmlns="http://www.w3.org/2000/svg" width="2048" height="2048">
<path d="M0 0 C4.98259317 0.00916783 9.96471662 0.00229393 14.94726562 -0.02050781 C45.09232137 -0.15781838 74.7654343 0.68587009 104.73890686 3.99214172 C110.50199549 4.62071473 116.2774724 5.06993683 122.05761719 5.50854492 C130.28273228 6.19673263 138.36623668 7.35514354 146.50292969 8.72729492 C150.90284055 9.45776002 155.31156788 9.96974237 159.74511719 10.44604492 C166.23632687 11.15436788 172.56138525 12.25825249 178.94433594 13.66479492 C182.41055711 14.3857097 185.89337745 14.85519003 189.40136719 15.32885742 C197.61581288 16.47629971 205.69461422 18.11779988 213.80761719 19.82104492 C215.32802824 20.13736232 216.8484548 20.45360523 218.36889648 20.76977539 C227.60333452 22.69755594 236.81181718 24.69963685 245.97216797 26.95581055 C248.28716979 27.51681992 250.60735397 28.05257594 252.92871094 28.58666992 C265.40963919 31.4730293 277.71457832 34.80388174 289.99511719 38.44604492 C291.30971924 38.83542236 291.30971924 38.83542236 292.65087891 39.23266602 C301.78799154 41.94537772 310.91205654 44.70154257 320.01464844 47.52807617 C322.00825028 48.14209509 324.00574844 48.74359783 326.00683594 49.33276367 C333.27453891 51.49392503 340.36726837 54.00388548 347.46508789 56.65917969 C354.37720915 59.24081534 361.33418056 61.6785433 368.3215332 64.04882812 C372.73885011 65.56868232 376.83332554 67.30116841 380.99511719 69.44604492 C382.27495133 69.89775109 383.56677421 70.31748057 384.87011719 70.69604492 C390.09740821 72.36771667 395.04414266 74.59981543 400.05249023 76.82568359 C403.73712676 78.46181248 407.42414727 80.04691773 411.18261719 81.50854492 C416.09068314 83.43376271 420.85146164 85.64621659 425.62402344 87.88354492 C431.14090979 90.44061855 436.70378312 92.89047399 442.28417969 95.30541992 C450.81695319 99.01379718 459.09672687 102.97516462 467.26074219 107.43432617 C471.24645703 109.60439722 475.30233573 111.62266684 479.37011719 113.63354492 C484.2669502 116.06073659 489.10939336 118.5372637 493.86230469 121.23901367 C496.36692479 122.65646351 498.8992959 124.01809181 501.43261719 125.38354492 C505.8574352 127.78980896 510.17234722 130.33803042 514.47558594 132.95385742 C517.05280646 134.48021128 519.66717098 135.90720252 522.30761719 137.32104492 C527.52495009 140.13488739 532.54140456 143.21901285 537.56933594 146.35620117 C542.32105106 149.29022964 547.2124481 151.97879115 552.09667969 154.68432617 C554.54101673 156.17003507 556.02816429 157.45782766 557.99511719 159.44604492 C559.80091246 160.5148364 561.63762433 161.53236252 563.49511719 162.50854492 C566.43930418 164.06374047 569.22195013 165.59726689 571.99511719 167.44604492 C571.99511719 168.10604492 571.99511719 168.76604492 571.99511719 169.44604492 C572.74148438 169.72577148 573.48785156 170.00549805 574.25683594 170.29370117 C576.69766243 171.32086781 578.63524569 172.39252824 580.80761719 173.88354492 C581.57203125 174.40432617 582.33644531 174.92510742 583.12402344 175.46166992 C584.54521484 176.44393555 584.54521484 176.44393555 585.99511719 177.44604492 C588.02808086 178.84852257 590.06148716 180.25035195 592.09545898 181.65136719 C593.50584987 182.6238241 594.91491473 183.59820762 596.32250977 184.57470703 C599.16952345 186.54277689 601.97233645 188.43301458 604.97949219 190.15307617 C605.64464844 190.57975586 606.30980469 191.00643555 606.99511719 191.44604492 C606.99511719 192.10604492 606.99511719 192.76604492 606.99511719 193.44604492 C607.71699219 193.69483398 608.43886719 193.94362305 609.18261719 194.19995117 C612.26406788 195.56520502 614.41779715 197.22101233 616.99511719 199.38354492 C619.54702748 201.51678243 621.92593785 203.40597855 624.80761719 205.07495117 C625.89042969 205.75364258 625.89042969 205.75364258 626.99511719 206.44604492 C626.99511719 207.10604492 626.99511719 207.76604492 626.99511719 208.44604492 C627.73246094 208.70901367 628.46980469 208.97198242 629.22949219 209.24291992 C632.02187874 210.45768695 633.90681512 211.76147846 636.24511719 213.69604492 C637.10363281 214.39987305 637.96214844 215.10370117 638.84667969 215.82885742 C639.89639916 216.70096409 640.9458505 217.57339355 641.99511719 218.44604492 C644.12114693 220.20505041 646.24855438 221.9623675 648.37695312 223.71850586 C649.83793674 224.92507352 651.29702198 226.1339447 652.75390625 227.34545898 C656.91101099 230.78869786 661.13132165 234.06253935 665.53955078 237.17993164 C666.26005615 237.80665771 666.26005615 237.80665771 666.99511719 238.44604492 C666.99511719 239.10604492 666.99511719 239.76604492 666.99511719 240.44604492 C668.07792969 240.78635742 668.07792969 240.78635742 669.18261719 241.13354492 C671.89917111 242.40127009 673.38284022 243.70676982 675.39355469 245.87963867 C678.3439116 248.76523165 681.70708343 251.1750352 684.98339844 253.67651367 C685.64726563 254.26045898 686.31113281 254.8444043 686.99511719 255.44604492 C686.99511719 256.10604492 686.99511719 256.76604492 686.99511719 257.44604492 C687.57849854 257.70724121 688.16187988 257.9684375 688.76293945 258.23754883 C691.12981785 259.51897157 692.77105392 260.92174469 694.70996094 262.78198242 C695.39638672 263.43424805 696.0828125 264.08651367 696.79003906 264.75854492 C697.49708984 265.43916992 698.20414063 266.11979492 698.93261719 266.82104492 C700.33592909 268.16390251 701.74083843 269.50509304 703.14746094 270.84448242 C704.13721924 271.78759277 704.13721924 271.78759277 705.14697266 272.74975586 C706.69871876 274.1740005 708.34050445 275.49926096 709.99902344 276.79760742 C710.65773438 277.3415918 711.31644531 277.88557617 711.99511719 278.44604492 C711.99511719 279.10604492 711.99511719 279.76604492 711.99511719 280.44604492 C712.95417969 280.84823242 712.95417969 280.84823242 713.93261719 281.25854492 C715.99511719 282.44604492 715.99511719 282.44604492 716.99511719 285.44604492 C717.65511719 285.77604492 718.31511719 286.10604492 718.99511719 286.44604492 C719.65511719 286.77604492 720.31511719 287.10604492 720.99511719 287.44604492 C721.32511719 288.43604492 721.65511719 289.42604492 721.99511719 290.44604492 C723.31850351 291.13224524 724.65461666 291.79390953 725.99511719 292.44604492 C730.36232683 295.74571443 733.84905277 299.40448834 737.38183594 303.57885742 C738.95277881 305.45974577 738.95277881 305.45974577 740.70214844 307.06323242 C741.99511719 308.44604492 741.99511719 308.44604492 741.99511719 310.44604492 C742.95417969 310.84823242 742.95417969 310.84823242 743.93261719 311.25854492 C745.99511719 312.44604492 745.99511719 312.44604492 746.99511719 315.44604492 C747.65511719 315.77604492 748.31511719 316.10604492 748.99511719 316.44604492 C749.65511719 316.77604492 750.31511719 317.10604492 750.99511719 317.44604492 C751.32511719 318.43604492 751.65511719 319.42604492 751.99511719 320.44604492 C753.32613776 321.1173172 754.65988859 321.78318233 755.99511719 322.44604492 C758.00292969 324.44213867 758.00292969 324.44213867 760.12011719 326.88354492 C762.65254131 329.77834587 765.18236286 332.66674862 767.80371094 335.48120117 C768.49279541 336.22382202 768.49279541 336.22382202 769.19580078 336.98144531 C770.50352939 338.38787484 771.81372399 339.7920102 773.12402344 341.19604492 C774.99511719 343.44604492 774.99511719 343.44604492 774.99511719 345.44604492 C775.65511719 345.44604492 776.31511719 345.44604492 776.99511719 345.44604492 C778.47280936 347.08037247 779.87781038 348.7808086 781.24511719 350.50854492 C783.95460328 353.90525124 786.67311864 357.2591814 789.55761719 360.50854492 C791.99511719 363.44604492 791.99511719 363.44604492 791.99511719 365.44604492 C792.56101562 365.65616211 793.12691406 365.8662793 793.70996094 366.08276367 C796.76485857 367.90525816 798.50634291 370.4286607 800.55761719 373.25854492 C804.09467989 378.00694867 807.75067041 382.5894975 811.62011719 387.07104492 C816.40628412 392.64320013 820.7410261 398.45636013 824.99511719 404.44604492 C825.98987127 405.78329661 826.9895184 407.1169291 827.99511719 408.44604492 C828.99600173 409.77871439 829.99590492 411.11212115 830.99511719 412.44604492 C832.05859375 413.86530273 832.05859375 413.86530273 833.14355469 415.31323242 C833.87832031 416.30581055 834.61308594 417.29838867 835.37011719 418.32104492 C836.05847656 419.2465918 836.74683594 420.17213867 837.45605469 421.12573242 C838.99511719 423.44604492 838.99511719 423.44604492 838.99511719 425.44604492 C839.65511719 425.44604492 840.31511719 425.44604492 840.99511719 425.44604492 C842.44042969 427.46557617 842.44042969 427.46557617 844.12011719 430.25854492 C846.60305284 434.2817249 849.17868591 438.14879419 851.99511719 441.94604492 C862.99511719 456.87768555 862.99511719 456.87768555 862.99511719 460.44604492 C863.65511719 460.44604492 864.31511719 460.44604492 864.99511719 460.44604492 C866.61621094 462.67651367 866.61621094 462.67651367 868.43261719 465.63354492 C869.02945312 466.59647461 869.62628906 467.5594043 870.24121094 468.55151367 C871.33421032 470.3553278 872.42232766 472.16212051 873.50292969 473.97338867 C875.10038748 476.62048497 876.75999772 479.22084806 878.43261719 481.82104492 C886.04636076 493.78779378 886.04636076 493.78779378 887.99511719 500.44604492 C888.65511719 500.44604492 889.31511719 500.44604492 889.99511719 500.44604492 C890.54039062 501.46311523 890.54039062 501.46311523 891.09667969 502.50073242 C893.63188202 507.194107 896.20154911 511.838454 898.99511719 516.38354492 C901.83099383 521.03824298 904.22017941 525.85857405 906.61621094 530.75073242 C908.20187531 533.85018969 910.01969122 536.58508318 911.99511719 539.44604492 C913.01459759 541.43618555 914.01134764 543.43801168 914.99511719 545.44604492 C918.69551516 552.92218833 922.40056098 560.38369857 926.36425781 567.72460938 C930.6615763 575.69116245 934.47444715 583.77859564 938.08105469 592.07885742 C939.89010854 596.23986533 941.80321659 600.34572155 943.74511719 604.44604492 C945.99853331 609.22017894 948.07498293 614.0245587 949.97558594 618.94995117 C951.16433297 621.86033183 952.51349461 624.6726078 953.87011719 627.50854492 C956.60515645 633.33777002 958.79478051 639.2531968 960.81494141 645.35839844 C961.99074852 648.85285714 963.28317626 652.1221395 964.98730469 655.39526367 C967.1637766 659.60934942 968.56394181 663.93570224 969.99511719 668.44604492 C970.56496319 670.11335982 971.14072259 671.77866271 971.72167969 673.44213867 C972.02702637 674.31789551 972.33237305 675.19365234 972.64697266 676.09594727 C973.1286792 677.47580811 973.1286792 677.47580811 973.62011719 678.88354492 C973.96059082 679.86274902 974.30106445 680.84195313 974.65185547 681.85083008 C976.57269533 687.37487655 978.50440062 692.89489275 980.44824219 698.41088867 C981.25558784 700.71425517 982.06288069 703.01764017 982.87011719 705.32104492 C983.25119629 706.39539795 983.63227539 707.46975098 984.02490234 708.57666016 C985.85303069 713.80779974 987.4333961 718.93934026 988.54296875 724.3684082 C989.28871902 727.79515487 990.35948141 731.11009982 991.43261719 734.44604492 C991.65288574 735.14318604 991.8731543 735.84032715 992.10009766 736.55859375 C993.22428531 740.10172596 994.39422997 743.62452384 995.62011719 747.13354492 C997.52991443 752.78783225 998.71262979 758.62449219 999.99511719 764.44604492 C1001.47566471 771.13682524 1003.05059091 777.74810248 1004.99511719 784.32104492 C1006.35538461 788.98316678 1007.48468925 793.61099814 1008.40136719 798.37963867 C1009.4474235 803.74218941 1010.54820347 809.08868006 1011.71386719 814.42651367 C1014.68509691 828.08814311 1017.56068699 841.69232558 1019.44824219 855.55541992 C1019.87979916 858.62563949 1020.39641844 861.60805974 1021.05761719 864.63354492 C1022.0987188 869.53184269 1022.62516669 874.47879614 1023.17504883 879.45043945 C1023.71769123 884.28773872 1024.3733158 889.09541692 1025.1027832 893.90795898 C1026.63207519 904.04487139 1027.6748497 914.15355116 1028.4284668 924.37597656 C1028.79181161 929.12623055 1029.23457502 933.86031769 1029.73364258 938.59814453 C1032.35113108 964.53099774 1032.49146216 990.40403639 1032.44116211 1016.45092773 C1032.43199428 1021.43352091 1032.43886818 1026.41564435 1032.46166992 1031.39819336 C1032.59898049 1061.54324911 1031.75529202 1091.21636204 1028.44902039 1121.18983459 C1027.82044738 1126.95292322 1027.37122528 1132.72840014 1026.93261719 1138.50854492 C1026.24442947 1146.73366001 1025.08601857 1154.81716442 1023.71386719 1162.95385742 C1022.98340209 1167.35376829 1022.47141974 1171.76249561 1021.99511719 1176.19604492 C1021.28679423 1182.6872546 1020.18290961 1189.01231298 1018.77636719 1195.39526367 C1018.05545241 1198.86148484 1017.58597208 1202.34430518 1017.11230469 1205.85229492 C1015.96485657 1214.06678234 1014.32300817 1222.14543985 1012.62011719 1230.25854492 C1012.30451115 1231.77675435 1011.98900081 1233.29498367 1011.67358398 1234.81323242 C1009.8676654 1243.47050888 1007.98796608 1252.10358793 1005.89355469 1260.69604492 C1005.02892243 1264.30494477 1004.23292217 1267.92253001 1003.45043945 1271.54980469 C1002.1420667 1277.60434433 1000.8303127 1283.53158541 998.69091797 1289.35839844 C998.00039986 1291.43019504 997.52362341 1293.45627839 997.08496094 1295.59448242 C996.02577836 1300.47998701 994.64586236 1305.230717 993.18261719 1310.00854492 C992.91908447 1310.87769531 992.65555176 1311.7468457 992.3840332 1312.64233398 C990.35844078 1319.30525829 988.29775253 1325.95716664 986.20214844 1332.59838867 C985.39170884 1335.16923609 984.59871238 1337.74452193 983.81933594 1340.32495117 C981.38348653 1348.34516276 978.67201203 1356.21981817 975.73095703 1364.0690918 C973.16321901 1370.92939676 970.74520631 1377.83641613 968.39208984 1384.77319336 C966.87231058 1389.1902501 965.13986942 1393.28449442 962.99511719 1397.44604492 C962.54341102 1398.72587906 962.12368154 1400.01770194 961.74511719 1401.32104492 C960.07344544 1406.54833594 957.84134668 1411.4950704 955.61547852 1416.50341797 C953.97934963 1420.18805449 952.39424438 1423.87507501 950.93261719 1427.63354492 C949.0073994 1432.54161088 946.79494552 1437.30238937 944.55761719 1442.07495117 C942.00054356 1447.59183752 939.55068812 1453.15471086 937.13574219 1458.73510742 C933.42618625 1467.270593 929.46295338 1475.55259615 925.00292969 1483.71948242 C922.85656442 1487.6618288 920.85888661 1491.67245435 918.87011719 1495.69604492 C915.72910335 1502.03355143 912.43984167 1508.26725545 908.99511719 1514.44604492 C908.57617188 1515.21174805 908.15722656 1515.97745117 907.72558594 1516.76635742 C905.59073613 1520.65652819 903.37696639 1524.4752948 901.05761719 1528.25854492 C898.18178991 1532.99957283 895.71084516 1537.89237999 893.29199219 1542.87963867 C891.99511719 1545.44604492 891.99511719 1545.44604492 889.99511719 1548.44604492 C889.33511719 1548.44604492 888.67511719 1548.44604492 887.99511719 1548.44604492 C887.62386719 1549.71448242 887.62386719 1549.71448242 887.24511719 1551.00854492 C883.2596309 1561.96863222 875.46459835 1571.81987322 868.99511719 1581.44604492 C866.56417284 1585.06511953 864.18301694 1588.70906692 861.85009766 1592.39208984 C858.07268414 1598.34531357 854.12781667 1604.09919682 849.91699219 1609.75854492 C847.22305732 1613.52567335 844.82645312 1617.4590561 842.44042969 1621.42651367 C841.96347656 1622.09295898 841.48652344 1622.7594043 840.99511719 1623.44604492 C840.33511719 1623.44604492 839.67511719 1623.44604492 838.99511719 1623.44604492 C838.74503906 1624.16920898 838.49496094 1624.89237305 838.23730469 1625.63745117 C836.88578653 1628.69324223 835.26129207 1630.82625493 833.12011719 1633.38354492 C830.15419633 1636.94152223 827.55928122 1640.59001199 824.99511719 1644.44604492 C823.39008072 1646.57067794 821.77273595 1648.67195743 820.12011719 1650.75854492 C819.65323486 1651.35103027 819.18635254 1651.94351562 818.70532227 1652.55395508 C814.20162064 1658.24075154 809.58745944 1663.83613102 804.94287109 1669.40820312 C801.55012607 1673.49315459 798.33500787 1677.64534161 795.26782227 1681.98168945 C794.63783325 1682.70654541 794.63783325 1682.70654541 793.99511719 1683.44604492 C793.33511719 1683.44604492 792.67511719 1683.44604492 791.99511719 1683.44604492 C791.76824219 1684.16791992 791.54136719 1684.88979492 791.30761719 1685.63354492 C790.03989202 1688.35009885 788.73439229 1689.83376796 786.56152344 1691.84448242 C783.67593046 1694.79483933 781.2661269 1698.15801116 778.76464844 1701.43432617 C778.18070313 1702.09819336 777.59675781 1702.76206055 776.99511719 1703.44604492 C776.33511719 1703.44604492 775.67511719 1703.44604492 774.99511719 1703.44604492 C774.7339209 1704.02942627 774.47272461 1704.61280762 774.20361328 1705.21386719 C772.92219054 1707.58074559 771.51941742 1709.22198165 769.65917969 1711.16088867 C768.68078125 1712.19052734 768.68078125 1712.19052734 767.68261719 1713.2409668 C767.00199219 1713.94801758 766.32136719 1714.65506836 765.62011719 1715.38354492 C764.2772596 1716.78685682 762.93606907 1718.19176616 761.59667969 1719.59838867 C760.96793945 1720.25822754 760.33919922 1720.91806641 759.69140625 1721.59790039 C758.26716161 1723.1496465 756.94190115 1724.79143218 755.64355469 1726.44995117 C754.82757812 1727.43801758 754.82757812 1727.43801758 753.99511719 1728.44604492 C753.33511719 1728.44604492 752.67511719 1728.44604492 751.99511719 1728.44604492 C751.59292969 1729.40510742 751.59292969 1729.40510742 751.18261719 1730.38354492 C749.99511719 1732.44604492 749.99511719 1732.44604492 746.99511719 1733.44604492 C746.66511719 1734.10604492 746.33511719 1734.76604492 745.99511719 1735.44604492 C745.66511719 1736.10604492 745.33511719 1736.76604492 744.99511719 1737.44604492 C744.00511719 1737.77604492 743.01511719 1738.10604492 741.99511719 1738.44604492 C741.66511719 1739.10604492 741.33511719 1739.76604492 740.99511719 1740.44604492 C740.66511719 1741.10604492 740.33511719 1741.76604492 739.99511719 1742.44604492 C739.00511719 1742.77604492 738.01511719 1743.10604492 736.99511719 1743.44604492 C736.87136719 1744.02354492 736.74761719 1744.60104492 736.62011719 1745.19604492 C735.67642028 1748.59335379 733.62372183 1750.18422233 730.99511719 1752.44604492 C729.66405097 1752.78831909 728.3311164 1753.12356235 726.99511719 1753.44604492 C726.29574187 1754.76251611 725.62782585 1756.09626643 724.99511719 1757.44604492 C724.00511719 1757.77604492 723.01511719 1758.10604492 721.99511719 1758.44604492 C721.66511719 1759.10604492 721.33511719 1759.76604492 720.99511719 1760.44604492 C720.66511719 1761.10604492 720.33511719 1761.76604492 719.99511719 1762.44604492 C719.00511719 1762.77604492 718.01511719 1763.10604492 716.99511719 1763.44604492 C716.66511719 1764.10604492 716.33511719 1764.76604492 715.99511719 1765.44604492 C715.66511719 1766.10604492 715.33511719 1766.76604492 714.99511719 1767.44604492 C714.00511719 1767.77604492 713.01511719 1768.10604492 711.99511719 1768.44604492 C711.32384491 1769.77706549 710.65797978 1771.11081633 709.99511719 1772.44604492 C707.99902344 1774.45385742 707.99902344 1774.45385742 705.55761719 1776.57104492 C702.66281624 1779.10346904 699.77441349 1781.63329059 696.95996094 1784.25463867 C696.46488037 1784.71402832 695.9697998 1785.17341797 695.4597168 1785.64672852 C694.05328727 1786.95445712 692.6491519 1788.26465173 691.24511719 1789.57495117 C688.99511719 1791.44604492 688.99511719 1791.44604492 686.99511719 1791.44604492 C686.99511719 1792.10604492 686.99511719 1792.76604492 686.99511719 1793.44604492 C685.36078964 1794.9237371 683.66035351 1796.32873812 681.93261719 1797.69604492 C678.53591087 1800.40553102 675.18198071 1803.12404637 671.93261719 1806.00854492 C668.99511719 1808.44604492 668.99511719 1808.44604492 666.99511719 1808.44604492 C666.66511719 1809.43604492 666.33511719 1810.42604492 665.99511719 1811.44604492 C664.00947618 1813.15996664 662.0251085 1814.74779413 659.93261719 1816.32104492 C658.6555267 1817.30145106 657.37952853 1818.28328131 656.10449219 1819.26635742 C655.43353516 1819.78230469 654.76257812 1820.29825195 654.07128906 1820.82983398 C650.56208739 1823.56159728 647.12477821 1826.38062045 643.68261719 1829.19604492 C629.29387654 1840.92508497 629.29387654 1840.92508497 624.14355469 1844.33276367 C619.81548181 1847.23783492 615.73101201 1850.43577777 611.60449219 1853.61791992 C608.99511719 1855.44604492 608.99511719 1855.44604492 606.99511719 1855.44604492 C606.99511719 1856.10604492 606.99511719 1856.76604492 606.99511719 1857.44604492 C604.97558594 1858.89135742 604.97558594 1858.89135742 602.18261719 1860.57104492 C598.2230748 1863.0154563 594.41580149 1865.54337803 590.68261719 1868.32104492 C585.95637409 1871.81171304 581.09535133 1875.00324421 576.13671875 1878.1472168 C571.72444921 1880.95214216 567.42750159 1883.88970672 563.17871094 1886.93823242 C560.84113312 1888.55237382 558.43730739 1889.99564494 555.99511719 1891.44604492 C554.20032763 1892.58698047 552.40874812 1893.7329786 550.62011719 1894.88354492 C538.65336833 1902.49728849 538.65336833 1902.49728849 531.99511719 1904.44604492 C531.99511719 1905.10604492 531.99511719 1905.76604492 531.99511719 1906.44604492 C531.31707031 1906.80956055 530.63902344 1907.17307617 529.94042969 1907.54760742 C525.24705511 1910.08280975 520.60270811 1912.65247684 516.05761719 1915.44604492 C511.40291913 1918.28192157 506.58258806 1920.67110714 501.69042969 1923.06713867 C498.59097242 1924.65280304 495.85607893 1926.47061895 492.99511719 1928.44604492 C491.00497656 1929.46552533 489.00315042 1930.46227538 486.99511719 1931.44604492 C479.51897378 1935.14644289 472.05746354 1938.85148871 464.71655273 1942.81518555 C456.74999966 1947.11250403 448.66256646 1950.92537489 440.36230469 1954.53198242 C436.20129678 1956.34103628 432.09544056 1958.25414433 427.99511719 1960.19604492 C423.22851094 1962.4459079 418.43137272 1964.51887239 413.51464844 1966.41870117 C410.47648224 1967.65751933 407.5255416 1969.04752825 404.55761719 1970.44604492 C399.68453111 1972.72281465 394.80364171 1974.67937161 389.72949219 1976.45385742 C386.83485217 1977.50419823 384.01549803 1978.67694753 381.18261719 1979.88354492 C373.76341332 1983.00892017 366.18491835 1985.64432245 358.58300781 1988.28344727 C355.9699774 1989.19066682 353.35743425 1990.0992734 350.74511719 1991.00854492 C349.4416333 1991.46136841 349.4416333 1991.46136841 348.11181641 1991.92333984 C343.90100608 1993.39490299 339.73544692 1994.90863774 335.62011719 1996.63354492 C330.77515785 1998.63251416 325.79139505 1999.98993672 320.74511719 2001.38745117 C316.93066083 2002.46424041 313.14853883 2003.62574805 309.37011719 2004.82104492 C295.66910427 2009.13179797 282.03664841 2013.37563009 267.99511719 2016.44604492 C260.39333753 2018.27047204 252.84962111 2020.28451073 245.31933594 2022.38354492 C240.9504657 2023.51552201 236.52726586 2024.36167942 232.10003662 2025.23143005 C227.32345799 2026.17211557 222.56150962 2027.16866154 217.80371094 2028.19995117 C217.11671616 2028.34814301 216.42972137 2028.49633484 215.72190857 2028.64901733 C212.92277808 2029.25288947 210.12380867 2029.8573593 207.32641602 2030.46923828 C198.91718243 2032.30573757 190.55994281 2033.88696726 182.02172852 2035.03222656 C178.3581734 2035.5331321 174.75231338 2036.19225597 171.12011719 2036.88354492 C162.97936343 2038.38088271 154.79575825 2039.40165777 146.57958984 2040.38891602 C141.52939909 2040.99718879 136.51023229 2041.65034341 131.49511719 2042.50854492 C123.81039851 2043.73088609 116.06723159 2044.25948072 108.31347656 2044.84838867 C103.46477604 2045.22820633 98.63087382 2045.68098723 93.79418945 2046.19067383 C67.87815874 2048.80568401 42.02008208 2048.94235024 15.99023438 2048.89208984 C11.0076412 2048.88292202 6.02551776 2048.88979591 1.04296875 2048.91259766 C-29.102087 2049.04990823 -58.77519993 2048.20621975 -88.74867249 2044.89994812 C-94.51176111 2044.27137512 -100.28723803 2043.82215301 -106.06738281 2043.38354492 C-114.29376045 2042.69525157 -122.37850819 2041.53615982 -130.51660156 2040.16479492 C-134.89467272 2039.4381127 -139.28109157 2038.92261381 -143.69238281 2038.44604492 C-150.48482522 2037.70132185 -157.1346818 2036.57281019 -163.83300781 2035.22729492 C-167.24802058 2034.55726898 -170.67574393 2034.03786173 -174.11816406 2033.52807617 C-181.11314984 2032.46762065 -188.02023579 2031.08940634 -194.94238281 2029.63354492 C-196.20219971 2029.3707373 -197.4620166 2029.10792969 -198.76000977 2028.8371582 C-208.18541339 2026.85858168 -217.58308945 2024.77342543 -226.96582031 2022.60229492 C-230.32007114 2021.8267456 -233.67837533 2021.07714651 -237.04394531 2020.35229492 C-250.80680065 2017.38432451 -250.80680065 2017.38432451 -256.92114258 2015.14086914 C-258.9782131 2014.45493795 -260.98706873 2013.981932 -263.11035156 2013.54760742 C-268.24067287 2012.43599407 -273.23493247 2010.97319849 -278.25488281 2009.44604492 C-279.12628906 2009.1856543 -279.99769531 2008.92526367 -280.89550781 2008.65698242 C-287.41294582 2006.68982888 -287.41294582 2006.68982888 -290.45019531 2005.43896484 C-293.09369088 2004.41152825 -295.66319855 2003.75316066 -298.42675781 2003.12182617 C-305.52691189 2001.39021367 -312.36382548 1999.05320124 -319.25488281 1996.63354492 C-320.54240348 1996.18524431 -321.83000184 1995.73716681 -323.11767578 1995.28930664 C-331.05188293 1992.52155119 -338.94892645 1989.66951493 -346.79785156 1986.66870117 C-349.66696577 1985.57487322 -352.54810263 1984.5333345 -355.44238281 1983.50854492 C-362.42059299 1980.98922131 -369.24332976 1978.08206917 -376.09277344 1975.23608398 C-378.49310772 1974.24432176 -380.90332864 1973.27887932 -383.31738281 1972.32104492 C-392.22515281 1968.76997445 -401.01820275 1965.04032703 -409.70410156 1960.97338867 C-415.1987625 1958.43088876 -420.73763415 1955.99110693 -426.29394531 1953.58666992 C-434.82943089 1949.87711399 -443.11143405 1945.91388112 -451.27832031 1941.45385742 C-455.22066669 1939.30749215 -459.23129224 1937.30981435 -463.25488281 1935.32104492 C-469.59238932 1932.18003108 -475.82609334 1928.89076941 -482.00488281 1925.44604492 C-482.77058594 1925.02709961 -483.53628906 1924.6081543 -484.32519531 1924.17651367 C-488.21536608 1922.04166386 -492.03413269 1919.82789412 -495.81738281 1917.50854492 C-500.48577715 1914.67103649 -505.30603246 1912.27166979 -510.24316406 1909.93823242 C-513.14141051 1908.37227748 -515.43828333 1906.50398399 -518.00488281 1904.44604492 C-520.32449803 1903.06776193 -522.6395377 1901.73868969 -525.00488281 1900.44604492 C-527.42438239 1899.0969081 -529.83958702 1897.74018834 -532.25488281 1896.38354492 C-533.17140625 1895.87597656 -533.17140625 1895.87597656 -534.10644531 1895.3581543 C-537.15410609 1893.63802261 -539.566138 1891.92498882 -542.00488281 1889.44604492 C-543.81067809 1888.37725344 -545.64738995 1887.35972732 -547.50488281 1886.38354492 C-550.44906981 1884.82834937 -553.23171576 1883.29482296 -556.00488281 1881.44604492 C-556.00488281 1880.78604492 -556.00488281 1880.12604492 -556.00488281 1879.44604492 C-556.75125 1879.16631836 -557.49761719 1878.8865918 -558.26660156 1878.59838867 C-560.70742805 1877.57122203 -562.64501132 1876.49956161 -564.81738281 1875.00854492 C-565.96400391 1874.22737305 -565.96400391 1874.22737305 -567.13378906 1873.43041992 C-568.55498047 1872.4481543 -568.55498047 1872.4481543 -570.00488281 1871.44604492 C-572.03784649 1870.04356727 -574.07125278 1868.64173789 -576.10522461 1867.24072266 C-577.5156155 1866.26826575 -578.92468035 1865.29388223 -580.33227539 1864.31738281 C-583.17928907 1862.34931295 -585.98210207 1860.45907527 -588.98925781 1858.73901367 C-589.65441406 1858.31233398 -590.31957031 1857.8856543 -591.00488281 1857.44604492 C-591.00488281 1856.78604492 -591.00488281 1856.12604492 -591.00488281 1855.44604492 C-591.72804688 1855.1959668 -592.45121094 1854.94588867 -593.19628906 1854.68823242 C-596.25208012 1853.33671426 -598.38509282 1851.7122198 -600.94238281 1849.57104492 C-604.50005255 1846.60538045 -608.14348944 1844.00224793 -612.00488281 1841.44604492 C-619.26982868 1836.09041465 -626.26201415 1830.4601131 -633.09960938 1824.57299805 C-637.60014346 1820.72165847 -642.26685331 1817.11967967 -647.04394531 1813.61791992 C-648.39914103 1812.60572659 -649.70737176 1811.53119737 -651.00488281 1810.44604492 C-651.00488281 1809.78604492 -651.00488281 1809.12604492 -651.00488281 1808.44604492 C-651.72675781 1808.21916992 -652.44863281 1807.99229492 -653.19238281 1807.75854492 C-655.90893674 1806.49081976 -657.39260585 1805.18532003 -659.40332031 1803.01245117 C-662.35367722 1800.12685819 -665.71684905 1797.71705464 -668.99316406 1795.21557617 C-669.65703125 1794.63163086 -670.32089844 1794.04768555 -671.00488281 1793.44604492 C-671.00488281 1792.78604492 -671.00488281 1792.12604492 -671.00488281 1791.44604492 C-671.58826416 1791.18484863 -672.17164551 1790.92365234 -672.77270508 1790.65454102 C-675.13958348 1789.37311828 -676.78081954 1787.97034515 -678.71972656 1786.11010742 C-679.40615234 1785.4578418 -680.09257813 1784.80557617 -680.79980469 1784.13354492 C-681.50685547 1783.45291992 -682.21390625 1782.77229492 -682.94238281 1782.07104492 C-684.34569472 1780.72818734 -685.75060405 1779.3869968 -687.15722656 1778.04760742 C-687.81706543 1777.41886719 -688.4769043 1776.79012695 -689.15673828 1776.14233398 C-690.70848439 1774.71808934 -692.35027007 1773.39282889 -694.00878906 1772.09448242 C-694.99685547 1771.27850586 -694.99685547 1771.27850586 -696.00488281 1770.44604492 C-696.00488281 1769.78604492 -696.00488281 1769.12604492 -696.00488281 1768.44604492 C-696.64425781 1768.17791992 -697.28363281 1767.90979492 -697.94238281 1767.63354492 C-700.00488281 1766.44604492 -700.00488281 1766.44604492 -701.00488281 1763.44604492 C-701.66488281 1763.11604492 -702.32488281 1762.78604492 -703.00488281 1762.44604492 C-705.00488281 1761.44604492 -705.00488281 1761.44604492 -706.00488281 1758.44604492 C-707.32826913 1757.75984461 -708.66438229 1757.09818031 -710.00488281 1756.44604492 C-714.37209245 1753.14637542 -717.85881839 1749.4876015 -721.39160156 1745.31323242 C-722.96254443 1743.43234407 -722.96254443 1743.43234407 -724.71191406 1741.82885742 C-726.00488281 1740.44604492 -726.00488281 1740.44604492 -726.00488281 1738.44604492 C-726.64425781 1738.17791992 -727.28363281 1737.90979492 -727.94238281 1737.63354492 C-730.00488281 1736.44604492 -730.00488281 1736.44604492 -731.00488281 1733.44604492 C-731.66488281 1733.11604492 -732.32488281 1732.78604492 -733.00488281 1732.44604492 C-735.00488281 1731.44604492 -735.00488281 1731.44604492 -736.00488281 1728.44604492 C-737.33590338 1727.77477264 -738.66965422 1727.10890752 -740.00488281 1726.44604492 C-742.01269531 1724.44995117 -742.01269531 1724.44995117 -744.12988281 1722.00854492 C-746.66230693 1719.11374397 -749.19212848 1716.22534122 -751.81347656 1713.41088867 C-752.27286621 1712.91580811 -752.73225586 1712.42072754 -753.20556641 1711.91064453 C-754.51329501 1710.504215 -755.82348962 1709.10007964 -757.13378906 1707.69604492 C-759.00488281 1705.44604492 -759.00488281 1705.44604492 -759.00488281 1703.44604492 C-759.66488281 1703.44604492 -760.32488281 1703.44604492 -761.00488281 1703.44604492 C-762.48257499 1701.81171738 -763.88757601 1700.11128124 -765.25488281 1698.38354492 C-767.96436891 1694.9868386 -770.68288426 1691.63290845 -773.56738281 1688.38354492 C-776.00488281 1685.44604492 -776.00488281 1685.44604492 -776.00488281 1683.44604492 C-776.57078125 1683.23592773 -777.13667969 1683.02581055 -777.71972656 1682.80932617 C-780.77459126 1680.98685133 -782.51619245 1678.46346993 -784.56738281 1675.63354492 C-788.1214673 1670.86022965 -791.80107247 1666.26094309 -795.69238281 1661.75854492 C-808.00488281 1647.41627467 -808.00488281 1647.41627467 -808.00488281 1643.44604492 C-808.99488281 1643.11604492 -809.98488281 1642.78604492 -811.00488281 1642.44604492 C-812.05369841 1640.80965756 -813.04433976 1639.13575934 -814.00488281 1637.44604492 C-815.95671954 1634.81999861 -817.93994519 1632.22329827 -819.95214844 1629.64331055 C-823.00488281 1625.65821395 -823.00488281 1625.65821395 -823.00488281 1623.44604492 C-823.66488281 1623.44604492 -824.32488281 1623.44604492 -825.00488281 1623.44604492 C-826.45019531 1621.42651367 -826.45019531 1621.42651367 -828.12988281 1618.63354492 C-830.61281847 1614.61036495 -833.18845154 1610.74329565 -836.00488281 1606.94604492 C-847.00488281 1592.0144043 -847.00488281 1592.0144043 -847.00488281 1588.44604492 C-847.66488281 1588.44604492 -848.32488281 1588.44604492 -849.00488281 1588.44604492 C-850.37207031 1586.46948242 -850.37207031 1586.46948242 -851.87988281 1583.82104492 C-854.13728636 1579.93178338 -856.49210286 1576.17714242 -859.00488281 1572.44604492 C-860.17690082 1570.63700066 -861.34301168 1568.82412274 -862.50488281 1567.00854492 C-863.07207031 1566.12295898 -863.63925781 1565.23737305 -864.22363281 1564.32495117 C-865.85373214 1561.69033888 -867.40643538 1559.02245802 -868.93359375 1556.32714844 C-870.88040211 1552.90869849 -872.88381113 1549.52338237 -874.87988281 1546.13354492 C-875.32114502 1545.38226318 -875.76240723 1544.63098145 -876.21704102 1543.85693359 C-878.50525658 1539.96684121 -880.82447277 1536.10081404 -883.19238281 1532.25854492 C-886.26476837 1527.18736308 -888.81805741 1521.88401393 -891.39160156 1516.54760742 C-892.76630542 1513.90471429 -894.22303189 1511.80617463 -896.00488281 1509.44604492 C-897.04129479 1507.46466908 -898.03742639 1505.46198839 -899.00488281 1503.44604492 C-903.12815973 1495.11553297 -907.30565221 1486.82903094 -911.69238281 1478.63354492 C-915.05410702 1472.33899636 -918.14688325 1465.9872411 -921.00488281 1459.44604492 C-921.83544282 1457.61145351 -922.66882859 1455.77813905 -923.50488281 1453.94604492 C-923.91609375 1453.03983398 -924.32730469 1452.13362305 -924.75097656 1451.19995117 C-925.59263397 1449.35145127 -926.43905693 1447.50511439 -927.29003906 1445.66088867 C-929.28032445 1441.33338742 -931.20780291 1437.00784228 -932.94238281 1432.57104492 C-934.48160948 1428.63885049 -936.20535501 1424.82859518 -938.00488281 1421.00854492 C-940.28165254 1416.13545884 -942.2382095 1411.25456945 -944.01269531 1406.18041992 C-945.06303612 1403.28577991 -946.23578542 1400.46642576 -947.44238281 1397.63354492 C-950.56775806 1390.21434106 -953.20316034 1382.63584609 -955.84228516 1375.03393555 C-956.74950471 1372.42090513 -957.65811129 1369.80836198 -958.56738281 1367.19604492 C-958.86926514 1366.32705566 -959.17114746 1365.45806641 -959.48217773 1364.56274414 C-960.95374088 1360.35193382 -962.46747563 1356.18637465 -964.19238281 1352.07104492 C-966.19135205 1347.22608558 -967.54877461 1342.24232279 -968.94628906 1337.19604492 C-970.02307702 1333.38159311 -971.18445076 1329.59942194 -972.37988281 1325.82104492 C-980.8138391 1299.04480045 -980.8138391 1299.04480045 -984.00488281 1285.44604492 C-984.35190113 1283.99927718 -984.69962007 1282.55267739 -985.04785156 1281.10620117 C-986.12665789 1276.61483508 -987.19151176 1272.12025992 -988.25292969 1267.62475586 C-988.77836435 1265.40360025 -989.3058761 1263.18293544 -989.83496094 1260.96264648 C-995.24870521 1238.23582068 -1000.25521562 1215.51569013 -1003.70507812 1192.40161133 C-1004.11911049 1189.70096046 -1004.59403373 1187.01185242 -1005.06738281 1184.32104492 C-1005.96792801 1178.99158891 -1006.58657278 1173.63973554 -1007.18481445 1168.27001953 C-1007.71607043 1163.60734078 -1008.37172368 1158.98023345 -1009.11254883 1154.34643555 C-1010.6915866 1144.43396944 -1011.70457667 1134.55610394 -1012.43823242 1124.54736328 C-1012.80073577 1119.78451976 -1013.24316307 1115.03810126 -1013.7434082 1110.2878418 C-1016.36109999 1084.35702565 -1016.5012239 1058.4860477 -1016.45092773 1032.44116211 C-1016.44175991 1027.45856894 -1016.4486338 1022.47644549 -1016.47143555 1017.49389648 C-1016.60874612 987.34884074 -1015.76505764 957.67572781 -1012.45878601 927.70225525 C-1011.83021301 921.93916662 -1011.3809909 916.16368971 -1010.94238281 910.38354492 C-1010.25408946 902.15716728 -1009.09499771 894.07241955 -1007.72363281 885.93432617 C-1006.99695059 881.55625502 -1006.4814517 877.16983617 -1006.00488281 872.75854492 C-1005.31894365 866.50225654 -1004.32352863 860.36272925 -1003.11035156 854.18798828 C-1002.30259685 850.07629244 -1001.60728697 845.96759357 -1001.00488281 841.82104492 C-1000.15279477 836.08365208 -998.97629277 830.45181793 -997.72363281 824.78979492 C-997.08246694 821.80697977 -996.52317537 818.82714177 -996.00488281 815.82104492 C-995.15536995 811.01181921 -994.0001709 806.31925454 -992.78613281 801.59057617 C-991.37467927 795.90947567 -990.21742133 790.17224354 -989.00488281 784.44604492 C-985.12218121 766.13043191 -985.12218121 766.13043191 -982.70019531 759.53173828 C-982.01419097 757.47396611 -981.54090658 755.46452723 -981.10644531 753.34057617 C-979.99483196 748.21025486 -978.53203638 743.21599527 -977.00488281 738.19604492 C-976.74449219 737.32463867 -976.48410156 736.45323242 -976.21582031 735.55541992 C-974.24866677 729.03798191 -974.24866677 729.03798191 -972.99780273 726.00073242 C-971.97036614 723.35723685 -971.31199855 720.78772918 -970.68066406 718.02416992 C-968.94905156 710.92401584 -966.61203913 704.08710225 -964.19238281 697.19604492 C-963.7440822 695.90852426 -963.2960047 694.62092589 -962.84814453 693.33325195 C-960.08038908 685.3990448 -957.22835282 677.50200128 -954.22753906 669.65307617 C-953.13371111 666.78396196 -952.09217239 663.9028251 -951.06738281 661.00854492 C-948.5480592 654.03033475 -945.64090706 647.20759797 -942.79492188 640.3581543 C-941.80315965 637.95782002 -940.83771721 635.5475991 -939.87988281 633.13354492 C-936.54935054 624.77178305 -933.08144027 616.48411248 -929.31347656 608.30932617 C-927.15611932 603.58889974 -925.05818271 598.84198552 -922.96948242 594.09082031 C-918.63360382 584.23027503 -914.1467444 574.55389513 -908.97753906 565.10229492 C-906.84085576 561.18450989 -904.85707187 557.19610845 -902.87988281 553.19604492 C-899.73886371 546.85854121 -896.44960737 540.62483453 -893.00488281 534.44604492 C-892.5859375 533.6803418 -892.16699219 532.91463867 -891.73535156 532.12573242 C-889.53442541 528.11515588 -887.25086026 524.1712417 -884.87988281 520.25854492 C-883.31820883 517.67821558 -881.85465456 515.14558842 -880.50488281 512.44604492 C-877.40983276 506.25594482 -873.69780181 500.42014558 -869.81738281 494.69604492 C-868.19442893 492.29726036 -866.80404388 490.04436705 -865.50488281 487.44604492 C-863.86060376 484.15748682 -861.897611 481.26562483 -859.82519531 478.23510742 C-858.3825619 476.0247206 -857.01951587 473.80693854 -855.68457031 471.53198242 C-855.28318848 470.84869873 -854.88180664 470.16541504 -854.46826172 469.46142578 C-853.66486577 468.08563042 -852.86756314 466.70625716 -852.07666016 465.32324219 C-851.10655463 463.66483175 -850.0618366 462.05050078 -849.00488281 460.44604492 C-848.34488281 460.44604492 -847.68488281 460.44604492 -847.00488281 460.44604492 C-846.72644531 459.7009668 -846.44800781 458.95588867 -846.16113281 458.18823242 C-845.11976142 455.71849351 -844.02094401 453.76580793 -842.50488281 451.57104492 C-841.98152344 450.80405273 -841.45816406 450.03706055 -840.91894531 449.24682617 C-840.28730469 448.32256836 -839.65566406 447.39831055 -839.00488281 446.44604492 C-837.29071401 443.88742687 -835.58561359 441.32279337 -833.87988281 438.75854492 C-832.64458594 436.90512522 -831.40905424 435.05194212 -830.16796875 433.20239258 C-829.39109395 432.02925292 -828.62866673 430.8464199 -827.88085938 429.65454102 C-826.97123823 428.21942643 -825.99387348 426.82766063 -825.00488281 425.44604492 C-824.34488281 425.44604492 -823.68488281 425.44604492 -823.00488281 425.44604492 C-822.75480469 424.72288086 -822.50472656 423.9997168 -822.24707031 423.25463867 C-820.89555215 420.19884761 -819.27105769 418.06583492 -817.12988281 415.50854492 C-814.16421834 411.95087519 -811.56108583 408.3074383 -809.00488281 404.44604492 C-803.57868445 397.08537299 -797.86171771 390.00741977 -791.91870117 383.0612793 C-787.54715392 377.9435231 -783.28795304 372.72795837 -779.44238281 367.19995117 C-778.96800781 366.62116211 -778.49363281 366.04237305 -778.00488281 365.44604492 C-777.34488281 365.44604492 -776.68488281 365.44604492 -776.00488281 365.44604492 C-775.66457031 364.36323242 -775.66457031 364.36323242 -775.31738281 363.25854492 C-774.04965765 360.541991 -772.74415792 359.05832189 -770.57128906 357.04760742 C-767.68569608 354.09725051 -765.27589253 350.73407868 -762.77441406 347.45776367 C-761.89849609 346.46196289 -761.89849609 346.46196289 -761.00488281 345.44604492 C-760.34488281 345.44604492 -759.68488281 345.44604492 -759.00488281 345.44604492 C-758.74368652 344.86266357 -758.48249023 344.27928223 -758.21337891 343.67822266 C-756.93195617 341.31134426 -755.52918304 339.67010819 -753.66894531 337.73120117 C-753.01667969 337.04477539 -752.36441406 336.35834961 -751.69238281 335.65112305 C-751.01175781 334.94407227 -750.33113281 334.23702148 -749.62988281 333.50854492 C-748.28702523 332.10523302 -746.94583469 330.70032368 -745.60644531 329.29370117 C-744.97770508 328.6338623 -744.34896484 327.97402344 -743.70117188 327.29418945 C-742.27692723 325.74244335 -740.95166678 324.10065766 -739.65332031 322.44213867 C-739.10933594 321.78342773 -738.56535156 321.1247168 -738.00488281 320.44604492 C-737.34488281 320.44604492 -736.68488281 320.44604492 -736.00488281 320.44604492 C-735.73675781 319.80666992 -735.46863281 319.16729492 -735.19238281 318.50854492 C-734.00488281 316.44604492 -734.00488281 316.44604492 -731.00488281 315.44604492 C-730.67488281 314.78604492 -730.34488281 314.12604492 -730.00488281 313.44604492 C-729.00488281 311.44604492 -729.00488281 311.44604492 -726.00488281 310.44604492 C-725.3186825 309.1226586 -724.6570182 307.78654545 -724.00488281 306.44604492 C-720.70521331 302.07883528 -717.04643939 298.59210934 -712.87207031 295.05932617 C-710.99118196 293.4883833 -710.99118196 293.4883833 -709.38769531 291.73901367 C-708.00488281 290.44604492 -708.00488281 290.44604492 -706.00488281 290.44604492 C-705.73675781 289.80666992 -705.46863281 289.16729492 -705.19238281 288.50854492 C-704.00488281 286.44604492 -704.00488281 286.44604492 -701.00488281 285.44604492 C-700.67488281 284.78604492 -700.34488281 284.12604492 -700.00488281 283.44604492 C-699.00488281 281.44604492 -699.00488281 281.44604492 -696.00488281 280.44604492 C-695.33361053 279.11502435 -694.66774541 277.78127352 -694.00488281 276.44604492 C-692.00878906 274.43823242 -692.00878906 274.43823242 -689.56738281 272.32104492 C-686.67258186 269.7886208 -683.78417911 267.25879925 -680.96972656 264.63745117 C-680.474646 264.17806152 -679.97956543 263.71867187 -679.46948242 263.24536133 C-678.06305289 261.93763272 -676.65891753 260.62743812 -675.25488281 259.31713867 C-673.00488281 257.44604492 -673.00488281 257.44604492 -671.00488281 257.44604492 C-671.00488281 256.78604492 -671.00488281 256.12604492 -671.00488281 255.44604492 C-669.37055527 253.96835275 -667.67011913 252.56335173 -665.94238281 251.19604492 C-662.54567649 248.48655883 -659.19174634 245.76804347 -655.94238281 242.88354492 C-653.00488281 240.44604492 -653.00488281 240.44604492 -651.00488281 240.44604492 C-650.67488281 239.45604492 -650.34488281 238.46604492 -650.00488281 237.44604492 C-647.95610619 235.69333429 -645.90768304 234.06100118 -643.75488281 232.44604492 C-638.82687642 228.67206134 -634.01751322 224.81273642 -629.31738281 220.75854492 C-623.76559477 215.9956731 -617.96945149 211.68229764 -612.00488281 207.44604492 C-610.66763112 206.45129084 -609.33399863 205.45164371 -608.00488281 204.44604492 C-606.67221334 203.44516038 -605.33880658 202.44525719 -604.00488281 201.44604492 C-602.585625 200.38256836 -602.585625 200.38256836 -601.13769531 199.29760742 C-600.14511719 198.5628418 -599.15253906 197.82807617 -598.12988281 197.07104492 C-596.7415625 196.03850586 -596.7415625 196.03850586 -595.32519531 194.98510742 C-593.00488281 193.44604492 -593.00488281 193.44604492 -591.00488281 193.44604492 C-591.00488281 192.78604492 -591.00488281 192.12604492 -591.00488281 191.44604492 C-589.03170347 190.03274008 -587.0584118 188.73258644 -585.00488281 187.44604492 C-583.83071831 186.67216377 -582.65888746 185.89473181 -581.48925781 185.11401367 C-580.88251221 184.71110107 -580.2757666 184.30818848 -579.65063477 183.89306641 C-579.02503662 183.47742432 -578.39943848 183.06178223 -577.75488281 182.63354492 C-577.10028076 182.19921143 -576.44567871 181.76487793 -575.77124023 181.31738281 C-571.12278054 178.22202331 -566.55833543 175.02845833 -562.05566406 171.72338867 C-560.01047193 170.44952614 -558.36091344 169.87683156 -556.00488281 169.44604492 C-556.00488281 168.78604492 -556.00488281 168.12604492 -556.00488281 167.44604492 C-553.77441406 165.82495117 -553.77441406 165.82495117 -550.81738281 164.00854492 C-549.85445312 163.41170898 -548.89152344 162.81487305 -547.89941406 162.19995117 C-546.09559993 161.10695179 -544.28880722 160.01883445 -542.47753906 158.93823242 C-539.83044277 157.34077462 -537.23007967 155.68116439 -534.62988281 154.00854492 C-531.58184207 152.06073279 -528.54131095 150.14153534 -525.37988281 148.38354492 C-521.89688744 146.38404758 -518.61443363 144.19430301 -515.31347656 141.91088867 C-512.63313639 140.21016521 -509.8485096 138.85521195 -507.00488281 137.44604492 C-505.12132713 136.35653722 -503.24643474 135.25193347 -501.37988281 134.13354492 C-496.23671628 131.10137958 -490.98979345 128.41391784 -485.62988281 125.78979492 C-482.55727747 124.21691362 -479.84183903 122.40489564 -477.00488281 120.44604492 C-475.01474219 119.42656452 -473.01291605 118.42981447 -471.00488281 117.44604492 C-463.52873941 113.74564695 -456.06722916 110.04060113 -448.72631836 106.0769043 C-440.76345092 101.78157392 -432.67947972 97.97055998 -424.38378906 94.36401367 C-418.98264377 92.0154298 -413.66163907 89.50496118 -408.33691406 86.98901367 C-404.91933762 85.40643138 -401.46902726 83.92356952 -398.00488281 82.44604492 C-396.22984375 81.6474707 -396.22984375 81.6474707 -394.41894531 80.83276367 C-386.70636877 77.36311904 -378.97356406 74.23327895 -370.94091797 71.57568359 C-367.50073152 70.41788813 -364.28989777 69.13509544 -361.06738281 67.45776367 C-356.84888537 65.28098818 -352.51910779 63.87845219 -348.00488281 62.44604492 C-346.33756792 61.87619891 -344.67226502 61.30043952 -343.00878906 60.71948242 C-341.69515381 60.2614624 -341.69515381 60.2614624 -340.35498047 59.79418945 C-339.43507324 59.47305176 -338.51516602 59.15191406 -337.56738281 58.82104492 C-336.58817871 58.48057129 -335.60897461 58.14009766 -334.60009766 57.78930664 C-329.07605118 55.86846678 -323.55603499 53.93676149 -318.04003906 51.99291992 C-315.73667257 51.18557427 -313.43328756 50.37828142 -311.12988281 49.57104492 C-310.05552979 49.18996582 -308.98117676 48.80888672 -307.87426758 48.41625977 C-302.64312799 46.58813142 -297.51158748 45.00776601 -292.08251953 43.89819336 C-288.65577286 43.15244309 -285.34082791 42.0816807 -282.00488281 41.00854492 C-281.3077417 40.78827637 -280.61060059 40.56800781 -279.89233398 40.34106445 C-276.34920177 39.2168768 -272.8264039 38.04693214 -269.31738281 36.82104492 C-264.6721022 35.23986287 -259.90998159 34.22773294 -255.11816406 33.19213867 C-251.99253369 32.4905078 -251.99253369 32.4905078 -248.96972656 31.43432617 C-246.06843873 30.46723023 -243.25098849 29.8014756 -240.25488281 29.19604492 C-234.48419255 27.99457629 -228.74431977 26.69442721 -223.00585938 25.34741211 C-204.01058182 20.89670605 -184.9213841 17.09567589 -165.71972656 13.65551758 C-164.27546543 13.39665861 -162.8314421 13.13646826 -161.38769531 12.87475586 C-152.22943934 11.22022188 -143.08404193 9.92004846 -133.83544922 8.88623047 C-129.18411731 8.35172751 -124.56843288 7.66080778 -119.94238281 6.94604492 C-110.67441061 5.57896135 -101.41565813 4.70131041 -92.07495117 4.01269531 C-87.32469719 3.6493505 -82.59061004 3.20658709 -77.8527832 2.70751953 C-51.91993 0.09003102 -26.04689135 -0.05030005 0 0 Z M455.30761719 618.19604492 C454.32245117 618.43194336 454.32245117 618.43194336 453.31738281 618.67260742 C448.57862839 619.86301916 444.14929581 621.52153547 439.63452148 623.38012695 C434.1101323 625.6111401 428.46870837 627.54240616 422.85449219 629.53393555 C418.06091705 631.25496218 413.52385013 633.09603676 408.99511719 635.44604492 C407.65376339 635.9406223 406.29961209 636.40252163 404.93261719 636.82104492 C398.85610626 638.77529969 392.94135094 641.13094117 386.99511719 643.44604492 C384.93295215 644.2385837 382.87045104 645.03024859 380.80761719 645.82104492 C365.71519312 651.61970635 365.71519312 651.61970635 350.68261719 657.57104492 C343.00310665 660.65868318 335.28047181 663.63561123 327.49511719 666.44604492 C318.71528746 669.61794872 310.0285585 673.02105628 301.37011719 676.50854492 C296.23922435 678.57519062 291.07916984 680.52316898 285.87011719 682.38354492 C282.38472326 683.67162528 278.94000227 685.05431135 275.49511719 686.44604492 C271.18678676 688.18661042 266.87164316 689.88299993 262.49511719 691.44604492 C257.81562267 693.12167178 253.20929497 694.94919603 248.60107422 696.81103516 C238.85777863 700.72976987 229.0351025 704.44748094 219.22924805 708.20605469 C210.87187342 711.41033533 202.51910289 714.62530496 194.18261719 717.88354492 C188.51157193 720.09629854 182.82727484 722.26580367 177.12011719 724.38354492 C171.16122669 726.59574308 165.26171488 728.9358712 159.37011719 731.32104492 C151.12039209 734.6582837 142.7989801 737.75687913 134.41650391 740.74438477 C129.52958923 742.49198104 124.75874695 744.37975769 119.99511719 746.44604492 C117.49925822 747.39799113 115.00172839 748.33620692 112.49511719 749.25854492 C103.82293573 752.48199356 95.23718571 755.90995922 86.66601562 759.39233398 C77.0631955 763.29216923 67.45485126 767.05846929 57.65576172 770.43823242 C53.48308055 771.8871768 49.4900204 773.51093404 45.49511719 775.38354492 C41.15306892 777.22891544 36.67091586 778.69345702 32.21386719 780.23510742 C28.56665893 781.5064934 24.99626611 782.80488136 21.49511719 784.44604492 C16.54425925 786.76675958 11.37483835 788.44997698 6.21386719 790.23510742 C2.56665893 791.5064934 -1.00373389 792.80488136 -4.50488281 794.44604492 C-9.45574075 796.76675958 -14.62516165 798.44997698 -19.78613281 800.23510742 C-23.43334107 801.5064934 -27.00373389 802.80488136 -30.50488281 804.44604492 C-34.4709123 806.29685868 -38.5575261 807.7146332 -42.69238281 809.13354492 C-50.55669721 811.84227615 -58.22802075 814.94124352 -65.91088867 818.12402344 C-71.95614956 820.62316685 -78.02692879 823.00896362 -84.16259766 825.27587891 C-89.19326172 827.1348695 -94.19634884 829.05843957 -99.19238281 831.00854492 C-99.95583008 831.30647949 -100.71927734 831.60441406 -101.50585938 831.91137695 C-102.99041086 832.49076886 -104.47494905 833.07019486 -105.95947266 833.6496582 C-109.83768843 835.15965341 -113.72469951 836.64672932 -117.61035156 838.13745117 C-120.91224701 839.41033377 -124.20939626 840.69483106 -127.50585938 841.98168945 C-148.83311197 850.30265176 -148.83311197 850.30265176 -158.83300781 853.78979492 C-164.4320013 855.74348627 -169.7957596 857.70948602 -175.03613281 860.48510742 C-178.26067569 862.05899144 -181.63618652 863.1873761 -185.01660156 864.37963867 C-188.20124671 865.51611988 -191.35243736 866.72321021 -194.50488281 867.94604492 C-198.44806326 869.47228771 -202.39855894 870.95995582 -206.37988281 872.38354492 C-211.45609087 874.21127581 -216.45601655 876.21437614 -221.45751953 878.23486328 C-225.1176376 879.70792832 -228.78943289 881.11909852 -232.50488281 882.44604492 C-239.41429504 884.91953273 -246.20213025 887.69642936 -253.00488281 890.44604492 C-260.68443912 893.5500572 -268.36208673 896.61095028 -276.16503906 899.39526367 C-279.45479872 900.61252 -282.69454054 901.93353715 -285.94238281 903.25854492 C-292.91548065 906.09950432 -299.99458121 908.58951036 -307.12768555 910.99804688 C-311.61834283 912.53202202 -315.77922511 914.2624809 -320.00488281 916.44604492 C-321.45021901 916.98245836 -322.90829554 917.48651581 -324.37988281 917.94604492 C-335.40632123 921.50590501 -346.09521968 926.04495684 -356.82519531 930.40307617 C-365.59729531 933.95407414 -374.38436367 937.34743375 -383.33105469 940.43383789 C-387.64206641 941.93111881 -391.79264426 943.59912468 -395.92675781 945.52416992 C-399.19794563 946.97529835 -402.57206824 948.12271085 -405.94238281 949.32104492 C-409.37070384 950.58042815 -412.74678981 951.9448715 -416.12988281 953.32104492 C-421.66090221 955.56828925 -427.23860254 957.61786479 -432.87988281 959.57104492 C-437.16370701 961.05452614 -441.39294211 962.52502243 -445.50488281 964.44604492 C-449.47090092 966.29685337 -453.55748897 967.71475532 -457.69238281 969.13354492 C-465.61378259 971.85970617 -473.34955516 974.96851271 -481.07788086 978.19873047 C-486.52262485 980.4668279 -492.0021178 982.56216496 -497.55419922 984.55297852 C-500.412194 985.59447532 -503.2108926 986.74397936 -506.00488281 987.94604492 C-510.67956231 989.9193974 -515.38751894 991.71195438 -520.16503906 993.41870117 C-524.37108719 994.94028392 -528.5389127 996.55683001 -532.70800781 998.17651367 C-534.81595813 998.9882244 -536.93011473 999.78411043 -539.05175781 1000.55932617 C-545.881075 1003.08132021 -552.48335809 1005.97429499 -559.06738281 1009.07104492 C-559.88932129 1009.45550781 -560.71125977 1009.8399707 -561.55810547 1010.23608398 C-565.34366025 1012.04141796 -568.70316233 1013.8331726 -572.00488281 1016.44604492 C-572.99488281 1016.77604492 -573.98488281 1017.10604492 -575.00488281 1017.44604492 C-575.00488281 1018.10604492 -575.00488281 1018.76604492 -575.00488281 1019.44604492 C-575.56433594 1019.7012793 -576.12378906 1019.95651367 -576.70019531 1020.21948242 C-585.86886765 1025.09908092 -593.55394356 1032.55301247 -596.94238281 1042.44604492 C-598.72505113 1049.28310222 -597.47518603 1054.85856968 -595.00488281 1061.44604492 C-594.34488281 1061.44604492 -593.68488281 1061.44604492 -593.00488281 1061.44604492 C-592.75222656 1062.03385742 -592.49957031 1062.62166992 -592.23925781 1063.22729492 C-585.91894553 1074.58785623 -570.41454527 1080.2132885 -558.66796875 1083.64941406 C-554.32591414 1084.94828867 -550.04587779 1086.4265205 -545.75488281 1087.88354492 C-538.71879635 1090.2536016 -531.68370406 1092.43864842 -524.52832031 1094.41870117 C-519.58252956 1095.86076655 -514.70964487 1097.50225954 -509.83422852 1099.16503906 C-498.88554136 1102.8853931 -487.78359907 1106.11944402 -476.69238281 1109.38354492 C-467.91806494 1111.97418358 -459.16101483 1114.6041841 -450.43847656 1117.36401367 C-447.03050598 1118.43797027 -443.61274859 1119.47485211 -440.19238281 1120.50854492 C-436.2503988 1121.71586844 -432.37020306 1123.01258561 -428.50488281 1124.44604492 C-420.74107853 1127.32361773 -412.83663774 1129.69527927 -404.83691406 1131.82104492 C-398.87077931 1133.43900554 -393.04053338 1135.38646573 -387.19238281 1137.38354492 C-379.58975167 1139.95013085 -372.00136378 1142.39145308 -364.26660156 1144.52807617 C-357.80040967 1146.34790263 -351.40815999 1148.41786405 -345.00488281 1150.44604492 C-343.41116079 1150.95003966 -341.81740989 1151.45394306 -340.22363281 1151.95776367 C-339.41482666 1152.21356201 -338.60602051 1152.46936035 -337.77270508 1152.73291016 C-336.14326997 1153.24764768 -334.51355203 1153.76149077 -332.88354492 1154.27441406 C-329.32593661 1155.39393605 -325.77272829 1156.52190927 -322.22753906 1157.68041992 C-313.31082451 1160.78499644 -313.31082451 1160.78499644 -304.00488281 1161.44604492 C-300.63797132 1159.70255799 -300.63797132 1159.70255799 -298.00488281 1157.44604492 C-297.01488281 1157.11604492 -296.02488281 1156.78604492 -295.00488281 1156.44604492 C-295.00488281 1155.78604492 -295.00488281 1155.12604492 -295.00488281 1154.44604492 C-294.32296875 1154.20756836 -293.64105469 1153.9690918 -292.93847656 1153.72338867 C-289.39227818 1152.17930496 -286.27404408 1150.14516852 -283.06738281 1148.00854492 C-278.82002164 1145.18770809 -274.62515369 1142.63979186 -270.00488281 1140.44604492 C-270.00488281 1139.78604492 -270.00488281 1139.12604492 -270.00488281 1138.44604492 C-269.11800781 1138.19854492 -268.23113281 1137.95104492 -267.31738281 1137.69604492 C-263.83557796 1136.3821563 -261.85063099 1134.80593365 -259.00488281 1132.44604492 C-256.68466157 1131.071099 -254.36620259 1129.74402197 -252.00488281 1128.44604492 C-250.6911239 1127.69825232 -249.37857677 1126.9483259 -248.06738281 1126.19604492 C-246.55144531 1125.32979492 -246.55144531 1125.32979492 -245.00488281 1124.44604492 C-245.00488281 1123.78604492 -245.00488281 1123.12604492 -245.00488281 1122.44604492 C-244.20050781 1122.23979492 -243.39613281 1122.03354492 -242.56738281 1121.82104492 C-238.76101315 1120.35191979 -235.84842036 1118.47032719 -232.50878906 1116.16479492 C-229.79390678 1114.30122518 -227.03433894 1112.52422903 -224.25488281 1110.75854492 C-223.37316406 1110.19780273 -222.49144531 1109.63706055 -221.58300781 1109.05932617 C-219.90841118 1108.01143464 -218.22389299 1106.97917561 -216.52832031 1105.96557617 C-212.8040996 1103.72297268 -209.17415423 1101.33677732 -205.52832031 1098.96948242 C-203.00488281 1097.44604492 -203.00488281 1097.44604492 -200.00488281 1096.44604492 C-200.00488281 1095.78604492 -200.00488281 1095.12604492 -200.00488281 1094.44604492 C-199.05162109 1094.12313477 -199.05162109 1094.12313477 -198.07910156 1093.79370117 C-193.73915358 1091.89118268 -189.83339959 1089.38674452 -185.81738281 1086.88354492 C-184.1992792 1085.88161924 -182.58080734 1084.88028793 -180.96191406 1083.87963867 C-179.89420776 1083.21532837 -179.89420776 1083.21532837 -178.80493164 1082.53759766 C-177.00488281 1081.44604492 -177.00488281 1081.44604492 -175.00488281 1080.44604492 C-175.00488281 1079.78604492 -175.00488281 1079.12604492 -175.00488281 1078.44604492 C-174.11800781 1078.19854492 -173.23113281 1077.95104492 -172.31738281 1077.69604492 C-169.0288335 1076.64982681 -169.0288335 1076.64982681 -166.81738281 1074.69604492 C-164.12207672 1072.53980004 -161.54617972 1071.0582987 -158.50488281 1069.44604492 C-154.64807398 1067.39389263 -151.36617406 1065.24712096 -148.00488281 1062.44604492 C-146.32591515 1061.48012031 -144.64586952 1060.51597148 -142.95800781 1059.56567383 C-139.70729202 1057.702201 -136.54894277 1055.69420251 -133.37988281 1053.69604492 C-131.97905631 1052.81679577 -130.57801116 1051.9378949 -129.17675781 1051.05932617 C-128.48130859 1050.62313965 -127.78585937 1050.18695312 -127.06933594 1049.73754883 C-123.93043463 1047.77387949 -120.78211301 1045.82572836 -117.62988281 1043.88354492 C-116.59089844 1043.24288086 -115.55191406 1042.6022168 -114.48144531 1041.94213867 C-112.00488281 1040.44604492 -112.00488281 1040.44604492 -110.00488281 1039.44604492 C-110.00488281 1038.78604492 -110.00488281 1038.12604492 -110.00488281 1037.44604492 C-108.35488281 1037.11604492 -106.70488281 1036.78604492 -105.00488281 1036.44604492 C-105.00488281 1035.78604492 -105.00488281 1035.12604492 -105.00488281 1034.44604492 C-104.27221191 1034.16841309 -103.53954102 1033.89078125 -102.78466797 1033.60473633 C-98.39683433 1031.7757658 -94.4436097 1029.27292354 -90.37988281 1026.82104492 C-89.48342041 1026.2827002 -88.58695801 1025.74435547 -87.66333008 1025.18969727 C-82.02986642 1021.77173246 -76.70949896 1018.1714386 -71.46191406 1014.18823242 C-67.94386047 1011.69371429 -64.18661669 1009.74985729 -60.37207031 1007.75073242 C-57.65202586 1006.25156601 -55.38694829 1004.43109949 -53.00488281 1002.44604492 C-48.82700229 999.82365214 -44.43561862 997.60737946 -40.00488281 995.44604492 C-40.00488281 994.78604492 -40.00488281 994.12604492 -40.00488281 993.44604492 C-39.2765625 993.17276367 -38.54824219 992.89948242 -37.79785156 992.61791992 C-35.12179686 991.49509977 -32.78639032 990.21417846 -30.31738281 988.69604492 C-27.6040117 987.03129994 -24.89138603 985.38057195 -22.13378906 983.78979492 C-21.225 983.26385742 -20.31621094 982.73791992 -19.37988281 982.19604492 C-18.54199219 981.71651367 -17.70410156 981.23698242 -16.84082031 980.74291992 C-15.93203125 980.1009668 -15.93203125 980.1009668 -15.00488281 979.44604492 C-15.00488281 978.78604492 -15.00488281 978.12604492 -15.00488281 977.44604492 C-14.15410156 977.20370117 -13.30332031 976.96135742 -12.42675781 976.71166992 C-8.67186304 975.32287323 -5.55266163 973.41446716 -2.25488281 971.19604492 C-1.01613496 970.3796716 0.22345292 969.56457153 1.46386719 968.75073242 C2.06585937 968.35466797 2.66785156 967.95860352 3.28808594 967.55053711 C5.5691986 966.0745998 7.90064201 964.69360159 10.24511719 963.32104492 C14.56874738 960.77102909 18.62536504 957.93062336 22.67089844 954.96166992 C25.0409723 953.41614276 27.33979065 952.40478229 29.99511719 951.44604492 C29.99511719 950.78604492 29.99511719 950.12604492 29.99511719 949.44604492 C30.69636719 949.19854492 31.39761719 948.95104492 32.12011719 948.69604492 C35.0597989 947.51873266 35.0597989 947.51873266 37.71386719 945.63354492 C41.18629461 943.31859331 44.7371159 941.24387446 48.37011719 939.19604492 C49.01078125 938.8325293 49.65144531 938.46901367 50.31152344 938.09448242 C51.87158844 937.20966943 53.4331919 936.32756988 54.99511719 935.44604492 C54.99511719 934.78604492 54.99511719 934.12604492 54.99511719 933.44604492 C55.88199219 933.19854492 56.76886719 932.95104492 57.68261719 932.69604492 C61.16442204 931.3821563 63.14936901 929.80593365 65.99511719 927.44604492 C67.67102928 926.47917256 69.34823042 925.51410849 71.04199219 924.57885742 C73.26123454 923.29169686 75.37065502 921.88403122 77.49511719 920.44604492 C80.17732809 918.63361718 82.85902455 916.90425139 85.68261719 915.32104492 C88.90557092 913.49673149 91.92327972 911.51362783 94.99511719 909.44604492 C104.16086611 903.54314015 104.16086611 903.54314015 108.48339844 900.95776367 C112.20408694 898.71840683 115.82979198 896.33421499 119.47167969 893.96948242 C121.99511719 892.44604492 121.99511719 892.44604492 124.99511719 891.44604492 C124.99511719 890.78604492 124.99511719 890.12604492 124.99511719 889.44604492 C125.69636719 889.19854492 126.39761719 888.95104492 127.12011719 888.69604492 C130.38053532 887.27847182 133.03942818 885.4247341 135.99511719 883.44604492 C138.39502304 881.98007589 140.82137163 880.55966284 143.24511719 879.13354492 C148.53840122 875.99623332 153.59198495 872.67198921 158.58496094 869.07104492 C162.10748401 866.69605367 165.84055583 864.76988031 169.59277344 862.78588867 C172.318024 861.26595218 174.60155521 859.4406799 176.99511719 857.44604492 C178.74187406 856.42975002 180.48954268 855.41447383 182.25683594 854.43432617 C184.93123706 852.91382396 187.44346408 851.16350374 189.99511719 849.44604492 C200.0650616 842.92120992 200.0650616 842.92120992 204.62011719 840.38354492 C208.06294864 838.40710464 211.31806181 836.2541725 214.58886719 834.00854492 C217.07055898 832.39705674 219.62147094 830.94172194 222.19677734 829.48608398 C225.00561776 827.86163921 227.7133291 826.09037763 230.43261719 824.32104492 C235.69131123 820.91245962 240.98529897 817.56684385 246.30761719 814.25854492 C252.68035993 810.29143706 258.96713757 806.2239619 265.14746094 801.96166992 C270.07656055 798.60052642 275.11338451 795.61227405 280.38964844 792.82495117 C281.9259596 792.01188095 283.45068273 791.17489669 284.94433594 790.28588867 C293.69129333 785.29575897 305.1969255 783.23355002 314.99511719 785.44604492 C318.05761719 786.50854492 318.05761719 786.50854492 319.99511719 788.44604492 C320.69907816 793.29555385 320.80447254 795.28259661 317.99511719 799.32104492 C317.33511719 800.02229492 316.67511719 800.72354492 315.99511719 801.44604492 C315.99511719 802.10604492 315.99511719 802.76604492 315.99511719 803.44604492 C315.40053711 803.71843994 314.80595703 803.99083496 314.19335938 804.27148438 C312.05071163 805.41633981 310.57505082 806.5724919 308.82324219 808.23901367 C308.24501709 808.78364258 307.66679199 809.32827148 307.07104492 809.8894043 C306.46848877 810.4649707 305.86593262 811.04053711 305.24511719 811.63354492 C303.99204795 812.81542257 302.73814721 813.99641927 301.48339844 815.17651367 C300.88221191 815.74289551 300.28102539 816.30927734 299.66162109 816.89282227 C297.0351095 819.34079571 294.32039958 821.68130273 291.60058594 824.02416992 C290.09558732 825.35706408 288.66667051 826.7744916 287.24511719 828.19604492 C284.99511719 830.44604492 284.99511719 830.44604492 282.68261719 832.13354492 C282.12574219 832.56666992 281.56886719 832.99979492 280.99511719 833.44604492 C280.99511719 834.10604492 280.99511719 834.76604492 280.99511719 835.44604492 C280.27324219 835.67291992 279.55136719 835.89979492 278.80761719 836.13354492 C275.38273308 837.73182417 273.5749556 839.68193233 270.99511719 842.44604492 C266.13444654 847.57533158 260.93399464 851.99695801 255.35058594 856.33276367 C253.10300117 858.34925348 252.18337904 859.73846319 250.99511719 862.44604492 C249.68108443 863.14999104 248.34309148 863.8095015 246.99511719 864.44604492 C244.85287961 866.00546787 242.96449004 867.65570597 240.99511719 869.44604492 C240.99511719 870.10604492 240.99511719 870.76604492 240.99511719 871.44604492 C239.94324219 871.72448242 239.94324219 871.72448242 238.87011719 872.00854492 C235.43745619 873.72487542 233.82305789 875.7818122 231.52246094 878.78979492 C229.81921859 880.63678918 228.25483226 881.3930177 225.99511719 882.44604492 C224.26696676 884.0754439 222.63050343 885.72700721 220.99511719 887.44604492 C215.35224 893.31691715 209.51721161 898.59552704 203.08496094 903.59838867 C202.3953125 904.20811523 201.70566406 904.8178418 200.99511719 905.44604492 C200.99511719 906.10604492 200.99511719 906.76604492 200.99511719 907.44604492 C200.45886719 907.67291992 199.92261719 907.89979492 199.37011719 908.13354492 C195.17262052 910.45321413 191.8020002 913.63916191 188.43261719 917.00854492 C186.07580533 919.36535678 183.60816608 921.38311159 180.99511719 923.44604492 C180.52074219 923.92041992 180.04636719 924.39479492 179.55761719 924.88354492 C177.45785155 926.98331056 175.18648677 928.84777719 172.90917969 930.75073242 C170.50083044 932.88384176 168.26840945 935.16945325 165.99511719 937.44604492 C163.78524134 939.55039681 161.54869688 941.62501318 159.30761719 943.69604492 C158.72689453 944.23745117 158.14617188 944.77885742 157.54785156 945.33666992 C153.23342501 949.32689101 153.23342501 949.32689101 150.99511719 950.44604492 C150.99511719 951.10604492 150.99511719 951.76604492 150.99511719 952.44604492 C150.45886719 952.67291992 149.92261719 952.89979492 149.37011719 953.13354492 C145.17262052 955.45321413 141.8020002 958.63916191 138.43261719 962.00854492 C136.07406435 964.36709776 133.59682053 966.36468225 130.99511719 968.44604492 C130.17011719 969.27104492 129.34511719 970.09604492 128.49511719 970.94604492 C126.11365047 973.32751164 123.62172221 975.3447609 120.99511719 977.44604492 C119.32549806 979.10975389 117.65945448 980.77705214 115.99511719 982.44604492 C108.59759613 989.5761593 101.13279976 996.54127529 93.00683594 1002.84057617 C90.47462956 1004.86142437 88.25145232 1007.12524307 85.99511719 1009.44604492 C84.32845052 1010.77937826 82.66178385 1012.11271159 80.99511719 1013.44604492 C78.22359507 1015.96660538 78.22359507 1015.96660538 75.99511719 1018.44604492 C75.99511719 1019.10604492 75.99511719 1019.76604492 75.99511719 1020.44604492 C75.27324219 1020.67291992 74.55136719 1020.89979492 73.80761719 1021.13354492 C70.38273308 1022.73182417 68.5749556 1024.68193233 65.99511719 1027.44604492 C61.13444654 1032.57533158 55.93399464 1036.99695801 50.35058594 1041.33276367 C48.10300117 1043.34925348 47.18337904 1044.73846319 45.99511719 1047.44604492 C44.68108443 1048.14999104 43.34309148 1048.8095015 41.99511719 1049.44604492 C39.40119314 1051.51059671 36.86987927 1053.56661744 34.53027344 1055.91870117 C32.37220738 1058.0657847 30.04112882 1059.98624565 27.71386719 1061.94604492 C26.61299386 1062.9068071 25.54003147 1063.90113064 24.50683594 1064.93432617 C22.84471447 1066.59644764 21.09502833 1068.10717557 19.30761719 1069.63354492 C16.47217293 1072.09264839 13.79551105 1074.62750619 11.18261719 1077.32104492 C7.13091177 1081.46170994 2.68397156 1085.00392208 -1.87988281 1088.56323242 C-2.58113281 1089.18456055 -3.28238281 1089.80588867 -4.00488281 1090.44604492 C-4.00488281 1091.10604492 -4.00488281 1091.76604492 -4.00488281 1092.44604492 C-4.54113281 1092.67291992 -5.07738281 1092.89979492 -5.62988281 1093.13354492 C-9.82737948 1095.45321413 -13.1979998 1098.63916191 -16.56738281 1102.00854492 C-19.00488281 1104.44604492 -19.00488281 1104.44604492 -21.69238281 1106.57104492 C-24.1964195 1108.41165566 -24.1964195 1108.41165566 -26.00488281 1111.44604492 C-26.99488281 1111.77604492 -27.98488281 1112.10604492 -29.00488281 1112.44604492 C-30.36524299 1114.07847714 -31.72411325 1115.7121754 -33.07519531 1117.35229492 C-36.93403567 1121.53921482 -41.56778054 1124.89761476 -46.00488281 1128.44604492 C-47.57716114 1129.74681522 -49.14090342 1131.05803589 -50.69238281 1132.38354492 C-51.335625 1132.92881836 -51.97886719 1133.4740918 -52.64160156 1134.03588867 C-54.23656828 1135.35879723 -54.23656828 1135.35879723 -54.00488281 1137.44604492 C-54.54113281 1137.67291992 -55.07738281 1137.89979492 -55.62988281 1138.13354492 C-59.82737948 1140.45321413 -63.1979998 1143.63916191 -66.56738281 1147.00854492 C-68.92593565 1149.36709776 -71.40317947 1151.36468225 -74.00488281 1153.44604492 C-74.82988281 1154.27104492 -75.65488281 1155.09604492 -76.50488281 1155.94604492 C-78.88634953 1158.32751164 -81.37827779 1160.3447609 -84.00488281 1162.44604492 C-85.67450194 1164.10975389 -87.34054552 1165.77705214 -89.00488281 1167.44604492 C-96.40240387 1174.5761593 -103.86720024 1181.54127529 -111.99316406 1187.84057617 C-114.52537044 1189.86142437 -116.74854768 1192.12524307 -119.00488281 1194.44604492 C-120.67154948 1195.77937826 -122.33821615 1197.11271159 -124.00488281 1198.44604492 C-124.82988281 1199.27104492 -125.65488281 1200.09604492 -126.50488281 1200.94604492 C-128.88634953 1203.32751164 -131.37827779 1205.3447609 -134.00488281 1207.44604492 C-136.20979676 1209.59293482 -138.36688944 1211.77615188 -140.48925781 1214.00463867 C-144.81155446 1218.46072069 -149.4641215 1222.31751352 -154.35644531 1226.13745117 C-160.07360039 1231.120989 -162.49733927 1234.01027099 -163.0534668 1241.57177734 C-163.09930908 1242.52028564 -163.14515137 1243.46879395 -163.19238281 1244.44604492 C-163.26078369 1245.47511963 -163.32918457 1246.50419434 -163.3996582 1247.56445312 C-163.63057474 1251.19055209 -163.82114654 1254.81725356 -164.00488281 1258.44604492 C-164.07826322 1259.86060543 -164.15183734 1261.2751559 -164.22558594 1262.68969727 C-164.5516463 1268.97536604 -164.87457205 1275.261161 -165.18530273 1281.54760742 C-165.74706067 1292.70195636 -166.54854963 1303.81908538 -167.50488281 1314.94604492 C-168.57821494 1327.43972381 -169.4023404 1339.9208548 -170.00488281 1352.44604492 C-170.64450508 1365.74202268 -171.56347212 1378.98616483 -172.70263672 1392.24829102 C-173.77141286 1404.75801075 -174.51758801 1417.26179455 -175.11761475 1429.80209351 C-175.78834248 1443.70732329 -176.81960043 1457.56495527 -178.04003906 1471.43237305 C-178.65132571 1478.45236272 -179.18025294 1485.39138285 -179.00488281 1492.44604492 C-166.7150349 1493.5651879 -156.08923541 1490.60418498 -146.19238281 1483.13354492 C-144.77762218 1481.9262116 -143.38224562 1480.69587414 -142.00488281 1479.44604492 C-140.77511719 1478.37483398 -140.77511719 1478.37483398 -139.52050781 1477.28198242 C-134.76126769 1473.08519795 -130.20476209 1468.73357967 -125.79394531 1464.17260742 C-124.00488281 1462.44604492 -124.00488281 1462.44604492 -121.77832031 1460.84448242 C-121.19308594 1460.38299805 -120.60785156 1459.92151367 -120.00488281 1459.44604492 C-120.00488281 1458.78604492 -120.00488281 1458.12604492 -120.00488281 1457.44604492 C-119.36550781 1457.17791992 -118.72613281 1456.90979492 -118.06738281 1456.63354492 C-115.67356595 1455.5593674 -115.67356595 1455.5593674 -115.00488281 1452.44604492 C-113.67154948 1451.77937826 -112.33821615 1451.11271159 -111.00488281 1450.44604492 C-110.67488281 1449.45604492 -110.34488281 1448.46604492 -110.00488281 1447.44604492 C-108.67154948 1446.77937826 -107.33821615 1446.11271159 -106.00488281 1445.44604492 C-105.67488281 1444.45604492 -105.34488281 1443.46604492 -105.00488281 1442.44604492 C-103.68855487 1441.74640003 -102.352646 1441.08303519 -101.00488281 1440.44604492 C-99.32662009 1438.97160756 -99.32662009 1438.97160756 -97.75488281 1437.25854492 C-95.22480455 1434.64702638 -92.63388657 1432.19572363 -89.87988281 1429.82104492 C-86.78378819 1427.14850082 -83.85995458 1424.37828079 -81.00488281 1421.44604492 C-71.00488281 1411.44604492 -71.00488281 1411.44604492 -68.31738281 1408.82104492 C-65.89212606 1406.47518737 -65.89212606 1406.47518737 -64.00488281 1403.44604492 C-63.37066406 1403.13022461 -62.73644531 1402.8144043 -62.08300781 1402.48901367 C-59.6294379 1401.25761674 -58.47572378 1399.88453534 -56.75488281 1397.75854492 C-54.332908 1394.8863312 -51.87716412 1392.36744486 -49.00488281 1389.94604492 C-45.5106351 1386.99144937 -42.61176111 1383.77031351 -39.65332031 1380.28979492 C-37.33623435 1377.69817271 -34.72685918 1375.60094288 -32.00488281 1373.44604492 C-27.40526454 1369.74287197 -23.45996085 1365.8257794 -19.62988281 1361.32885742 C-17.53997534 1358.9073781 -15.29588216 1356.67675481 -13.00488281 1354.44604492 C-12.15925781 1353.53854492 -11.31363281 1352.63104492 -10.44238281 1351.69604492 C-7.05071744 1348.56527688 -7.05071744 1348.56527688 -4.00488281 1348.44604492 C-1.31347656 1350.28198242 -1.31347656 1350.28198242 1.55761719 1352.82104492 C5.39556518 1356.29063398 5.39556518 1356.29063398 9.99511719 1358.44604492 C11.34246968 1359.76521012 12.67393746 1361.10066777 13.99511719 1362.44604492 C15.67528718 1363.73365183 17.38473938 1364.98387057 19.12011719 1366.19604492 C19.98894531 1366.80963867 20.85777344 1367.42323242 21.75292969 1368.05541992 C23.83865544 1369.62173425 23.83865544 1369.62173425 25.99511719 1369.44604492 C26.32511719 1370.43604492 26.65511719 1371.42604492 26.99511719 1372.44604492 C28.62502085 1373.50490839 30.29955466 1374.49586311 31.99511719 1375.44604492 C33.84250607 1376.73868628 35.67551857 1378.05206897 37.49511719 1379.38354492 C38.41292969 1380.05256836 39.33074219 1380.7215918 40.27636719 1381.41088867 C42.89498335 1383.37108842 45.44377699 1385.39945209 47.99511719 1387.44604492 C49.96802355 1388.95426944 51.94745935 1390.45398291 53.93261719 1391.94604492 C55.43115234 1393.07526367 55.43115234 1393.07526367 56.95996094 1394.22729492 C58.92476533 1395.6635998 60.92133705 1397.05781497 62.95214844 1398.39916992 C66.96133229 1401.09597652 70.71347369 1404.07800223 74.49121094 1407.08666992 C77.395441 1409.6253639 77.395441 1409.6253639 80.99511719 1410.44604492 C80.99511719 1411.10604492 80.99511719 1411.76604492 80.99511719 1412.44604492 C82.63845223 1413.48394074 84.30755586 1414.48172416 85.99511719 1415.44604492 C86.65511719 1416.10604492 87.31511719 1416.76604492 87.99511719 1417.44604492 C88.98511719 1417.44604492 89.97511719 1417.44604492 90.99511719 1417.44604492 C90.99511719 1418.10604492 90.99511719 1418.76604492 90.99511719 1419.44604492 C93.08961399 1421.08034243 95.1729381 1422.58771726 97.37011719 1424.07104492 C97.97339844 1424.4912793 98.57667969 1424.91151367 99.19824219 1425.34448242 C102.3122559 1427.67964815 102.3122559 1427.67964815 105.99511719 1428.44604492 C106.32511719 1429.43604492 106.65511719 1430.42604492 106.99511719 1431.44604492 C108.34686592 1432.39226903 109.70747221 1433.32818836 111.10839844 1434.19995117 C114.20966621 1436.24820049 117.05334432 1438.62599668 119.94433594 1440.95776367 C122.02102864 1442.62205505 122.02102864 1442.62205505 124.99511719 1443.44604492 C126.34246968 1444.76521012 127.67393746 1446.10066777 128.99511719 1447.44604492 C130.67528718 1448.73365183 132.38473938 1449.98387057 134.12011719 1451.19604492 C134.98894531 1451.80963867 135.85777344 1452.42323242 136.75292969 1453.05541992 C138.83865544 1454.62173425 138.83865544 1454.62173425 140.99511719 1454.44604492 C141.32511719 1455.43604492 141.65511719 1456.42604492 141.99511719 1457.44604492 C143.62502085 1458.50490839 145.29955466 1459.49586311 146.99511719 1460.44604492 C148.84250607 1461.73868628 150.67551857 1463.05206897 152.49511719 1464.38354492 C153.41292969 1465.05256836 154.33074219 1465.7215918 155.27636719 1466.41088867 C157.89486423 1468.37099925 160.44237705 1470.40147078 162.99511719 1472.44604492 C164.88122902 1473.875629 166.77718475 1475.29231571 168.68261719 1476.69604492 C169.63523437 1477.40245117 170.58785156 1478.10885742 171.56933594 1478.83666992 C173.78769616 1480.63032521 173.78769616 1480.63032521 175.99511719 1480.44604492 C175.99511719 1481.10604492 175.99511719 1481.76604492 175.99511719 1482.44604492 C177.63614591 1483.48758345 179.30980893 1484.47779194 180.99511719 1485.44604492 C183.05414313 1486.92212586 185.09518031 1488.42353599 187.12011719 1489.94604492 C188.15394531 1490.71948242 189.18777344 1491.49291992 190.25292969 1492.28979492 C192.34320679 1493.93343162 194.14337644 1495.56073788 195.99511719 1497.44604492 C197.65459866 1498.45792387 199.32092281 1499.45869952 200.99511719 1500.44604492 C201.65511719 1501.10604492 202.31511719 1501.76604492 202.99511719 1502.44604492 C203.98511719 1502.44604492 204.97511719 1502.44604492 205.99511719 1502.44604492 C205.99511719 1503.10604492 205.99511719 1503.76604492 205.99511719 1504.44604492 C208.06732495 1506.20010626 208.06732495 1506.20010626 210.68261719 1507.94604492 C211.55273438 1508.55448242 212.42285156 1509.16291992 213.31933594 1509.78979492 C215.92241306 1511.52226136 215.92241306 1511.52226136 218.76464844 1512.47729492 C219.50070312 1512.79698242 220.23675781 1513.11666992 220.99511719 1513.44604492 C221.32511719 1514.43604492 221.65511719 1515.42604492 221.99511719 1516.44604492 C223.36877456 1517.41765624 224.75133487 1518.37944343 226.17871094 1519.27026367 C228.92684902 1521.04916596 231.47934158 1523.07437949 234.06542969 1525.07885742 C235.97362296 1526.43081622 237.90735698 1527.40434411 239.99511719 1528.44604492 C241.32845052 1529.77937826 242.66178385 1531.11271159 243.99511719 1532.44604492 C258.74885038 1543.95395681 278.18325808 1551.08415625 296.99511719 1549.44604492 C310.21110697 1547.5332043 320.03416422 1541.04890705 327.99511719 1530.44604492 C336.37430222 1518.95577633 341.06358586 1504.68761818 343.38964844 1490.77807617 C343.99511719 1487.44604492 343.99511719 1487.44604492 344.97558594 1484.02026367 C346.07049453 1480.18179101 346.8105137 1476.37311107 347.49511719 1472.44604492 C348.18238078 1468.50371967 348.92660678 1464.68518504 350.03027344 1460.83276367 C350.94558085 1457.61992349 351.4925311 1454.56547749 351.93261719 1451.25854492 C352.71373422 1445.90667276 353.85705757 1440.77640703 355.22167969 1435.54760742 C356.01658455 1432.35995864 356.67759937 1429.17025376 357.30761719 1425.94604492 C358.74627502 1418.59457874 360.29732563 1411.26994184 361.87011719 1403.94604492 C362.12937988 1402.73787109 362.38864258 1401.52969727 362.65576172 1400.28491211 C363.88910879 1394.54965729 365.13053243 1388.81632469 366.38964844 1383.08666992 C368.23983589 1374.66116921 370.08110463 1366.24724125 371.62011719 1357.75854492 C372.61334646 1352.29578394 373.83817269 1346.96031941 375.24121094 1341.59057617 C376.46092592 1336.50316395 377.3418145 1331.35886527 378.24902344 1326.20776367 C378.97599301 1322.54246683 379.96541482 1319.03587002 380.99511719 1315.44604492 C381.48266343 1313.03510198 381.93947062 1310.61779857 382.37011719 1308.19604492 C384.46497505 1296.69644131 386.95653857 1285.28380147 389.40917969 1273.85620117 C389.65788818 1272.69725342 389.90659668 1271.53830566 390.1628418 1270.34423828 C390.67618769 1267.95302003 391.19002266 1265.56190671 391.7043457 1263.17089844 C392.96363646 1257.30576869 394.20921936 1251.43839829 395.42089844 1245.56323242 C395.64463135 1244.47872803 395.86836426 1243.39422363 396.09887695 1242.27685547 C396.51715367 1240.2423588 396.93315712 1238.20739288 397.34643555 1236.171875 C398.37053666 1231.18809155 399.58631404 1226.33788904 400.99511719 1221.44604492 C401.34040599 1219.55590844 401.65420775 1217.65968365 401.93261719 1215.75854492 C402.58123159 1211.66923378 403.38623099 1207.70174209 404.43261719 1203.69604492 C405.7594704 1198.57346734 406.7808774 1193.43766982 407.72705078 1188.23242188 C408.91336229 1181.76391026 410.22345324 1175.32305754 411.55761719 1168.88354492 C411.76757324 1167.86035156 411.9775293 1166.8371582 412.19384766 1165.78295898 C413.27381029 1160.59743091 414.52725132 1155.53751274 415.99511719 1150.44604492 C416.48266343 1148.03510198 416.93947062 1145.61779857 417.37011719 1143.19604492 C419.46497505 1131.69644131 421.95653857 1120.28380147 424.40917969 1108.85620117 C424.65788818 1107.69725342 424.90659668 1106.53830566 425.1628418 1105.34423828 C425.67618769 1102.95302003 426.19002266 1100.56190671 426.7043457 1098.17089844 C427.96363646 1092.30576869 429.20921936 1086.43839829 430.42089844 1080.56323242 C430.64463135 1079.47872803 430.86836426 1078.39422363 431.09887695 1077.27685547 C431.51715367 1075.2423588 431.93315712 1073.20739288 432.34643555 1071.171875 C433.37053666 1066.18809155 434.58631404 1061.33788904 435.99511719 1056.44604492 C436.34040599 1054.55590844 436.65420775 1052.65968365 436.93261719 1050.75854492 C437.58123159 1046.66923378 438.38623099 1042.70174209 439.43261719 1038.69604492 C440.77023858 1033.5385495 441.78506413 1028.36646403 442.73364258 1023.12475586 C443.82105452 1017.2034097 445.07747632 1011.32570005 446.37011719 1005.44604492 C448.14494153 997.37176842 449.87845774 989.29078731 451.55761719 981.19604492 C451.86844238 979.69992676 451.86844238 979.69992676 452.18554688 978.17358398 C452.97678157 974.36240772 453.76690983 970.55100701 454.55419922 966.73901367 C457.79347808 951.06830467 457.79347808 951.06830467 459.55761719 944.25854492 C460.83735731 939.28329855 461.80851861 934.28406986 462.72753906 929.23071289 C463.91321717 922.76268682 465.22357432 916.32247311 466.55761719 909.88354492 C466.76757324 908.86035156 466.9775293 907.8371582 467.19384766 906.78295898 C468.27377826 901.59758469 469.52474149 896.53675741 470.99511719 891.44604492 C471.46186795 889.13927093 471.89746138 886.82605106 472.30761719 884.50854492 C475.19312474 868.63066992 478.66931909 852.86445417 482.11743164 837.10107422 C483.63650711 830.14067635 485.10895355 823.17142147 486.55761719 816.19604492 C486.76499512 815.19798828 486.97237305 814.19993164 487.18603516 813.17163086 C487.97703189 809.3610901 488.76704547 805.55035027 489.55419922 801.73901367 C492.79347808 786.06830467 492.79347808 786.06830467 494.55761719 779.25854492 C495.83735731 774.28329855 496.80851861 769.28406986 497.72753906 764.23071289 C498.91321717 757.76268682 500.22357432 751.32247311 501.55761719 744.88354492 C501.76757324 743.86035156 501.9775293 742.8371582 502.19384766 741.78295898 C503.27379345 736.59751175 504.52561805 731.53702939 505.99511719 726.44604492 C506.48329605 724.05611434 506.94000114 721.65960448 507.37011719 719.25854492 C508.70569413 711.9119919 510.15193108 704.59112144 511.63720703 697.2734375 C512.09672357 694.99894495 512.54680217 692.7227662 512.99511719 690.44604492 C513.19234375 689.47666992 513.38957031 688.50729492 513.59277344 687.50854492 C515.83071448 670.47411988 514.77719875 652.05646161 504.99511719 637.44604492 C504.33511719 636.37354492 503.67511719 635.30104492 502.99511719 634.19604492 C495.18724246 623.46021717 483.26018804 618.92277789 470.53808594 616.74291992 C465.13418432 616.11204969 460.55516928 616.85539291 455.30761719 618.19604492 Z " fill="#FFFFFF" transform="translate(1016.0048828125,-0.446044921875)"/>
</svg>
